<?xml version="1.0" encoding="utf-8" standalone="no"?>
<!DOCTYPE svg PUBLIC "-//W3C//DTD SVG 1.1//EN"
  "http://www.w3.org/Graphics/SVG/1.1/DTD/svg11.dtd">
<svg xmlns:xlink="http://www.w3.org/1999/xlink" width="760.938743pt" height="380.304pt" viewBox="0 0 760.938743 380.304" xmlns="http://www.w3.org/2000/svg" version="1.1">
 <metadata>
  <rdf:RDF xmlns:dc="http://purl.org/dc/elements/1.1/" xmlns:cc="http://creativecommons.org/ns#" xmlns:rdf="http://www.w3.org/1999/02/22-rdf-syntax-ns#">
   <cc:Work>
    <dc:type rdf:resource="http://purl.org/dc/dcmitype/StillImage"/>
    <dc:date>2026-07-10T14:52:26.463653</dc:date>
    <dc:format>image/svg+xml</dc:format>
    <dc:creator>
     <cc:Agent>
      <dc:title>Matplotlib v3.11.0, https://matplotlib.org/</dc:title>
     </cc:Agent>
    </dc:creator>
   </cc:Work>
  </rdf:RDF>
 </metadata>
 <defs>
  <style type="text/css">*{stroke-linejoin: round; stroke-linecap: butt}</style>
 </defs>
 <g id="figure_1">
  <g id="patch_1">
   <path d="M 0 380.304 
L 760.938743 380.304 
L 760.938743 0 
L 0 0 
z
" style="fill: #ffffff"/>
  </g>
  <g id="axes_1">
   <g id="patch_2">
    <path d="M 41.81832 138.193632 
L 138.30768 138.193632 
Q 156.72168 138.193632 156.72168 129.046032 
L 156.72168 68.305968 
Q 156.72168 59.158368 138.30768 59.158368 
L 41.81832 59.158368 
Q 23.40432 59.158368 23.40432 68.305968 
L 23.40432 129.046032 
Q 23.40432 138.193632 41.81832 138.193632 
z
" clip-path="url(#p0d828b7588)" style="fill: #dcebfa; stroke: #2b6cb0; stroke-width: 1.5; stroke-linejoin: miter"/>
   </g>
   <g id="patch_3">
    <path d="M 57.28608 88.430688 
C 61.583516 88.430688 65.705518 87.582501 68.744265 86.07293 
C 71.783011 84.56336 73.4904 82.515655 73.4904 80.3808 
C 73.4904 78.245945 71.783011 76.19824 68.744265 74.68867 
C 65.705518 73.179099 61.583516 72.330912 57.28608 72.330912 
C 52.988644 72.330912 48.866642 73.179099 45.827895 74.68867 
C 42.789149 76.19824 41.08176 78.245945 41.08176 80.3808 
C 41.08176 82.515655 42.789149 84.56336 45.827895 86.07293 
C 48.866642 87.582501 52.988644 88.430688 57.28608 88.430688 
z
" clip-path="url(#p0d828b7588)" style="fill: #2b6cb0; stroke: #2b6cb0; stroke-width: 0.8; stroke-linejoin: miter"/>
   </g>
   <g id="patch_4">
    <path d="M 154.305562 98.676 
Q 159.670508 98.676 163.470207 98.676 
" clip-path="url(#p0d828b7588)" style="fill: none; stroke: #52606d; stroke-width: 1.4; stroke-linecap: round"/>
    <path d="M 156.670207 95.276 
L 163.470207 98.676 
L 156.670207 102.076 
z
" clip-path="url(#p0d828b7588)" style="fill: #52606d; stroke: #52606d; stroke-width: 1.4; stroke-linecap: round"/>
   </g>
   <g id="patch_5">
    <path d="M 185.44752 138.193632 
L 281.93688 138.193632 
Q 300.35088 138.193632 300.35088 129.046032 
L 300.35088 68.305968 
Q 300.35088 59.158368 281.93688 59.158368 
L 185.44752 59.158368 
Q 167.03352 59.158368 167.03352 68.305968 
L 167.03352 129.046032 
Q 167.03352 138.193632 185.44752 138.193632 
z
" clip-path="url(#p0d828b7588)" style="fill: #e7f4e4; stroke: #2f855a; stroke-width: 1.5; stroke-linejoin: miter"/>
   </g>
   <g id="patch_6">
    <path d="M 200.91528 88.430688 
C 205.212716 88.430688 209.334718 87.582501 212.373465 86.07293 
C 215.412211 84.56336 217.1196 82.515655 217.1196 80.3808 
C 217.1196 78.245945 215.412211 76.19824 212.373465 74.68867 
C 209.334718 73.179099 205.212716 72.330912 200.91528 72.330912 
C 196.617844 72.330912 192.495842 73.179099 189.457095 74.68867 
C 186.418349 76.19824 184.71096 78.245945 184.71096 80.3808 
C 184.71096 82.515655 186.418349 84.56336 189.457095 86.07293 
C 192.495842 87.582501 196.617844 88.430688 200.91528 88.430688 
z
" clip-path="url(#p0d828b7588)" style="fill: #2f855a; stroke: #2f855a; stroke-width: 0.8; stroke-linejoin: miter"/>
   </g>
   <g id="patch_7">
    <path d="M 297.934762 98.676 
Q 303.299708 98.676 307.099407 98.676 
" clip-path="url(#p0d828b7588)" style="fill: none; stroke: #52606d; stroke-width: 1.4; stroke-linecap: round"/>
    <path d="M 300.299407 95.276 
L 307.099407 98.676 
L 300.299407 102.076 
z
" clip-path="url(#p0d828b7588)" style="fill: #52606d; stroke: #52606d; stroke-width: 1.4; stroke-linecap: round"/>
   </g>
   <g id="patch_8">
    <path d="M 329.07672 138.193632 
L 425.56608 138.193632 
Q 443.98008 138.193632 443.98008 129.046032 
L 443.98008 68.305968 
Q 443.98008 59.158368 425.56608 59.158368 
L 329.07672 59.158368 
Q 310.66272 59.158368 310.66272 68.305968 
L 310.66272 129.046032 
Q 310.66272 138.193632 329.07672 138.193632 
z
" clip-path="url(#p0d828b7588)" style="fill: #fff3d7; stroke: #b7791f; stroke-width: 1.5; stroke-linejoin: miter"/>
   </g>
   <g id="patch_9">
    <path d="M 344.54448 88.430688 
C 348.841916 88.430688 352.963918 87.582501 356.002665 86.07293 
C 359.041411 84.56336 360.7488 82.515655 360.7488 80.3808 
C 360.7488 78.245945 359.041411 76.19824 356.002665 74.68867 
C 352.963918 73.179099 348.841916 72.330912 344.54448 72.330912 
C 340.247044 72.330912 336.125042 73.179099 333.086295 74.68867 
C 330.047549 76.19824 328.34016 78.245945 328.34016 80.3808 
C 328.34016 82.515655 330.047549 84.56336 333.086295 86.07293 
C 336.125042 87.582501 340.247044 88.430688 344.54448 88.430688 
z
" clip-path="url(#p0d828b7588)" style="fill: #b7791f; stroke: #b7791f; stroke-width: 0.8; stroke-linejoin: miter"/>
   </g>
   <g id="patch_10">
    <path d="M 441.563962 98.676 
Q 446.928908 98.676 450.728607 98.676 
" clip-path="url(#p0d828b7588)" style="fill: none; stroke: #52606d; stroke-width: 1.4; stroke-linecap: round"/>
    <path d="M 443.928607 95.276 
L 450.728607 98.676 
L 443.928607 102.076 
z
" clip-path="url(#p0d828b7588)" style="fill: #52606d; stroke: #52606d; stroke-width: 1.4; stroke-linecap: round"/>
   </g>
   <g id="patch_11">
    <path d="M 472.70592 138.193632 
L 569.19528 138.193632 
Q 587.60928 138.193632 587.60928 129.046032 
L 587.60928 68.305968 
Q 587.60928 59.158368 569.19528 59.158368 
L 472.70592 59.158368 
Q 454.29192 59.158368 454.29192 68.305968 
L 454.29192 129.046032 
Q 454.29192 138.193632 472.70592 138.193632 
z
" clip-path="url(#p0d828b7588)" style="fill: #fbe6e2; stroke: #c05621; stroke-width: 1.5; stroke-linejoin: miter"/>
   </g>
   <g id="patch_12">
    <path d="M 488.17368 88.430688 
C 492.471116 88.430688 496.593118 87.582501 499.631865 86.07293 
C 502.670611 84.56336 504.378 82.515655 504.378 80.3808 
C 504.378 78.245945 502.670611 76.19824 499.631865 74.68867 
C 496.593118 73.179099 492.471116 72.330912 488.17368 72.330912 
C 483.876244 72.330912 479.754242 73.179099 476.715495 74.68867 
C 473.676749 76.19824 471.96936 78.245945 471.96936 80.3808 
C 471.96936 82.515655 473.676749 84.56336 476.715495 86.07293 
C 479.754242 87.582501 483.876244 88.430688 488.17368 88.430688 
z
" clip-path="url(#p0d828b7588)" style="fill: #c05621; stroke: #c05621; stroke-width: 0.8; stroke-linejoin: miter"/>
   </g>
   <g id="patch_13">
    <path d="M 585.193162 98.676 
Q 590.558108 98.676 594.357807 98.676 
" clip-path="url(#p0d828b7588)" style="fill: none; stroke: #52606d; stroke-width: 1.4; stroke-linecap: round"/>
    <path d="M 587.557807 95.276 
L 594.357807 98.676 
L 587.557807 102.076 
z
" clip-path="url(#p0d828b7588)" style="fill: #52606d; stroke: #52606d; stroke-width: 1.4; stroke-linecap: round"/>
   </g>
   <g id="patch_14">
    <path d="M 616.33512 138.193632 
L 712.82448 138.193632 
Q 731.23848 138.193632 731.23848 129.046032 
L 731.23848 68.305968 
Q 731.23848 59.158368 712.82448 59.158368 
L 616.33512 59.158368 
Q 597.92112 59.158368 597.92112 68.305968 
L 597.92112 129.046032 
Q 597.92112 138.193632 616.33512 138.193632 
z
" clip-path="url(#p0d828b7588)" style="fill: #ede7f6; stroke: #6b46c1; stroke-width: 1.5; stroke-linejoin: miter"/>
   </g>
   <g id="patch_15">
    <path d="M 631.80288 88.430688 
C 636.100316 88.430688 640.222318 87.582501 643.261065 86.07293 
C 646.299811 84.56336 648.0072 82.515655 648.0072 80.3808 
C 648.0072 78.245945 646.299811 76.19824 643.261065 74.68867 
C 640.222318 73.179099 636.100316 72.330912 631.80288 72.330912 
C 627.505444 72.330912 623.383442 73.179099 620.344695 74.68867 
C 617.305949 76.19824 615.59856 78.245945 615.59856 80.3808 
C 615.59856 82.515655 617.305949 84.56336 620.344695 86.07293 
C 623.383442 87.582501 627.505444 88.430688 631.80288 88.430688 
z
" clip-path="url(#p0d828b7588)" style="fill: #6b46c1; stroke: #6b46c1; stroke-width: 0.8; stroke-linejoin: miter"/>
   </g>
   <g id="patch_16">
    <path d="M 67.59792 317.486592 
L 683.36208 317.486592 
Q 698.09328 317.486592 698.09328 310.168512 
L 698.09328 179.906688 
Q 698.09328 172.588608 683.36208 172.588608 
L 67.59792 172.588608 
Q 52.86672 172.588608 52.86672 179.906688 
L 52.86672 310.168512 
Q 52.86672 317.486592 67.59792 317.486592 
z
" clip-path="url(#p0d828b7588)" style="fill: #fff8e8; stroke: #b7791f; stroke-width: 1.4; stroke-linejoin: miter"/>
   </g>
   <g id="line2d_1">
    <path d="M 125.0496 254.1852 
L 625.9104 254.1852 
" clip-path="url(#p0d828b7588)" style="fill: none; stroke: #52606d; stroke-width: 1.5; stroke-linecap: round"/>
   </g>
   <g id="line2d_2">
    <path d="M 154.512 260.771472 
L 154.512 247.598928 
" clip-path="url(#p0d828b7588)" style="fill: none; stroke: #52606d; stroke-width: 1.1; stroke-linecap: round"/>
   </g>
   <g id="line2d_3">
    <path d="M 375.48 260.771472 
L 375.48 247.598928 
" clip-path="url(#p0d828b7588)" style="fill: none; stroke: #52606d; stroke-width: 1.1; stroke-linecap: round"/>
   </g>
   <g id="line2d_4">
    <path d="M 596.448 260.771472 
L 596.448 247.598928 
" clip-path="url(#p0d828b7588)" style="fill: none; stroke: #52606d; stroke-width: 1.1; stroke-linecap: round"/>
   </g>
   <g id="text_1">
    <!-- CensorADMET: preserving inequality labels for benchmark evaluation -->
    <g style="fill: #1f2933" transform="translate(81.258516 31.404296) scale(0.15 -0.15)">
     <defs>
      <path id="DejaVuSans-Bold-26" d="M 4288 256 
Q 3956 84 3597 -3 
Q 3238 -91 2847 -91 
Q 1681 -91 1000 561 
Q 319 1213 319 2328 
Q 319 3447 1000 4098 
Q 1681 4750 2847 4750 
Q 3238 4750 3597 4662 
Q 3956 4575 4288 4403 
L 4288 3438 
Q 3953 3666 3628 3772 
Q 3303 3878 2944 3878 
Q 2300 3878 1931 3465 
Q 1563 3053 1563 2328 
Q 1563 1606 1931 1193 
Q 2300 781 2944 781 
Q 3303 781 3628 887 
Q 3953 994 4288 1222 
L 4288 256 
z
" transform="scale(0.015625)"/>
      <path id="DejaVuSans-Bold-48" d="M 4031 1759 
L 4031 1441 
L 1416 1441 
Q 1456 1047 1700 850 
Q 1944 653 2381 653 
Q 2734 653 3104 758 
Q 3475 863 3866 1075 
L 3866 213 
Q 3469 63 3072 -14 
Q 2675 -91 2278 -91 
Q 1328 -91 801 392 
Q 275 875 275 1747 
Q 275 2603 792 3093 
Q 1309 3584 2216 3584 
Q 3041 3584 3536 3087 
Q 4031 2591 4031 1759 
z
M 2881 2131 
Q 2881 2450 2695 2645 
Q 2509 2841 2209 2841 
Q 1884 2841 1681 2658 
Q 1478 2475 1428 2131 
L 2881 2131 
z
" transform="scale(0.015625)"/>
      <path id="DejaVuSans-Bold-51" d="M 4056 2131 
L 4056 0 
L 2931 0 
L 2931 347 
L 2931 1631 
Q 2931 2084 2911 2256 
Q 2891 2428 2841 2509 
Q 2775 2619 2662 2680 
Q 2550 2741 2406 2741 
Q 2056 2741 1856 2470 
Q 1656 2200 1656 1722 
L 1656 0 
L 538 0 
L 538 3500 
L 1656 3500 
L 1656 2988 
Q 1909 3294 2193 3439 
Q 2478 3584 2822 3584 
Q 3428 3584 3742 3212 
Q 4056 2841 4056 2131 
z
" transform="scale(0.015625)"/>
      <path id="DejaVuSans-Bold-56" d="M 3272 3391 
L 3272 2541 
Q 2913 2691 2578 2766 
Q 2244 2841 1947 2841 
Q 1628 2841 1473 2761 
Q 1319 2681 1319 2516 
Q 1319 2381 1436 2309 
Q 1553 2238 1856 2203 
L 2053 2175 
Q 2913 2066 3209 1816 
Q 3506 1566 3506 1031 
Q 3506 472 3093 190 
Q 2681 -91 1863 -91 
Q 1516 -91 1145 -36 
Q 775 19 384 128 
L 384 978 
Q 719 816 1070 734 
Q 1422 653 1784 653 
Q 2113 653 2278 743 
Q 2444 834 2444 1013 
Q 2444 1163 2330 1236 
Q 2216 1309 1875 1350 
L 1678 1375 
Q 931 1469 631 1722 
Q 331 1975 331 2491 
Q 331 3047 712 3315 
Q 1094 3584 1881 3584 
Q 2191 3584 2531 3537 
Q 2872 3491 3272 3391 
z
" transform="scale(0.015625)"/>
      <path id="DejaVuSans-Bold-52" d="M 2203 2784 
Q 1831 2784 1636 2517 
Q 1441 2250 1441 1747 
Q 1441 1244 1636 976 
Q 1831 709 2203 709 
Q 2569 709 2762 976 
Q 2956 1244 2956 1747 
Q 2956 2250 2762 2517 
Q 2569 2784 2203 2784 
z
M 2203 3584 
Q 3106 3584 3614 3096 
Q 4122 2609 4122 1747 
Q 4122 884 3614 396 
Q 3106 -91 2203 -91 
Q 1297 -91 786 396 
Q 275 884 275 1747 
Q 275 2609 786 3096 
Q 1297 3584 2203 3584 
z
" transform="scale(0.015625)"/>
      <path id="DejaVuSans-Bold-55" d="M 3138 2547 
Q 2991 2616 2845 2648 
Q 2700 2681 2553 2681 
Q 2122 2681 1889 2404 
Q 1656 2128 1656 1613 
L 1656 0 
L 538 0 
L 538 3500 
L 1656 3500 
L 1656 2925 
Q 1872 3269 2151 3426 
Q 2431 3584 2822 3584 
Q 2878 3584 2943 3579 
Q 3009 3575 3134 3559 
L 3138 2547 
z
" transform="scale(0.015625)"/>
      <path id="DejaVuSans-Bold-24" d="M 3419 850 
L 1538 850 
L 1241 0 
L 31 0 
L 1759 4666 
L 3194 4666 
L 4922 0 
L 3713 0 
L 3419 850 
z
M 1838 1716 
L 3116 1716 
L 2478 3572 
L 1838 1716 
z
" transform="scale(0.015625)"/>
      <path id="DejaVuSans-Bold-27" d="M 1791 3756 
L 1791 909 
L 2222 909 
Q 2959 909 3348 1275 
Q 3738 1641 3738 2338 
Q 3738 3031 3350 3393 
Q 2963 3756 2222 3756 
L 1791 3756 
z
M 588 4666 
L 1856 4666 
Q 2919 4666 3439 4514 
Q 3959 4363 4331 4000 
Q 4659 3684 4818 3271 
Q 4978 2859 4978 2338 
Q 4978 1809 4818 1395 
Q 4659 981 4331 666 
Q 3956 303 3431 151 
Q 2906 0 1856 0 
L 588 0 
L 588 4666 
z
" transform="scale(0.015625)"/>
      <path id="DejaVuSans-Bold-30" d="M 588 4666 
L 2119 4666 
L 3181 2169 
L 4250 4666 
L 5778 4666 
L 5778 0 
L 4641 0 
L 4641 3413 
L 3566 897 
L 2803 897 
L 1728 3413 
L 1728 0 
L 588 0 
L 588 4666 
z
" transform="scale(0.015625)"/>
      <path id="DejaVuSans-Bold-28" d="M 588 4666 
L 3834 4666 
L 3834 3756 
L 1791 3756 
L 1791 2888 
L 3713 2888 
L 3713 1978 
L 1791 1978 
L 1791 909 
L 3903 909 
L 3903 0 
L 588 0 
L 588 4666 
z
" transform="scale(0.015625)"/>
      <path id="DejaVuSans-Bold-37" d="M 31 4666 
L 4331 4666 
L 4331 3756 
L 2784 3756 
L 2784 0 
L 1581 0 
L 1581 3756 
L 31 3756 
L 31 4666 
z
" transform="scale(0.015625)"/>
      <path id="DejaVuSans-Bold-1d" d="M 716 3500 
L 1844 3500 
L 1844 2291 
L 716 2291 
L 716 3500 
z
M 716 1209 
L 1844 1209 
L 1844 0 
L 716 0 
L 716 1209 
z
" transform="scale(0.015625)"/>
      <path id="DejaVuSans-Bold-3" transform="scale(0.015625)"/>
      <path id="DejaVuSans-Bold-53" d="M 1656 506 
L 1656 -1331 
L 538 -1331 
L 538 3500 
L 1656 3500 
L 1656 2988 
Q 1888 3294 2169 3439 
Q 2450 3584 2816 3584 
Q 3463 3584 3878 3070 
Q 4294 2556 4294 1747 
Q 4294 938 3878 423 
Q 3463 -91 2816 -91 
Q 2450 -91 2169 54 
Q 1888 200 1656 506 
z
M 2400 2772 
Q 2041 2772 1848 2508 
Q 1656 2244 1656 1747 
Q 1656 1250 1848 986 
Q 2041 722 2400 722 
Q 2759 722 2948 984 
Q 3138 1247 3138 1747 
Q 3138 2247 2948 2509 
Q 2759 2772 2400 2772 
z
" transform="scale(0.015625)"/>
      <path id="DejaVuSans-Bold-59" d="M 97 3500 
L 1216 3500 
L 2088 1081 
L 2956 3500 
L 4078 3500 
L 2700 0 
L 1472 0 
L 97 3500 
z
" transform="scale(0.015625)"/>
      <path id="DejaVuSans-Bold-4c" d="M 538 3500 
L 1656 3500 
L 1656 0 
L 538 0 
L 538 3500 
z
M 538 4863 
L 1656 4863 
L 1656 3950 
L 538 3950 
L 538 4863 
z
" transform="scale(0.015625)"/>
      <path id="DejaVuSans-Bold-4a" d="M 2919 594 
Q 2688 288 2409 144 
Q 2131 0 1766 0 
Q 1125 0 706 504 
Q 288 1009 288 1791 
Q 288 2575 706 3076 
Q 1125 3578 1766 3578 
Q 2131 3578 2409 3434 
Q 2688 3291 2919 2981 
L 2919 3500 
L 4044 3500 
L 4044 353 
Q 4044 -491 3511 -936 
Q 2978 -1381 1966 -1381 
Q 1638 -1381 1331 -1331 
Q 1025 -1281 716 -1178 
L 716 -306 
Q 1009 -475 1290 -558 
Q 1572 -641 1856 -641 
Q 2406 -641 2662 -400 
Q 2919 -159 2919 353 
L 2919 594 
z
M 2181 2772 
Q 1834 2772 1640 2515 
Q 1447 2259 1447 1791 
Q 1447 1309 1634 1061 
Q 1822 813 2181 813 
Q 2531 813 2725 1069 
Q 2919 1325 2919 1791 
Q 2919 2259 2725 2515 
Q 2531 2772 2181 2772 
z
" transform="scale(0.015625)"/>
      <path id="DejaVuSans-Bold-54" d="M 2181 2772 
Q 1825 2772 1636 2509 
Q 1447 2247 1447 1747 
Q 1447 1247 1636 984 
Q 1825 722 2181 722 
Q 2541 722 2730 984 
Q 2919 1247 2919 1747 
Q 2919 2247 2730 2509 
Q 2541 2772 2181 2772 
z
M 2919 506 
Q 2688 197 2409 53 
Q 2131 -91 1766 -91 
Q 1119 -91 703 423 
Q 288 938 288 1747 
Q 288 2556 703 3067 
Q 1119 3578 1766 3578 
Q 2131 3578 2409 3434 
Q 2688 3291 2919 2981 
L 2919 3500 
L 4044 3500 
L 4044 -1331 
L 2919 -1331 
L 2919 506 
z
" transform="scale(0.015625)"/>
      <path id="DejaVuSans-Bold-58" d="M 500 1363 
L 500 3500 
L 1625 3500 
L 1625 3150 
Q 1625 2866 1622 2436 
Q 1619 2006 1619 1863 
Q 1619 1441 1641 1255 
Q 1663 1069 1716 984 
Q 1784 875 1895 815 
Q 2006 756 2150 756 
Q 2500 756 2700 1025 
Q 2900 1294 2900 1772 
L 2900 3500 
L 4019 3500 
L 4019 0 
L 2900 0 
L 2900 506 
Q 2647 200 2364 54 
Q 2081 -91 1741 -91 
Q 1134 -91 817 281 
Q 500 653 500 1363 
z
" transform="scale(0.015625)"/>
      <path id="DejaVuSans-Bold-44" d="M 2106 1575 
Q 1756 1575 1579 1456 
Q 1403 1338 1403 1106 
Q 1403 894 1545 773 
Q 1688 653 1941 653 
Q 2256 653 2472 879 
Q 2688 1106 2688 1447 
L 2688 1575 
L 2106 1575 
z
M 3816 1997 
L 3816 0 
L 2688 0 
L 2688 519 
Q 2463 200 2181 54 
Q 1900 -91 1497 -91 
Q 953 -91 614 226 
Q 275 544 275 1050 
Q 275 1666 698 1953 
Q 1122 2241 2028 2241 
L 2688 2241 
L 2688 2328 
Q 2688 2594 2478 2717 
Q 2269 2841 1825 2841 
Q 1466 2841 1156 2769 
Q 847 2697 581 2553 
L 581 3406 
Q 941 3494 1303 3539 
Q 1666 3584 2028 3584 
Q 2975 3584 3395 3211 
Q 3816 2838 3816 1997 
z
" transform="scale(0.015625)"/>
      <path id="DejaVuSans-Bold-4f" d="M 538 4863 
L 1656 4863 
L 1656 0 
L 538 0 
L 538 4863 
z
" transform="scale(0.015625)"/>
      <path id="DejaVuSans-Bold-57" d="M 1759 4494 
L 1759 3500 
L 2913 3500 
L 2913 2700 
L 1759 2700 
L 1759 1216 
Q 1759 972 1856 886 
Q 1953 800 2241 800 
L 2816 800 
L 2816 0 
L 1856 0 
Q 1194 0 917 276 
Q 641 553 641 1216 
L 641 2700 
L 84 2700 
L 84 3500 
L 641 3500 
L 641 4494 
L 1759 4494 
z
" transform="scale(0.015625)"/>
      <path id="DejaVuSans-Bold-5c" d="M 78 3500 
L 1197 3500 
L 2138 1125 
L 2938 3500 
L 4056 3500 
L 2584 -331 
Q 2363 -916 2067 -1148 
Q 1772 -1381 1288 -1381 
L 641 -1381 
L 641 -647 
L 991 -647 
Q 1275 -647 1404 -556 
Q 1534 -466 1606 -231 
L 1638 -134 
L 78 3500 
z
" transform="scale(0.015625)"/>
      <path id="DejaVuSans-Bold-45" d="M 2400 722 
Q 2759 722 2948 984 
Q 3138 1247 3138 1747 
Q 3138 2247 2948 2509 
Q 2759 2772 2400 2772 
Q 2041 2772 1848 2508 
Q 1656 2244 1656 1747 
Q 1656 1250 1848 986 
Q 2041 722 2400 722 
z
M 1656 2988 
Q 1888 3294 2169 3439 
Q 2450 3584 2816 3584 
Q 3463 3584 3878 3070 
Q 4294 2556 4294 1747 
Q 4294 938 3878 423 
Q 3463 -91 2816 -91 
Q 2450 -91 2169 54 
Q 1888 200 1656 506 
L 1656 0 
L 538 0 
L 538 4863 
L 1656 4863 
L 1656 2988 
z
" transform="scale(0.015625)"/>
      <path id="DejaVuSans-Bold-49" d="M 2841 4863 
L 2841 4128 
L 2222 4128 
Q 1984 4128 1890 4042 
Q 1797 3956 1797 3744 
L 1797 3500 
L 2753 3500 
L 2753 2700 
L 1797 2700 
L 1797 0 
L 678 0 
L 678 2700 
L 122 2700 
L 122 3500 
L 678 3500 
L 678 3744 
Q 678 4316 997 4589 
Q 1316 4863 1984 4863 
L 2841 4863 
z
" transform="scale(0.015625)"/>
      <path id="DejaVuSans-Bold-46" d="M 3366 3391 
L 3366 2478 
Q 3138 2634 2908 2709 
Q 2678 2784 2431 2784 
Q 1963 2784 1702 2511 
Q 1441 2238 1441 1747 
Q 1441 1256 1702 982 
Q 1963 709 2431 709 
Q 2694 709 2930 787 
Q 3166 866 3366 1019 
L 3366 103 
Q 3103 6 2833 -42 
Q 2563 -91 2291 -91 
Q 1344 -91 809 395 
Q 275 881 275 1747 
Q 275 2613 809 3098 
Q 1344 3584 2291 3584 
Q 2566 3584 2833 3536 
Q 3100 3488 3366 3391 
z
" transform="scale(0.015625)"/>
      <path id="DejaVuSans-Bold-4b" d="M 4056 2131 
L 4056 0 
L 2931 0 
L 2931 347 
L 2931 1625 
Q 2931 2084 2911 2256 
Q 2891 2428 2841 2509 
Q 2775 2619 2662 2680 
Q 2550 2741 2406 2741 
Q 2056 2741 1856 2470 
Q 1656 2200 1656 1722 
L 1656 0 
L 538 0 
L 538 4863 
L 1656 4863 
L 1656 2988 
Q 1909 3294 2193 3439 
Q 2478 3584 2822 3584 
Q 3428 3584 3742 3212 
Q 4056 2841 4056 2131 
z
" transform="scale(0.015625)"/>
      <path id="DejaVuSans-Bold-50" d="M 3781 2919 
Q 3994 3244 4286 3414 
Q 4578 3584 4928 3584 
Q 5531 3584 5847 3212 
Q 6163 2841 6163 2131 
L 6163 0 
L 5038 0 
L 5038 1825 
Q 5041 1866 5042 1909 
Q 5044 1953 5044 2034 
Q 5044 2406 4934 2573 
Q 4825 2741 4581 2741 
Q 4263 2741 4089 2478 
Q 3916 2216 3909 1719 
L 3909 0 
L 2784 0 
L 2784 1825 
Q 2784 2406 2684 2573 
Q 2584 2741 2328 2741 
Q 2006 2741 1831 2477 
Q 1656 2213 1656 1722 
L 1656 0 
L 531 0 
L 531 3500 
L 1656 3500 
L 1656 2988 
Q 1863 3284 2130 3434 
Q 2397 3584 2719 3584 
Q 3081 3584 3359 3409 
Q 3638 3234 3781 2919 
z
" transform="scale(0.015625)"/>
      <path id="DejaVuSans-Bold-4e" d="M 538 4863 
L 1656 4863 
L 1656 2216 
L 2944 3500 
L 4244 3500 
L 2534 1894 
L 4378 0 
L 3022 0 
L 1656 1459 
L 1656 0 
L 538 0 
L 538 4863 
z
" transform="scale(0.015625)"/>
     </defs>
     <use xlink:href="#DejaVuSans-Bold-26"/>
     <use xlink:href="#DejaVuSans-Bold-48" transform="translate(73.390625 0)"/>
     <use xlink:href="#DejaVuSans-Bold-51" transform="translate(141.21875 0)"/>
     <use xlink:href="#DejaVuSans-Bold-56" transform="translate(212.40625 0)"/>
     <use xlink:href="#DejaVuSans-Bold-52" transform="translate(271.921875 0)"/>
     <use xlink:href="#DejaVuSans-Bold-55" transform="translate(340.625 0)"/>
     <use xlink:href="#DejaVuSans-Bold-24" transform="translate(389.9375 0)"/>
     <use xlink:href="#DejaVuSans-Bold-27" transform="translate(467.328125 0)"/>
     <use xlink:href="#DejaVuSans-Bold-30" transform="translate(550.34375 0)"/>
     <use xlink:href="#DejaVuSans-Bold-28" transform="translate(649.859375 0)"/>
     <use xlink:href="#DejaVuSans-Bold-37" transform="translate(718.171875 0)"/>
     <use xlink:href="#DejaVuSans-Bold-1d" transform="translate(780.921875 0)"/>
     <use xlink:href="#DejaVuSans-Bold-3" transform="translate(820.90625 0)"/>
     <use xlink:href="#DejaVuSans-Bold-53" transform="translate(855.71875 0)"/>
     <use xlink:href="#DejaVuSans-Bold-55" transform="translate(927.296875 0)"/>
     <use xlink:href="#DejaVuSans-Bold-48" transform="translate(976.609375 0)"/>
     <use xlink:href="#DejaVuSans-Bold-56" transform="translate(1044.4375 0)"/>
     <use xlink:href="#DejaVuSans-Bold-48" transform="translate(1103.953125 0)"/>
     <use xlink:href="#DejaVuSans-Bold-55" transform="translate(1171.78125 0)"/>
     <use xlink:href="#DejaVuSans-Bold-59" transform="translate(1221.09375 0)"/>
     <use xlink:href="#DejaVuSans-Bold-4c" transform="translate(1286.28125 0)"/>
     <use xlink:href="#DejaVuSans-Bold-51" transform="translate(1320.5625 0)"/>
     <use xlink:href="#DejaVuSans-Bold-4a" transform="translate(1391.75 0)"/>
     <use xlink:href="#DejaVuSans-Bold-3" transform="translate(1463.328125 0)"/>
     <use xlink:href="#DejaVuSans-Bold-4c" transform="translate(1498.140625 0)"/>
     <use xlink:href="#DejaVuSans-Bold-51" transform="translate(1532.421875 0)"/>
     <use xlink:href="#DejaVuSans-Bold-48" transform="translate(1603.609375 0)"/>
     <use xlink:href="#DejaVuSans-Bold-54" transform="translate(1671.4375 0)"/>
     <use xlink:href="#DejaVuSans-Bold-58" transform="translate(1743.015625 0)"/>
     <use xlink:href="#DejaVuSans-Bold-44" transform="translate(1814.203125 0)"/>
     <use xlink:href="#DejaVuSans-Bold-4f" transform="translate(1881.6875 0)"/>
     <use xlink:href="#DejaVuSans-Bold-4c" transform="translate(1915.96875 0)"/>
     <use xlink:href="#DejaVuSans-Bold-57" transform="translate(1950.25 0)"/>
     <use xlink:href="#DejaVuSans-Bold-5c" transform="translate(1998.046875 0)"/>
     <use xlink:href="#DejaVuSans-Bold-3" transform="translate(2063.234375 0)"/>
     <use xlink:href="#DejaVuSans-Bold-4f" transform="translate(2098.046875 0)"/>
     <use xlink:href="#DejaVuSans-Bold-44" transform="translate(2132.328125 0)"/>
     <use xlink:href="#DejaVuSans-Bold-45" transform="translate(2199.8125 0)"/>
     <use xlink:href="#DejaVuSans-Bold-48" transform="translate(2271.390625 0)"/>
     <use xlink:href="#DejaVuSans-Bold-4f" transform="translate(2339.21875 0)"/>
     <use xlink:href="#DejaVuSans-Bold-56" transform="translate(2373.5 0)"/>
     <use xlink:href="#DejaVuSans-Bold-3" transform="translate(2433.015625 0)"/>
     <use xlink:href="#DejaVuSans-Bold-49" transform="translate(2467.828125 0)"/>
     <use xlink:href="#DejaVuSans-Bold-52" transform="translate(2511.328125 0)"/>
     <use xlink:href="#DejaVuSans-Bold-55" transform="translate(2580.03125 0)"/>
     <use xlink:href="#DejaVuSans-Bold-3" transform="translate(2629.34375 0)"/>
     <use xlink:href="#DejaVuSans-Bold-45" transform="translate(2664.15625 0)"/>
     <use xlink:href="#DejaVuSans-Bold-48" transform="translate(2735.734375 0)"/>
     <use xlink:href="#DejaVuSans-Bold-51" transform="translate(2803.5625 0)"/>
     <use xlink:href="#DejaVuSans-Bold-46" transform="translate(2874.75 0)"/>
     <use xlink:href="#DejaVuSans-Bold-4b" transform="translate(2934.03125 0)"/>
     <use xlink:href="#DejaVuSans-Bold-50" transform="translate(3005.21875 0)"/>
     <use xlink:href="#DejaVuSans-Bold-44" transform="translate(3109.421875 0)"/>
     <use xlink:href="#DejaVuSans-Bold-55" transform="translate(3176.90625 0)"/>
     <use xlink:href="#DejaVuSans-Bold-4e" transform="translate(3226.21875 0)"/>
     <use xlink:href="#DejaVuSans-Bold-3" transform="translate(3292.71875 0)"/>
     <use xlink:href="#DejaVuSans-Bold-48" transform="translate(3327.53125 0)"/>
     <use xlink:href="#DejaVuSans-Bold-59" transform="translate(3395.359375 0)"/>
     <use xlink:href="#DejaVuSans-Bold-44" transform="translate(3460.546875 0)"/>
     <use xlink:href="#DejaVuSans-Bold-4f" transform="translate(3528.03125 0)"/>
     <use xlink:href="#DejaVuSans-Bold-58" transform="translate(3562.3125 0)"/>
     <use xlink:href="#DejaVuSans-Bold-44" transform="translate(3633.5 0)"/>
     <use xlink:href="#DejaVuSans-Bold-57" transform="translate(3700.984375 0)"/>
     <use xlink:href="#DejaVuSans-Bold-4c" transform="translate(3748.78125 0)"/>
     <use xlink:href="#DejaVuSans-Bold-52" transform="translate(3783.0625 0)"/>
     <use xlink:href="#DejaVuSans-Bold-51" transform="translate(3851.765625 0)"/>
    </g>
   </g>
   <g id="text_2">
    <!-- 1 -->
    <g style="fill: #ffffff" transform="translate(53.981119 82.848573) scale(0.095 -0.095)">
     <defs>
      <path id="DejaVuSans-Bold-14" d="M 750 831 
L 1813 831 
L 1813 3847 
L 722 3622 
L 722 4441 
L 1806 4666 
L 2950 4666 
L 2950 831 
L 4013 831 
L 4013 0 
L 750 0 
L 750 831 
z
" transform="scale(0.015625)"/>
     </defs>
     <use xlink:href="#DejaVuSans-Bold-14"/>
    </g>
   </g>
   <g id="text_3">
    <!-- Raw activity -->
    <g style="fill: #1f2933" transform="translate(79.38288 82.978847) scale(0.1 -0.1)">
     <defs>
      <path id="DejaVuSans-Bold-35" d="M 2297 2597 
Q 2675 2597 2839 2737 
Q 3003 2878 3003 3200 
Q 3003 3519 2839 3656 
Q 2675 3794 2297 3794 
L 1791 3794 
L 1791 2597 
L 2297 2597 
z
M 1791 1766 
L 1791 0 
L 588 0 
L 588 4666 
L 2425 4666 
Q 3347 4666 3776 4356 
Q 4206 4047 4206 3378 
Q 4206 2916 3982 2619 
Q 3759 2322 3309 2181 
Q 3556 2125 3751 1926 
Q 3947 1728 4147 1325 
L 4800 0 
L 3519 0 
L 2950 1159 
Q 2778 1509 2601 1637 
Q 2425 1766 2131 1766 
L 1791 1766 
z
" transform="scale(0.015625)"/>
      <path id="DejaVuSans-Bold-5a" d="M 225 3500 
L 1313 3500 
L 1900 1088 
L 2491 3500 
L 3425 3500 
L 4013 1113 
L 4603 3500 
L 5691 3500 
L 4769 0 
L 3547 0 
L 2956 2406 
L 2369 0 
L 1147 0 
L 225 3500 
z
" transform="scale(0.015625)"/>
     </defs>
     <use xlink:href="#DejaVuSans-Bold-35"/>
     <use xlink:href="#DejaVuSans-Bold-44" transform="translate(77 0)"/>
     <use xlink:href="#DejaVuSans-Bold-5a" transform="translate(144.484375 0)"/>
     <use xlink:href="#DejaVuSans-Bold-3" transform="translate(236.875 0)"/>
     <use xlink:href="#DejaVuSans-Bold-44" transform="translate(271.6875 0)"/>
     <use xlink:href="#DejaVuSans-Bold-46" transform="translate(339.171875 0)"/>
     <use xlink:href="#DejaVuSans-Bold-57" transform="translate(398.453125 0)"/>
     <use xlink:href="#DejaVuSans-Bold-4c" transform="translate(446.25 0)"/>
     <use xlink:href="#DejaVuSans-Bold-59" transform="translate(480.53125 0)"/>
     <use xlink:href="#DejaVuSans-Bold-4c" transform="translate(545.71875 0)"/>
     <use xlink:href="#DejaVuSans-Bold-57" transform="translate(580 0)"/>
     <use xlink:href="#DejaVuSans-Bold-5c" transform="translate(627.796875 0)"/>
    </g>
   </g>
   <g id="text_4">
    <!-- ChEMBL 36 -->
    <g style="fill: #1f2933" transform="translate(49.92048 103.420366) scale(0.088 -0.088)">
     <defs>
      <path id="DejaVuSans-26" d="M 4122 4306 
L 4122 3641 
Q 3803 3938 3442 4084 
Q 3081 4231 2675 4231 
Q 1875 4231 1450 3742 
Q 1025 3253 1025 2328 
Q 1025 1406 1450 917 
Q 1875 428 2675 428 
Q 3081 428 3442 575 
Q 3803 722 4122 1019 
L 4122 359 
Q 3791 134 3420 21 
Q 3050 -91 2638 -91 
Q 1578 -91 968 557 
Q 359 1206 359 2328 
Q 359 3453 968 4101 
Q 1578 4750 2638 4750 
Q 3056 4750 3426 4639 
Q 3797 4528 4122 4306 
z
" transform="scale(0.015625)"/>
      <path id="DejaVuSans-4b" d="M 3513 2113 
L 3513 0 
L 2938 0 
L 2938 2094 
Q 2938 2591 2744 2837 
Q 2550 3084 2163 3084 
Q 1697 3084 1428 2787 
Q 1159 2491 1159 1978 
L 1159 0 
L 581 0 
L 581 4863 
L 1159 4863 
L 1159 2956 
Q 1366 3272 1645 3428 
Q 1925 3584 2291 3584 
Q 2894 3584 3203 3211 
Q 3513 2838 3513 2113 
z
" transform="scale(0.015625)"/>
      <path id="DejaVuSans-28" d="M 628 4666 
L 3578 4666 
L 3578 4134 
L 1259 4134 
L 1259 2753 
L 3481 2753 
L 3481 2222 
L 1259 2222 
L 1259 531 
L 3634 531 
L 3634 0 
L 628 0 
L 628 4666 
z
" transform="scale(0.015625)"/>
      <path id="DejaVuSans-30" d="M 628 4666 
L 1569 4666 
L 2759 1491 
L 3956 4666 
L 4897 4666 
L 4897 0 
L 4281 0 
L 4281 4097 
L 3078 897 
L 2444 897 
L 1241 4097 
L 1241 0 
L 628 0 
L 628 4666 
z
" transform="scale(0.015625)"/>
      <path id="DejaVuSans-25" d="M 1259 2228 
L 1259 519 
L 2272 519 
Q 2781 519 3026 730 
Q 3272 941 3272 1375 
Q 3272 1813 3026 2020 
Q 2781 2228 2272 2228 
L 1259 2228 
z
M 1259 4147 
L 1259 2741 
L 2194 2741 
Q 2656 2741 2882 2914 
Q 3109 3088 3109 3444 
Q 3109 3797 2882 3972 
Q 2656 4147 2194 4147 
L 1259 4147 
z
M 628 4666 
L 2241 4666 
Q 2963 4666 3353 4366 
Q 3744 4066 3744 3513 
Q 3744 3084 3544 2831 
Q 3344 2578 2956 2516 
Q 3422 2416 3680 2098 
Q 3938 1781 3938 1306 
Q 3938 681 3513 340 
Q 3088 0 2303 0 
L 628 0 
L 628 4666 
z
" transform="scale(0.015625)"/>
      <path id="DejaVuSans-2f" d="M 628 4666 
L 1259 4666 
L 1259 531 
L 3531 531 
L 3531 0 
L 628 0 
L 628 4666 
z
" transform="scale(0.015625)"/>
      <path id="DejaVuSans-3" transform="scale(0.015625)"/>
      <path id="DejaVuSans-16" d="M 2597 2516 
Q 3050 2419 3304 2112 
Q 3559 1806 3559 1356 
Q 3559 666 3084 287 
Q 2609 -91 1734 -91 
Q 1441 -91 1130 -33 
Q 819 25 488 141 
L 488 750 
Q 750 597 1062 519 
Q 1375 441 1716 441 
Q 2309 441 2620 675 
Q 2931 909 2931 1356 
Q 2931 1769 2642 2001 
Q 2353 2234 1838 2234 
L 1294 2234 
L 1294 2753 
L 1863 2753 
Q 2328 2753 2575 2939 
Q 2822 3125 2822 3475 
Q 2822 3834 2567 4026 
Q 2313 4219 1838 4219 
Q 1578 4219 1281 4162 
Q 984 4106 628 3988 
L 628 4550 
Q 988 4650 1302 4700 
Q 1616 4750 1894 4750 
Q 2613 4750 3031 4423 
Q 3450 4097 3450 3541 
Q 3450 3153 3228 2886 
Q 3006 2619 2597 2516 
z
" transform="scale(0.015625)"/>
      <path id="DejaVuSans-19" d="M 2113 2584 
Q 1688 2584 1439 2293 
Q 1191 2003 1191 1497 
Q 1191 994 1439 701 
Q 1688 409 2113 409 
Q 2538 409 2786 701 
Q 3034 994 3034 1497 
Q 3034 2003 2786 2293 
Q 2538 2584 2113 2584 
z
M 3366 4563 
L 3366 3988 
Q 3128 4100 2886 4159 
Q 2644 4219 2406 4219 
Q 1781 4219 1451 3797 
Q 1122 3375 1075 2522 
Q 1259 2794 1537 2939 
Q 1816 3084 2150 3084 
Q 2853 3084 3261 2657 
Q 3669 2231 3669 1497 
Q 3669 778 3244 343 
Q 2819 -91 2113 -91 
Q 1303 -91 875 529 
Q 447 1150 447 2328 
Q 447 3434 972 4092 
Q 1497 4750 2381 4750 
Q 2619 4750 2861 4703 
Q 3103 4656 3366 4563 
z
" transform="scale(0.015625)"/>
     </defs>
     <use xlink:href="#DejaVuSans-26"/>
     <use xlink:href="#DejaVuSans-4b" transform="translate(69.828125 0)"/>
     <use xlink:href="#DejaVuSans-28" transform="translate(133.203125 0)"/>
     <use xlink:href="#DejaVuSans-30" transform="translate(196.390625 0)"/>
     <use xlink:href="#DejaVuSans-25" transform="translate(282.671875 0)"/>
     <use xlink:href="#DejaVuSans-2f" transform="translate(351.28125 0)"/>
     <use xlink:href="#DejaVuSans-3" transform="translate(407 0)"/>
     <use xlink:href="#DejaVuSans-16" transform="translate(438.78125 0)"/>
     <use xlink:href="#DejaVuSans-19" transform="translate(502.40625 0)"/>
    </g>
   </g>
   <g id="text_5">
    <!-- 31 endpoints; 39,157 rows -->
    <g style="fill: #334155" transform="translate(49.92048 119.965695) scale(0.082 -0.082)">
     <defs>
      <path id="DejaVuSans-14" d="M 794 531 
L 1825 531 
L 1825 4091 
L 703 3866 
L 703 4441 
L 1819 4666 
L 2450 4666 
L 2450 531 
L 3481 531 
L 3481 0 
L 794 0 
L 794 531 
z
" transform="scale(0.015625)"/>
      <path id="DejaVuSans-48" d="M 3597 1894 
L 3597 1613 
L 953 1613 
Q 991 1019 1311 708 
Q 1631 397 2203 397 
Q 2534 397 2845 478 
Q 3156 559 3463 722 
L 3463 178 
Q 3153 47 2828 -22 
Q 2503 -91 2169 -91 
Q 1331 -91 842 396 
Q 353 884 353 1716 
Q 353 2575 817 3079 
Q 1281 3584 2069 3584 
Q 2775 3584 3186 3129 
Q 3597 2675 3597 1894 
z
M 3022 2063 
Q 3016 2534 2758 2815 
Q 2500 3097 2075 3097 
Q 1594 3097 1305 2825 
Q 1016 2553 972 2059 
L 3022 2063 
z
" transform="scale(0.015625)"/>
      <path id="DejaVuSans-51" d="M 3513 2113 
L 3513 0 
L 2938 0 
L 2938 2094 
Q 2938 2591 2744 2837 
Q 2550 3084 2163 3084 
Q 1697 3084 1428 2787 
Q 1159 2491 1159 1978 
L 1159 0 
L 581 0 
L 581 3500 
L 1159 3500 
L 1159 2956 
Q 1366 3272 1645 3428 
Q 1925 3584 2291 3584 
Q 2894 3584 3203 3211 
Q 3513 2838 3513 2113 
z
" transform="scale(0.015625)"/>
      <path id="DejaVuSans-47" d="M 2906 2969 
L 2906 4863 
L 3481 4863 
L 3481 0 
L 2906 0 
L 2906 525 
Q 2725 213 2448 61 
Q 2172 -91 1784 -91 
Q 1150 -91 751 415 
Q 353 922 353 1747 
Q 353 2572 751 3078 
Q 1150 3584 1784 3584 
Q 2172 3584 2448 3432 
Q 2725 3281 2906 2969 
z
M 947 1747 
Q 947 1113 1208 752 
Q 1469 391 1925 391 
Q 2381 391 2643 752 
Q 2906 1113 2906 1747 
Q 2906 2381 2643 2742 
Q 2381 3103 1925 3103 
Q 1469 3103 1208 2742 
Q 947 2381 947 1747 
z
" transform="scale(0.015625)"/>
      <path id="DejaVuSans-53" d="M 1159 525 
L 1159 -1331 
L 581 -1331 
L 581 3500 
L 1159 3500 
L 1159 2969 
Q 1341 3281 1617 3432 
Q 1894 3584 2278 3584 
Q 2916 3584 3314 3078 
Q 3713 2572 3713 1747 
Q 3713 922 3314 415 
Q 2916 -91 2278 -91 
Q 1894 -91 1617 61 
Q 1341 213 1159 525 
z
M 3116 1747 
Q 3116 2381 2855 2742 
Q 2594 3103 2138 3103 
Q 1681 3103 1420 2742 
Q 1159 2381 1159 1747 
Q 1159 1113 1420 752 
Q 1681 391 2138 391 
Q 2594 391 2855 752 
Q 3116 1113 3116 1747 
z
" transform="scale(0.015625)"/>
      <path id="DejaVuSans-52" d="M 1959 3097 
Q 1497 3097 1228 2736 
Q 959 2375 959 1747 
Q 959 1119 1226 758 
Q 1494 397 1959 397 
Q 2419 397 2687 759 
Q 2956 1122 2956 1747 
Q 2956 2369 2687 2733 
Q 2419 3097 1959 3097 
z
M 1959 3584 
Q 2709 3584 3137 3096 
Q 3566 2609 3566 1747 
Q 3566 888 3137 398 
Q 2709 -91 1959 -91 
Q 1206 -91 779 398 
Q 353 888 353 1747 
Q 353 2609 779 3096 
Q 1206 3584 1959 3584 
z
" transform="scale(0.015625)"/>
      <path id="DejaVuSans-4c" d="M 603 3500 
L 1178 3500 
L 1178 0 
L 603 0 
L 603 3500 
z
M 603 4863 
L 1178 4863 
L 1178 4134 
L 603 4134 
L 603 4863 
z
" transform="scale(0.015625)"/>
      <path id="DejaVuSans-57" d="M 1172 4494 
L 1172 3500 
L 2356 3500 
L 2356 3053 
L 1172 3053 
L 1172 1153 
Q 1172 725 1289 603 
Q 1406 481 1766 481 
L 2356 481 
L 2356 0 
L 1766 0 
Q 1100 0 847 248 
Q 594 497 594 1153 
L 594 3053 
L 172 3053 
L 172 3500 
L 594 3500 
L 594 4494 
L 1172 4494 
z
" transform="scale(0.015625)"/>
      <path id="DejaVuSans-56" d="M 2834 3397 
L 2834 2853 
Q 2591 2978 2328 3040 
Q 2066 3103 1784 3103 
Q 1356 3103 1142 2972 
Q 928 2841 928 2578 
Q 928 2378 1081 2264 
Q 1234 2150 1697 2047 
L 1894 2003 
Q 2506 1872 2764 1633 
Q 3022 1394 3022 966 
Q 3022 478 2636 193 
Q 2250 -91 1575 -91 
Q 1294 -91 989 -36 
Q 684 19 347 128 
L 347 722 
Q 666 556 975 473 
Q 1284 391 1588 391 
Q 1994 391 2212 530 
Q 2431 669 2431 922 
Q 2431 1156 2273 1281 
Q 2116 1406 1581 1522 
L 1381 1569 
Q 847 1681 609 1914 
Q 372 2147 372 2553 
Q 372 3047 722 3315 
Q 1072 3584 1716 3584 
Q 2034 3584 2315 3537 
Q 2597 3491 2834 3397 
z
" transform="scale(0.015625)"/>
      <path id="DejaVuSans-1e" d="M 750 3309 
L 1409 3309 
L 1409 2516 
L 750 2516 
L 750 3309 
z
M 750 794 
L 1409 794 
L 1409 256 
L 897 -744 
L 494 -744 
L 750 256 
L 750 794 
z
" transform="scale(0.015625)"/>
      <path id="DejaVuSans-1c" d="M 703 97 
L 703 672 
Q 941 559 1184 500 
Q 1428 441 1663 441 
Q 2288 441 2617 861 
Q 2947 1281 2994 2138 
Q 2813 1869 2534 1725 
Q 2256 1581 1919 1581 
Q 1219 1581 811 2004 
Q 403 2428 403 3163 
Q 403 3881 828 4315 
Q 1253 4750 1959 4750 
Q 2769 4750 3195 4129 
Q 3622 3509 3622 2328 
Q 3622 1225 3098 567 
Q 2575 -91 1691 -91 
Q 1453 -91 1209 -44 
Q 966 3 703 97 
z
M 1959 2075 
Q 2384 2075 2632 2365 
Q 2881 2656 2881 3163 
Q 2881 3666 2632 3958 
Q 2384 4250 1959 4250 
Q 1534 4250 1286 3958 
Q 1038 3666 1038 3163 
Q 1038 2656 1286 2365 
Q 1534 2075 1959 2075 
z
" transform="scale(0.015625)"/>
      <path id="DejaVuSans-f" d="M 750 794 
L 1409 794 
L 1409 256 
L 897 -744 
L 494 -744 
L 750 256 
L 750 794 
z
" transform="scale(0.015625)"/>
      <path id="DejaVuSans-18" d="M 691 4666 
L 3169 4666 
L 3169 4134 
L 1269 4134 
L 1269 2991 
Q 1406 3038 1543 3061 
Q 1681 3084 1819 3084 
Q 2600 3084 3056 2656 
Q 3513 2228 3513 1497 
Q 3513 744 3044 326 
Q 2575 -91 1722 -91 
Q 1428 -91 1123 -41 
Q 819 9 494 109 
L 494 744 
Q 775 591 1075 516 
Q 1375 441 1709 441 
Q 2250 441 2565 725 
Q 2881 1009 2881 1497 
Q 2881 1984 2565 2268 
Q 2250 2553 1709 2553 
Q 1456 2553 1204 2497 
Q 953 2441 691 2322 
L 691 4666 
z
" transform="scale(0.015625)"/>
      <path id="DejaVuSans-1a" d="M 525 4666 
L 3525 4666 
L 3525 4397 
L 1831 0 
L 1172 0 
L 2766 4134 
L 525 4134 
L 525 4666 
z
" transform="scale(0.015625)"/>
      <path id="DejaVuSans-55" d="M 2631 2963 
Q 2534 3019 2420 3045 
Q 2306 3072 2169 3072 
Q 1681 3072 1420 2755 
Q 1159 2438 1159 1844 
L 1159 0 
L 581 0 
L 581 3500 
L 1159 3500 
L 1159 2956 
Q 1341 3275 1631 3429 
Q 1922 3584 2338 3584 
Q 2397 3584 2469 3576 
Q 2541 3569 2628 3553 
L 2631 2963 
z
" transform="scale(0.015625)"/>
      <path id="DejaVuSans-5a" d="M 269 3500 
L 844 3500 
L 1563 769 
L 2278 3500 
L 2956 3500 
L 3675 769 
L 4391 3500 
L 4966 3500 
L 4050 0 
L 3372 0 
L 2619 2869 
L 1863 0 
L 1184 0 
L 269 3500 
z
" transform="scale(0.015625)"/>
     </defs>
     <use xlink:href="#DejaVuSans-16"/>
     <use xlink:href="#DejaVuSans-14" transform="translate(63.625 0)"/>
     <use xlink:href="#DejaVuSans-3" transform="translate(127.25 0)"/>
     <use xlink:href="#DejaVuSans-48" transform="translate(159.03125 0)"/>
     <use xlink:href="#DejaVuSans-51" transform="translate(220.5625 0)"/>
     <use xlink:href="#DejaVuSans-47" transform="translate(283.9375 0)"/>
     <use xlink:href="#DejaVuSans-53" transform="translate(347.421875 0)"/>
     <use xlink:href="#DejaVuSans-52" transform="translate(410.90625 0)"/>
     <use xlink:href="#DejaVuSans-4c" transform="translate(472.09375 0)"/>
     <use xlink:href="#DejaVuSans-51" transform="translate(499.875 0)"/>
     <use xlink:href="#DejaVuSans-57" transform="translate(563.25 0)"/>
     <use xlink:href="#DejaVuSans-56" transform="translate(602.453125 0)"/>
     <use xlink:href="#DejaVuSans-1e" transform="translate(654.546875 0)"/>
     <use xlink:href="#DejaVuSans-3" transform="translate(688.234375 0)"/>
     <use xlink:href="#DejaVuSans-16" transform="translate(720.015625 0)"/>
     <use xlink:href="#DejaVuSans-1c" transform="translate(783.640625 0)"/>
     <use xlink:href="#DejaVuSans-f" transform="translate(847.265625 0)"/>
     <use xlink:href="#DejaVuSans-14" transform="translate(879.046875 0)"/>
     <use xlink:href="#DejaVuSans-18" transform="translate(942.671875 0)"/>
     <use xlink:href="#DejaVuSans-1a" transform="translate(1006.296875 0)"/>
     <use xlink:href="#DejaVuSans-3" transform="translate(1069.921875 0)"/>
     <use xlink:href="#DejaVuSans-55" transform="translate(1101.703125 0)"/>
     <use xlink:href="#DejaVuSans-52" transform="translate(1140.609375 0)"/>
     <use xlink:href="#DejaVuSans-5a" transform="translate(1201.796875 0)"/>
     <use xlink:href="#DejaVuSans-56" transform="translate(1283.578125 0)"/>
    </g>
   </g>
   <g id="text_6">
    <!-- 2 -->
    <g style="fill: #ffffff" transform="translate(197.610319 82.848573) scale(0.095 -0.095)">
     <defs>
      <path id="DejaVuSans-Bold-15" d="M 1844 884 
L 3897 884 
L 3897 0 
L 506 0 
L 506 884 
L 2209 2388 
Q 2438 2594 2547 2791 
Q 2656 2988 2656 3200 
Q 2656 3528 2436 3728 
Q 2216 3928 1850 3928 
Q 1569 3928 1234 3808 
Q 900 3688 519 3450 
L 519 4475 
Q 925 4609 1322 4679 
Q 1719 4750 2100 4750 
Q 2938 4750 3402 4381 
Q 3866 4013 3866 3353 
Q 3866 2972 3669 2642 
Q 3472 2313 2841 1759 
L 1844 884 
z
" transform="scale(0.015625)"/>
     </defs>
     <use xlink:href="#DejaVuSans-Bold-15"/>
    </g>
   </g>
   <g id="text_7">
    <!-- Curation -->
    <g style="fill: #1f2933" transform="translate(223.01208 82.978847) scale(0.1 -0.1)">
     <use xlink:href="#DejaVuSans-Bold-26"/>
     <use xlink:href="#DejaVuSans-Bold-58" transform="translate(73.390625 0)"/>
     <use xlink:href="#DejaVuSans-Bold-55" transform="translate(144.578125 0)"/>
     <use xlink:href="#DejaVuSans-Bold-44" transform="translate(193.890625 0)"/>
     <use xlink:href="#DejaVuSans-Bold-57" transform="translate(261.375 0)"/>
     <use xlink:href="#DejaVuSans-Bold-4c" transform="translate(309.171875 0)"/>
     <use xlink:href="#DejaVuSans-Bold-52" transform="translate(343.453125 0)"/>
     <use xlink:href="#DejaVuSans-Bold-51" transform="translate(412.15625 0)"/>
    </g>
   </g>
   <g id="text_8">
    <!-- standardize, aggregate -->
    <g style="fill: #1f2933" transform="translate(193.54968 102.567866) scale(0.088 -0.088)">
     <defs>
      <path id="DejaVuSans-44" d="M 2194 1759 
Q 1497 1759 1228 1600 
Q 959 1441 959 1056 
Q 959 750 1161 570 
Q 1363 391 1709 391 
Q 2188 391 2477 730 
Q 2766 1069 2766 1631 
L 2766 1759 
L 2194 1759 
z
M 3341 1997 
L 3341 0 
L 2766 0 
L 2766 531 
Q 2569 213 2275 61 
Q 1981 -91 1556 -91 
Q 1019 -91 701 211 
Q 384 513 384 1019 
Q 384 1609 779 1909 
Q 1175 2209 1959 2209 
L 2766 2209 
L 2766 2266 
Q 2766 2663 2505 2880 
Q 2244 3097 1772 3097 
Q 1472 3097 1187 3025 
Q 903 2953 641 2809 
L 641 3341 
Q 956 3463 1253 3523 
Q 1550 3584 1831 3584 
Q 2591 3584 2966 3190 
Q 3341 2797 3341 1997 
z
" transform="scale(0.015625)"/>
      <path id="DejaVuSans-5d" d="M 353 3500 
L 3084 3500 
L 3084 2975 
L 922 459 
L 3084 459 
L 3084 0 
L 275 0 
L 275 525 
L 2438 3041 
L 353 3041 
L 353 3500 
z
" transform="scale(0.015625)"/>
      <path id="DejaVuSans-4a" d="M 2906 1791 
Q 2906 2416 2648 2759 
Q 2391 3103 1925 3103 
Q 1463 3103 1205 2759 
Q 947 2416 947 1791 
Q 947 1169 1205 825 
Q 1463 481 1925 481 
Q 2391 481 2648 825 
Q 2906 1169 2906 1791 
z
M 3481 434 
Q 3481 -459 3084 -895 
Q 2688 -1331 1869 -1331 
Q 1566 -1331 1297 -1286 
Q 1028 -1241 775 -1147 
L 775 -588 
Q 1028 -725 1275 -790 
Q 1522 -856 1778 -856 
Q 2344 -856 2625 -561 
Q 2906 -266 2906 331 
L 2906 616 
Q 2728 306 2450 153 
Q 2172 0 1784 0 
Q 1141 0 747 490 
Q 353 981 353 1791 
Q 353 2603 747 3093 
Q 1141 3584 1784 3584 
Q 2172 3584 2450 3431 
Q 2728 3278 2906 2969 
L 2906 3500 
L 3481 3500 
L 3481 434 
z
" transform="scale(0.015625)"/>
     </defs>
     <use xlink:href="#DejaVuSans-56"/>
     <use xlink:href="#DejaVuSans-57" transform="translate(52.09375 0)"/>
     <use xlink:href="#DejaVuSans-44" transform="translate(91.296875 0)"/>
     <use xlink:href="#DejaVuSans-51" transform="translate(152.578125 0)"/>
     <use xlink:href="#DejaVuSans-47" transform="translate(215.953125 0)"/>
     <use xlink:href="#DejaVuSans-44" transform="translate(279.4375 0)"/>
     <use xlink:href="#DejaVuSans-55" transform="translate(340.71875 0)"/>
     <use xlink:href="#DejaVuSans-47" transform="translate(380.078125 0)"/>
     <use xlink:href="#DejaVuSans-4c" transform="translate(443.5625 0)"/>
     <use xlink:href="#DejaVuSans-5d" transform="translate(471.34375 0)"/>
     <use xlink:href="#DejaVuSans-48" transform="translate(523.828125 0)"/>
     <use xlink:href="#DejaVuSans-f" transform="translate(585.359375 0)"/>
     <use xlink:href="#DejaVuSans-3" transform="translate(617.140625 0)"/>
     <use xlink:href="#DejaVuSans-44" transform="translate(648.921875 0)"/>
     <use xlink:href="#DejaVuSans-4a" transform="translate(710.203125 0)"/>
     <use xlink:href="#DejaVuSans-4a" transform="translate(773.6875 0)"/>
     <use xlink:href="#DejaVuSans-55" transform="translate(837.171875 0)"/>
     <use xlink:href="#DejaVuSans-48" transform="translate(876.078125 0)"/>
     <use xlink:href="#DejaVuSans-4a" transform="translate(937.609375 0)"/>
     <use xlink:href="#DejaVuSans-44" transform="translate(1001.09375 0)"/>
     <use xlink:href="#DejaVuSans-57" transform="translate(1062.375 0)"/>
     <use xlink:href="#DejaVuSans-48" transform="translate(1101.578125 0)"/>
    </g>
   </g>
   <g id="text_9">
    <!-- 21,922 exact; 17,235 censored -->
    <g style="fill: #334155" transform="translate(193.54968 120.341742) scale(0.082 -0.082)">
     <defs>
      <path id="DejaVuSans-15" d="M 1228 531 
L 3431 531 
L 3431 0 
L 469 0 
L 469 531 
Q 828 903 1448 1529 
Q 2069 2156 2228 2338 
Q 2531 2678 2651 2914 
Q 2772 3150 2772 3378 
Q 2772 3750 2511 3984 
Q 2250 4219 1831 4219 
Q 1534 4219 1204 4116 
Q 875 4013 500 3803 
L 500 4441 
Q 881 4594 1212 4672 
Q 1544 4750 1819 4750 
Q 2544 4750 2975 4387 
Q 3406 4025 3406 3419 
Q 3406 3131 3298 2873 
Q 3191 2616 2906 2266 
Q 2828 2175 2409 1742 
Q 1991 1309 1228 531 
z
" transform="scale(0.015625)"/>
      <path id="DejaVuSans-5b" d="M 3513 3500 
L 2247 1797 
L 3578 0 
L 2900 0 
L 1881 1375 
L 863 0 
L 184 0 
L 1544 1831 
L 300 3500 
L 978 3500 
L 1906 2253 
L 2834 3500 
L 3513 3500 
z
" transform="scale(0.015625)"/>
      <path id="DejaVuSans-46" d="M 3122 3366 
L 3122 2828 
Q 2878 2963 2633 3030 
Q 2388 3097 2138 3097 
Q 1578 3097 1268 2742 
Q 959 2388 959 1747 
Q 959 1106 1268 751 
Q 1578 397 2138 397 
Q 2388 397 2633 464 
Q 2878 531 3122 666 
L 3122 134 
Q 2881 22 2623 -34 
Q 2366 -91 2075 -91 
Q 1284 -91 818 406 
Q 353 903 353 1747 
Q 353 2603 823 3093 
Q 1294 3584 2113 3584 
Q 2378 3584 2631 3529 
Q 2884 3475 3122 3366 
z
" transform="scale(0.015625)"/>
     </defs>
     <use xlink:href="#DejaVuSans-15"/>
     <use xlink:href="#DejaVuSans-14" transform="translate(63.625 0)"/>
     <use xlink:href="#DejaVuSans-f" transform="translate(127.25 0)"/>
     <use xlink:href="#DejaVuSans-1c" transform="translate(159.03125 0)"/>
     <use xlink:href="#DejaVuSans-15" transform="translate(222.65625 0)"/>
     <use xlink:href="#DejaVuSans-15" transform="translate(286.28125 0)"/>
     <use xlink:href="#DejaVuSans-3" transform="translate(349.90625 0)"/>
     <use xlink:href="#DejaVuSans-48" transform="translate(381.6875 0)"/>
     <use xlink:href="#DejaVuSans-5b" transform="translate(441.46875 0)"/>
     <use xlink:href="#DejaVuSans-44" transform="translate(500.65625 0)"/>
     <use xlink:href="#DejaVuSans-46" transform="translate(561.9375 0)"/>
     <use xlink:href="#DejaVuSans-57" transform="translate(616.921875 0)"/>
     <use xlink:href="#DejaVuSans-1e" transform="translate(656.125 0)"/>
     <use xlink:href="#DejaVuSans-3" transform="translate(689.8125 0)"/>
     <use xlink:href="#DejaVuSans-14" transform="translate(721.59375 0)"/>
     <use xlink:href="#DejaVuSans-1a" transform="translate(785.21875 0)"/>
     <use xlink:href="#DejaVuSans-f" transform="translate(848.84375 0)"/>
     <use xlink:href="#DejaVuSans-15" transform="translate(880.625 0)"/>
     <use xlink:href="#DejaVuSans-16" transform="translate(944.25 0)"/>
     <use xlink:href="#DejaVuSans-18" transform="translate(1007.875 0)"/>
     <use xlink:href="#DejaVuSans-3" transform="translate(1071.5 0)"/>
     <use xlink:href="#DejaVuSans-46" transform="translate(1103.28125 0)"/>
     <use xlink:href="#DejaVuSans-48" transform="translate(1158.265625 0)"/>
     <use xlink:href="#DejaVuSans-51" transform="translate(1219.796875 0)"/>
     <use xlink:href="#DejaVuSans-56" transform="translate(1283.171875 0)"/>
     <use xlink:href="#DejaVuSans-52" transform="translate(1335.265625 0)"/>
     <use xlink:href="#DejaVuSans-55" transform="translate(1396.453125 0)"/>
     <use xlink:href="#DejaVuSans-48" transform="translate(1435.359375 0)"/>
     <use xlink:href="#DejaVuSans-47" transform="translate(1496.890625 0)"/>
    </g>
   </g>
   <g id="text_10">
    <!-- 3 -->
    <g style="fill: #ffffff" transform="translate(341.239519 82.848573) scale(0.095 -0.095)">
     <defs>
      <path id="DejaVuSans-Bold-16" d="M 2981 2516 
Q 3453 2394 3698 2092 
Q 3944 1791 3944 1325 
Q 3944 631 3412 270 
Q 2881 -91 1863 -91 
Q 1503 -91 1142 -33 
Q 781 25 428 141 
L 428 1069 
Q 766 900 1098 814 
Q 1431 728 1753 728 
Q 2231 728 2486 893 
Q 2741 1059 2741 1369 
Q 2741 1688 2480 1852 
Q 2219 2016 1709 2016 
L 1228 2016 
L 1228 2791 
L 1734 2791 
Q 2188 2791 2409 2933 
Q 2631 3075 2631 3366 
Q 2631 3634 2415 3781 
Q 2200 3928 1806 3928 
Q 1516 3928 1219 3862 
Q 922 3797 628 3669 
L 628 4550 
Q 984 4650 1334 4700 
Q 1684 4750 2022 4750 
Q 2931 4750 3382 4451 
Q 3834 4153 3834 3553 
Q 3834 3144 3618 2883 
Q 3403 2622 2981 2516 
z
" transform="scale(0.015625)"/>
     </defs>
     <use xlink:href="#DejaVuSans-Bold-16"/>
    </g>
   </g>
   <g id="text_11">
    <!-- p-scale intervals -->
    <g style="fill: #1f2933" transform="translate(366.64128 82.978847) scale(0.1 -0.1)">
     <defs>
      <path id="DejaVuSans-Bold-10" d="M 347 2297 
L 2309 2297 
L 2309 1388 
L 347 1388 
L 347 2297 
z
" transform="scale(0.015625)"/>
     </defs>
     <use xlink:href="#DejaVuSans-Bold-53"/>
     <use xlink:href="#DejaVuSans-Bold-10" transform="translate(71.578125 0)"/>
     <use xlink:href="#DejaVuSans-Bold-56" transform="translate(113.078125 0)"/>
     <use xlink:href="#DejaVuSans-Bold-46" transform="translate(172.59375 0)"/>
     <use xlink:href="#DejaVuSans-Bold-44" transform="translate(231.875 0)"/>
     <use xlink:href="#DejaVuSans-Bold-4f" transform="translate(299.359375 0)"/>
     <use xlink:href="#DejaVuSans-Bold-48" transform="translate(333.640625 0)"/>
     <use xlink:href="#DejaVuSans-Bold-3" transform="translate(401.46875 0)"/>
     <use xlink:href="#DejaVuSans-Bold-4c" transform="translate(436.28125 0)"/>
     <use xlink:href="#DejaVuSans-Bold-51" transform="translate(470.5625 0)"/>
     <use xlink:href="#DejaVuSans-Bold-57" transform="translate(541.75 0)"/>
     <use xlink:href="#DejaVuSans-Bold-48" transform="translate(589.546875 0)"/>
     <use xlink:href="#DejaVuSans-Bold-55" transform="translate(657.375 0)"/>
     <use xlink:href="#DejaVuSans-Bold-59" transform="translate(706.6875 0)"/>
     <use xlink:href="#DejaVuSans-Bold-44" transform="translate(771.875 0)"/>
     <use xlink:href="#DejaVuSans-Bold-4f" transform="translate(839.359375 0)"/>
     <use xlink:href="#DejaVuSans-Bold-56" transform="translate(873.640625 0)"/>
    </g>
   </g>
   <g id="text_12">
    <!-- thresholds become bounds -->
    <g style="fill: #1f2933" transform="translate(337.17888 103.420366) scale(0.088 -0.088)">
     <defs>
      <path id="DejaVuSans-4f" d="M 603 4863 
L 1178 4863 
L 1178 0 
L 603 0 
L 603 4863 
z
" transform="scale(0.015625)"/>
      <path id="DejaVuSans-45" d="M 3116 1747 
Q 3116 2381 2855 2742 
Q 2594 3103 2138 3103 
Q 1681 3103 1420 2742 
Q 1159 2381 1159 1747 
Q 1159 1113 1420 752 
Q 1681 391 2138 391 
Q 2594 391 2855 752 
Q 3116 1113 3116 1747 
z
M 1159 2969 
Q 1341 3281 1617 3432 
Q 1894 3584 2278 3584 
Q 2916 3584 3314 3078 
Q 3713 2572 3713 1747 
Q 3713 922 3314 415 
Q 2916 -91 2278 -91 
Q 1894 -91 1617 61 
Q 1341 213 1159 525 
L 1159 0 
L 581 0 
L 581 4863 
L 1159 4863 
L 1159 2969 
z
" transform="scale(0.015625)"/>
      <path id="DejaVuSans-50" d="M 3328 2828 
Q 3544 3216 3844 3400 
Q 4144 3584 4550 3584 
Q 5097 3584 5394 3201 
Q 5691 2819 5691 2113 
L 5691 0 
L 5113 0 
L 5113 2094 
Q 5113 2597 4934 2840 
Q 4756 3084 4391 3084 
Q 3944 3084 3684 2787 
Q 3425 2491 3425 1978 
L 3425 0 
L 2847 0 
L 2847 2094 
Q 2847 2600 2669 2842 
Q 2491 3084 2119 3084 
Q 1678 3084 1418 2786 
Q 1159 2488 1159 1978 
L 1159 0 
L 581 0 
L 581 3500 
L 1159 3500 
L 1159 2956 
Q 1356 3278 1631 3431 
Q 1906 3584 2284 3584 
Q 2666 3584 2933 3390 
Q 3200 3197 3328 2828 
z
" transform="scale(0.015625)"/>
      <path id="DejaVuSans-58" d="M 544 1381 
L 544 3500 
L 1119 3500 
L 1119 1403 
Q 1119 906 1312 657 
Q 1506 409 1894 409 
Q 2359 409 2629 706 
Q 2900 1003 2900 1516 
L 2900 3500 
L 3475 3500 
L 3475 0 
L 2900 0 
L 2900 538 
Q 2691 219 2414 64 
Q 2138 -91 1772 -91 
Q 1169 -91 856 284 
Q 544 659 544 1381 
z
M 1991 3584 
L 1991 3584 
z
" transform="scale(0.015625)"/>
     </defs>
     <use xlink:href="#DejaVuSans-57"/>
     <use xlink:href="#DejaVuSans-4b" transform="translate(39.203125 0)"/>
     <use xlink:href="#DejaVuSans-55" transform="translate(102.578125 0)"/>
     <use xlink:href="#DejaVuSans-48" transform="translate(141.484375 0)"/>
     <use xlink:href="#DejaVuSans-56" transform="translate(203.015625 0)"/>
     <use xlink:href="#DejaVuSans-4b" transform="translate(255.109375 0)"/>
     <use xlink:href="#DejaVuSans-52" transform="translate(318.484375 0)"/>
     <use xlink:href="#DejaVuSans-4f" transform="translate(379.671875 0)"/>
     <use xlink:href="#DejaVuSans-47" transform="translate(407.453125 0)"/>
     <use xlink:href="#DejaVuSans-56" transform="translate(470.9375 0)"/>
     <use xlink:href="#DejaVuSans-3" transform="translate(523.03125 0)"/>
     <use xlink:href="#DejaVuSans-45" transform="translate(554.8125 0)"/>
     <use xlink:href="#DejaVuSans-48" transform="translate(618.296875 0)"/>
     <use xlink:href="#DejaVuSans-46" transform="translate(679.828125 0)"/>
     <use xlink:href="#DejaVuSans-52" transform="translate(734.8125 0)"/>
     <use xlink:href="#DejaVuSans-50" transform="translate(796 0)"/>
     <use xlink:href="#DejaVuSans-48" transform="translate(893.40625 0)"/>
     <use xlink:href="#DejaVuSans-3" transform="translate(954.9375 0)"/>
     <use xlink:href="#DejaVuSans-45" transform="translate(986.71875 0)"/>
     <use xlink:href="#DejaVuSans-52" transform="translate(1050.203125 0)"/>
     <use xlink:href="#DejaVuSans-58" transform="translate(1111.390625 0)"/>
     <use xlink:href="#DejaVuSans-51" transform="translate(1174.765625 0)"/>
     <use xlink:href="#DejaVuSans-47" transform="translate(1238.140625 0)"/>
     <use xlink:href="#DejaVuSans-56" transform="translate(1301.625 0)"/>
    </g>
   </g>
   <g id="text_13">
    <!-- exact + one-sided labels -->
    <g style="fill: #334155" transform="translate(337.17888 120.76007) scale(0.082 -0.082)">
     <defs>
      <path id="DejaVuSans-e" d="M 2944 4013 
L 2944 2272 
L 4684 2272 
L 4684 1741 
L 2944 1741 
L 2944 0 
L 2419 0 
L 2419 1741 
L 678 1741 
L 678 2272 
L 2419 2272 
L 2419 4013 
L 2944 4013 
z
" transform="scale(0.015625)"/>
      <path id="DejaVuSans-10" d="M 313 2009 
L 1997 2009 
L 1997 1497 
L 313 1497 
L 313 2009 
z
" transform="scale(0.015625)"/>
     </defs>
     <use xlink:href="#DejaVuSans-48"/>
     <use xlink:href="#DejaVuSans-5b" transform="translate(59.78125 0)"/>
     <use xlink:href="#DejaVuSans-44" transform="translate(118.96875 0)"/>
     <use xlink:href="#DejaVuSans-46" transform="translate(180.25 0)"/>
     <use xlink:href="#DejaVuSans-57" transform="translate(235.234375 0)"/>
     <use xlink:href="#DejaVuSans-3" transform="translate(274.4375 0)"/>
     <use xlink:href="#DejaVuSans-e" transform="translate(306.21875 0)"/>
     <use xlink:href="#DejaVuSans-3" transform="translate(390.015625 0)"/>
     <use xlink:href="#DejaVuSans-52" transform="translate(421.796875 0)"/>
     <use xlink:href="#DejaVuSans-51" transform="translate(482.984375 0)"/>
     <use xlink:href="#DejaVuSans-48" transform="translate(546.359375 0)"/>
     <use xlink:href="#DejaVuSans-10" transform="translate(607.890625 0)"/>
     <use xlink:href="#DejaVuSans-56" transform="translate(643.96875 0)"/>
     <use xlink:href="#DejaVuSans-4c" transform="translate(696.0625 0)"/>
     <use xlink:href="#DejaVuSans-47" transform="translate(723.84375 0)"/>
     <use xlink:href="#DejaVuSans-48" transform="translate(787.328125 0)"/>
     <use xlink:href="#DejaVuSans-47" transform="translate(848.859375 0)"/>
     <use xlink:href="#DejaVuSans-3" transform="translate(912.34375 0)"/>
     <use xlink:href="#DejaVuSans-4f" transform="translate(944.125 0)"/>
     <use xlink:href="#DejaVuSans-44" transform="translate(971.90625 0)"/>
     <use xlink:href="#DejaVuSans-45" transform="translate(1033.1875 0)"/>
     <use xlink:href="#DejaVuSans-48" transform="translate(1096.671875 0)"/>
     <use xlink:href="#DejaVuSans-4f" transform="translate(1158.203125 0)"/>
     <use xlink:href="#DejaVuSans-56" transform="translate(1185.984375 0)"/>
    </g>
   </g>
   <g id="text_14">
    <!-- 4 -->
    <g style="fill: #ffffff" transform="translate(484.868719 82.848573) scale(0.095 -0.095)">
     <defs>
      <path id="DejaVuSans-Bold-17" d="M 2356 3675 
L 1038 1722 
L 2356 1722 
L 2356 3675 
z
M 2156 4666 
L 3494 4666 
L 3494 1722 
L 4159 1722 
L 4159 850 
L 3494 850 
L 3494 0 
L 2356 0 
L 2356 850 
L 288 850 
L 288 1881 
L 2156 4666 
z
" transform="scale(0.015625)"/>
     </defs>
     <use xlink:href="#DejaVuSans-Bold-17"/>
    </g>
   </g>
   <g id="text_15">
    <!-- Fixed splits -->
    <g style="fill: #1f2933" transform="translate(510.27048 82.978847) scale(0.1 -0.1)">
     <defs>
      <path id="DejaVuSans-Bold-29" d="M 588 4666 
L 3834 4666 
L 3834 3756 
L 1791 3756 
L 1791 2888 
L 3713 2888 
L 3713 1978 
L 1791 1978 
L 1791 0 
L 588 0 
L 588 4666 
z
" transform="scale(0.015625)"/>
      <path id="DejaVuSans-Bold-5b" d="M 1422 1791 
L 159 3500 
L 1344 3500 
L 2059 2463 
L 2784 3500 
L 3969 3500 
L 2706 1797 
L 4031 0 
L 2847 0 
L 2059 1106 
L 1281 0 
L 97 0 
L 1422 1791 
z
" transform="scale(0.015625)"/>
      <path id="DejaVuSans-Bold-47" d="M 2919 2988 
L 2919 4863 
L 4044 4863 
L 4044 0 
L 2919 0 
L 2919 506 
Q 2688 197 2409 53 
Q 2131 -91 1766 -91 
Q 1119 -91 703 423 
Q 288 938 288 1747 
Q 288 2556 703 3070 
Q 1119 3584 1766 3584 
Q 2128 3584 2408 3439 
Q 2688 3294 2919 2988 
z
M 2181 722 
Q 2541 722 2730 984 
Q 2919 1247 2919 1747 
Q 2919 2247 2730 2509 
Q 2541 2772 2181 2772 
Q 1825 2772 1636 2509 
Q 1447 2247 1447 1747 
Q 1447 1247 1636 984 
Q 1825 722 2181 722 
z
" transform="scale(0.015625)"/>
     </defs>
     <use xlink:href="#DejaVuSans-Bold-29"/>
     <use xlink:href="#DejaVuSans-Bold-4c" transform="translate(68.3125 0)"/>
     <use xlink:href="#DejaVuSans-Bold-5b" transform="translate(102.59375 0)"/>
     <use xlink:href="#DejaVuSans-Bold-48" transform="translate(167.09375 0)"/>
     <use xlink:href="#DejaVuSans-Bold-47" transform="translate(234.921875 0)"/>
     <use xlink:href="#DejaVuSans-Bold-3" transform="translate(306.5 0)"/>
     <use xlink:href="#DejaVuSans-Bold-56" transform="translate(341.3125 0)"/>
     <use xlink:href="#DejaVuSans-Bold-53" transform="translate(400.828125 0)"/>
     <use xlink:href="#DejaVuSans-Bold-4f" transform="translate(472.40625 0)"/>
     <use xlink:href="#DejaVuSans-Bold-4c" transform="translate(506.6875 0)"/>
     <use xlink:href="#DejaVuSans-Bold-57" transform="translate(540.96875 0)"/>
     <use xlink:href="#DejaVuSans-Bold-56" transform="translate(588.765625 0)"/>
    </g>
   </g>
   <g id="text_16">
    <!-- random, scaffold, Butina -->
    <g style="fill: #1f2933" transform="translate(480.80808 102.971429) scale(0.088 -0.088)">
     <defs>
      <path id="DejaVuSans-13ae" d="M 4531 4863 
L 4531 4384 
L 3981 4384 
Q 3672 4384 3551 4259 
Q 3431 4134 3431 3809 
L 3431 3500 
L 4378 3500 
L 4378 3053 
L 3431 3053 
L 3431 0 
L 2853 0 
L 2853 3053 
L 1275 3053 
L 1275 0 
L 697 0 
L 697 3053 
L 147 3053 
L 147 3500 
L 697 3500 
L 697 3744 
Q 697 4328 969 4595 
Q 1241 4863 1831 4863 
L 2375 4863 
L 2375 4384 
L 1825 4384 
Q 1516 4384 1394 4259 
Q 1275 4134 1275 3809 
L 1275 3500 
L 2853 3500 
L 2853 3744 
Q 2853 4328 3125 4595 
Q 3397 4863 3988 4863 
L 4531 4863 
z
" transform="scale(0.015625)"/>
     </defs>
     <use xlink:href="#DejaVuSans-55"/>
     <use xlink:href="#DejaVuSans-44" transform="translate(41.109375 0)"/>
     <use xlink:href="#DejaVuSans-51" transform="translate(102.390625 0)"/>
     <use xlink:href="#DejaVuSans-47" transform="translate(165.765625 0)"/>
     <use xlink:href="#DejaVuSans-52" transform="translate(229.25 0)"/>
     <use xlink:href="#DejaVuSans-50" transform="translate(290.4375 0)"/>
     <use xlink:href="#DejaVuSans-f" transform="translate(387.84375 0)"/>
     <use xlink:href="#DejaVuSans-3" transform="translate(419.625 0)"/>
     <use xlink:href="#DejaVuSans-56" transform="translate(451.40625 0)"/>
     <use xlink:href="#DejaVuSans-46" transform="translate(503.5 0)"/>
     <use xlink:href="#DejaVuSans-44" transform="translate(558.484375 0)"/>
     <use xlink:href="#DejaVuSans-13ae" transform="translate(619.765625 0)"/>
     <use xlink:href="#DejaVuSans-52" transform="translate(688.65625 0)"/>
     <use xlink:href="#DejaVuSans-4f" transform="translate(749.84375 0)"/>
     <use xlink:href="#DejaVuSans-47" transform="translate(777.625 0)"/>
     <use xlink:href="#DejaVuSans-f" transform="translate(841.109375 0)"/>
     <use xlink:href="#DejaVuSans-3" transform="translate(872.890625 0)"/>
     <use xlink:href="#DejaVuSans-25" transform="translate(904.671875 0)"/>
     <use xlink:href="#DejaVuSans-58" transform="translate(973.28125 0)"/>
     <use xlink:href="#DejaVuSans-57" transform="translate(1036.65625 0)"/>
     <use xlink:href="#DejaVuSans-4c" transform="translate(1075.859375 0)"/>
     <use xlink:href="#DejaVuSans-51" transform="translate(1103.640625 0)"/>
     <use xlink:href="#DejaVuSans-44" transform="translate(1167.015625 0)"/>
    </g>
   </g>
   <g id="text_17">
    <!-- publication-year + synthetic -->
    <g style="fill: #334155" transform="translate(480.80808 119.965695) scale(0.082 -0.082)">
     <defs>
      <path id="DejaVuSans-5c" d="M 2059 -325 
Q 1816 -950 1584 -1140 
Q 1353 -1331 966 -1331 
L 506 -1331 
L 506 -850 
L 844 -850 
Q 1081 -850 1212 -737 
Q 1344 -625 1503 -206 
L 1606 56 
L 191 3500 
L 800 3500 
L 1894 763 
L 2988 3500 
L 3597 3500 
L 2059 -325 
z
" transform="scale(0.015625)"/>
     </defs>
     <use xlink:href="#DejaVuSans-53"/>
     <use xlink:href="#DejaVuSans-58" transform="translate(63.484375 0)"/>
     <use xlink:href="#DejaVuSans-45" transform="translate(126.859375 0)"/>
     <use xlink:href="#DejaVuSans-4f" transform="translate(190.34375 0)"/>
     <use xlink:href="#DejaVuSans-4c" transform="translate(218.125 0)"/>
     <use xlink:href="#DejaVuSans-46" transform="translate(245.90625 0)"/>
     <use xlink:href="#DejaVuSans-44" transform="translate(300.890625 0)"/>
     <use xlink:href="#DejaVuSans-57" transform="translate(362.171875 0)"/>
     <use xlink:href="#DejaVuSans-4c" transform="translate(401.375 0)"/>
     <use xlink:href="#DejaVuSans-52" transform="translate(429.15625 0)"/>
     <use xlink:href="#DejaVuSans-51" transform="translate(490.34375 0)"/>
     <use xlink:href="#DejaVuSans-10" transform="translate(553.71875 0)"/>
     <use xlink:href="#DejaVuSans-5c" transform="translate(588.046875 0)"/>
     <use xlink:href="#DejaVuSans-48" transform="translate(647.234375 0)"/>
     <use xlink:href="#DejaVuSans-44" transform="translate(708.765625 0)"/>
     <use xlink:href="#DejaVuSans-55" transform="translate(770.046875 0)"/>
     <use xlink:href="#DejaVuSans-3" transform="translate(811.15625 0)"/>
     <use xlink:href="#DejaVuSans-e" transform="translate(842.9375 0)"/>
     <use xlink:href="#DejaVuSans-3" transform="translate(926.734375 0)"/>
     <use xlink:href="#DejaVuSans-56" transform="translate(958.515625 0)"/>
     <use xlink:href="#DejaVuSans-5c" transform="translate(1010.609375 0)"/>
     <use xlink:href="#DejaVuSans-51" transform="translate(1069.796875 0)"/>
     <use xlink:href="#DejaVuSans-57" transform="translate(1133.171875 0)"/>
     <use xlink:href="#DejaVuSans-4b" transform="translate(1172.375 0)"/>
     <use xlink:href="#DejaVuSans-48" transform="translate(1235.75 0)"/>
     <use xlink:href="#DejaVuSans-57" transform="translate(1297.28125 0)"/>
     <use xlink:href="#DejaVuSans-4c" transform="translate(1336.484375 0)"/>
     <use xlink:href="#DejaVuSans-46" transform="translate(1364.265625 0)"/>
    </g>
   </g>
   <g id="text_18">
    <!-- 5 -->
    <g style="fill: #ffffff" transform="translate(628.497919 82.848573) scale(0.095 -0.095)">
     <defs>
      <path id="DejaVuSans-Bold-18" d="M 678 4666 
L 3669 4666 
L 3669 3781 
L 1638 3781 
L 1638 3059 
Q 1775 3097 1914 3117 
Q 2053 3138 2203 3138 
Q 3056 3138 3531 2711 
Q 4006 2284 4006 1522 
Q 4006 766 3489 337 
Q 2972 -91 2053 -91 
Q 1656 -91 1267 -14 
Q 878 63 494 219 
L 494 1166 
Q 875 947 1217 837 
Q 1559 728 1863 728 
Q 2300 728 2551 942 
Q 2803 1156 2803 1522 
Q 2803 1891 2551 2103 
Q 2300 2316 1863 2316 
Q 1603 2316 1309 2248 
Q 1016 2181 678 2041 
L 678 4666 
z
" transform="scale(0.015625)"/>
     </defs>
     <use xlink:href="#DejaVuSans-Bold-18"/>
    </g>
   </g>
   <g id="text_19">
    <!-- Trade-off analysis -->
    <g style="fill: #1f2933" transform="translate(653.89968 82.978847) scale(0.1 -0.1)">
     <defs>
      <path id="DejaVuSans-Bold-13aa" d="M 2841 4863 
L 2841 4128 
L 2222 4128 
Q 1984 4128 1891 4044 
Q 1797 3956 1797 3744 
L 1797 3500 
L 3078 3500 
L 3078 3744 
Q 3078 4316 3397 4588 
Q 3716 4863 4384 4863 
L 5241 4863 
L 5241 4128 
L 4622 4128 
Q 4384 4128 4291 4044 
Q 4197 3956 4197 3744 
L 4197 3500 
L 5153 3500 
L 5153 2700 
L 4197 2700 
L 4197 0 
L 3078 0 
L 3078 2700 
L 1797 2700 
L 1797 0 
L 678 0 
L 678 2700 
L 122 2700 
L 122 3500 
L 678 3500 
L 678 3744 
Q 678 4316 997 4588 
Q 1316 4863 1984 4863 
L 2841 4863 
z
" transform="scale(0.015625)"/>
     </defs>
     <use xlink:href="#DejaVuSans-Bold-37"/>
     <use xlink:href="#DejaVuSans-Bold-55" transform="translate(57.234375 0)"/>
     <use xlink:href="#DejaVuSans-Bold-44" transform="translate(106.546875 0)"/>
     <use xlink:href="#DejaVuSans-Bold-47" transform="translate(174.03125 0)"/>
     <use xlink:href="#DejaVuSans-Bold-48" transform="translate(245.609375 0)"/>
     <use xlink:href="#DejaVuSans-Bold-10" transform="translate(313.4375 0)"/>
     <use xlink:href="#DejaVuSans-Bold-52" transform="translate(354.9375 0)"/>
     <use xlink:href="#DejaVuSans-Bold-13aa" transform="translate(423.640625 0)"/>
     <use xlink:href="#DejaVuSans-Bold-3" transform="translate(504.640625 0)"/>
     <use xlink:href="#DejaVuSans-Bold-44" transform="translate(539.453125 0)"/>
     <use xlink:href="#DejaVuSans-Bold-51" transform="translate(606.9375 0)"/>
     <use xlink:href="#DejaVuSans-Bold-44" transform="translate(678.125 0)"/>
     <use xlink:href="#DejaVuSans-Bold-4f" transform="translate(745.609375 0)"/>
     <use xlink:href="#DejaVuSans-Bold-5c" transform="translate(779.890625 0)"/>
     <use xlink:href="#DejaVuSans-Bold-56" transform="translate(845.078125 0)"/>
     <use xlink:href="#DejaVuSans-Bold-4c" transform="translate(904.59375 0)"/>
     <use xlink:href="#DejaVuSans-Bold-56" transform="translate(938.875 0)"/>
    </g>
   </g>
   <g id="text_20">
    <!-- naive vs interval-aware -->
    <g style="fill: #1f2933" transform="translate(624.43728 103.420366) scale(0.088 -0.088)">
     <defs>
      <path id="DejaVuSans-59" d="M 191 3500 
L 800 3500 
L 1894 563 
L 2988 3500 
L 3597 3500 
L 2284 0 
L 1503 0 
L 191 3500 
z
" transform="scale(0.015625)"/>
     </defs>
     <use xlink:href="#DejaVuSans-51"/>
     <use xlink:href="#DejaVuSans-44" transform="translate(63.375 0)"/>
     <use xlink:href="#DejaVuSans-4c" transform="translate(124.65625 0)"/>
     <use xlink:href="#DejaVuSans-59" transform="translate(152.4375 0)"/>
     <use xlink:href="#DejaVuSans-48" transform="translate(211.625 0)"/>
     <use xlink:href="#DejaVuSans-3" transform="translate(273.15625 0)"/>
     <use xlink:href="#DejaVuSans-59" transform="translate(304.9375 0)"/>
     <use xlink:href="#DejaVuSans-56" transform="translate(364.125 0)"/>
     <use xlink:href="#DejaVuSans-3" transform="translate(416.21875 0)"/>
     <use xlink:href="#DejaVuSans-4c" transform="translate(448 0)"/>
     <use xlink:href="#DejaVuSans-51" transform="translate(475.78125 0)"/>
     <use xlink:href="#DejaVuSans-57" transform="translate(539.15625 0)"/>
     <use xlink:href="#DejaVuSans-48" transform="translate(578.359375 0)"/>
     <use xlink:href="#DejaVuSans-55" transform="translate(639.890625 0)"/>
     <use xlink:href="#DejaVuSans-59" transform="translate(681 0)"/>
     <use xlink:href="#DejaVuSans-44" transform="translate(740.1875 0)"/>
     <use xlink:href="#DejaVuSans-4f" transform="translate(801.46875 0)"/>
     <use xlink:href="#DejaVuSans-10" transform="translate(829.25 0)"/>
     <use xlink:href="#DejaVuSans-44" transform="translate(865.328125 0)"/>
     <use xlink:href="#DejaVuSans-5a" transform="translate(926.609375 0)"/>
     <use xlink:href="#DejaVuSans-44" transform="translate(1008.390625 0)"/>
     <use xlink:href="#DejaVuSans-55" transform="translate(1069.671875 0)"/>
     <use xlink:href="#DejaVuSans-48" transform="translate(1108.578125 0)"/>
    </g>
   </g>
   <g id="text_21">
    <!-- 8 modelling endpoints -->
    <g style="fill: #334155" transform="translate(624.43728 119.965695) scale(0.082 -0.082)">
     <defs>
      <path id="DejaVuSans-1b" d="M 2034 2216 
Q 1584 2216 1326 1975 
Q 1069 1734 1069 1313 
Q 1069 891 1326 650 
Q 1584 409 2034 409 
Q 2484 409 2743 651 
Q 3003 894 3003 1313 
Q 3003 1734 2745 1975 
Q 2488 2216 2034 2216 
z
M 1403 2484 
Q 997 2584 770 2862 
Q 544 3141 544 3541 
Q 544 4100 942 4425 
Q 1341 4750 2034 4750 
Q 2731 4750 3128 4425 
Q 3525 4100 3525 3541 
Q 3525 3141 3298 2862 
Q 3072 2584 2669 2484 
Q 3125 2378 3379 2068 
Q 3634 1759 3634 1313 
Q 3634 634 3220 271 
Q 2806 -91 2034 -91 
Q 1263 -91 848 271 
Q 434 634 434 1313 
Q 434 1759 690 2068 
Q 947 2378 1403 2484 
z
M 1172 3481 
Q 1172 3119 1398 2916 
Q 1625 2713 2034 2713 
Q 2441 2713 2670 2916 
Q 2900 3119 2900 3481 
Q 2900 3844 2670 4047 
Q 2441 4250 2034 4250 
Q 1625 4250 1398 4047 
Q 1172 3844 1172 3481 
z
" transform="scale(0.015625)"/>
     </defs>
     <use xlink:href="#DejaVuSans-1b"/>
     <use xlink:href="#DejaVuSans-3" transform="translate(63.625 0)"/>
     <use xlink:href="#DejaVuSans-50" transform="translate(95.40625 0)"/>
     <use xlink:href="#DejaVuSans-52" transform="translate(192.8125 0)"/>
     <use xlink:href="#DejaVuSans-47" transform="translate(254 0)"/>
     <use xlink:href="#DejaVuSans-48" transform="translate(317.484375 0)"/>
     <use xlink:href="#DejaVuSans-4f" transform="translate(379.015625 0)"/>
     <use xlink:href="#DejaVuSans-4f" transform="translate(406.796875 0)"/>
     <use xlink:href="#DejaVuSans-4c" transform="translate(434.578125 0)"/>
     <use xlink:href="#DejaVuSans-51" transform="translate(462.359375 0)"/>
     <use xlink:href="#DejaVuSans-4a" transform="translate(525.734375 0)"/>
     <use xlink:href="#DejaVuSans-3" transform="translate(589.21875 0)"/>
     <use xlink:href="#DejaVuSans-48" transform="translate(621 0)"/>
     <use xlink:href="#DejaVuSans-51" transform="translate(682.53125 0)"/>
     <use xlink:href="#DejaVuSans-47" transform="translate(745.90625 0)"/>
     <use xlink:href="#DejaVuSans-53" transform="translate(809.390625 0)"/>
     <use xlink:href="#DejaVuSans-52" transform="translate(872.875 0)"/>
     <use xlink:href="#DejaVuSans-4c" transform="translate(934.0625 0)"/>
     <use xlink:href="#DejaVuSans-51" transform="translate(961.84375 0)"/>
     <use xlink:href="#DejaVuSans-57" transform="translate(1025.21875 0)"/>
     <use xlink:href="#DejaVuSans-56" transform="translate(1064.421875 0)"/>
    </g>
   </g>
   <g id="text_22">
    <!-- p-scale interval labels -->
    <g style="fill: #1f2933" transform="translate(88.2216 202.677061) scale(0.13 -0.13)">
     <use xlink:href="#DejaVuSans-Bold-53"/>
     <use xlink:href="#DejaVuSans-Bold-10" transform="translate(71.578125 0)"/>
     <use xlink:href="#DejaVuSans-Bold-56" transform="translate(113.078125 0)"/>
     <use xlink:href="#DejaVuSans-Bold-46" transform="translate(172.59375 0)"/>
     <use xlink:href="#DejaVuSans-Bold-44" transform="translate(231.875 0)"/>
     <use xlink:href="#DejaVuSans-Bold-4f" transform="translate(299.359375 0)"/>
     <use xlink:href="#DejaVuSans-Bold-48" transform="translate(333.640625 0)"/>
     <use xlink:href="#DejaVuSans-Bold-3" transform="translate(401.46875 0)"/>
     <use xlink:href="#DejaVuSans-Bold-4c" transform="translate(436.28125 0)"/>
     <use xlink:href="#DejaVuSans-Bold-51" transform="translate(470.5625 0)"/>
     <use xlink:href="#DejaVuSans-Bold-57" transform="translate(541.75 0)"/>
     <use xlink:href="#DejaVuSans-Bold-48" transform="translate(589.546875 0)"/>
     <use xlink:href="#DejaVuSans-Bold-55" transform="translate(657.375 0)"/>
     <use xlink:href="#DejaVuSans-Bold-59" transform="translate(706.6875 0)"/>
     <use xlink:href="#DejaVuSans-Bold-44" transform="translate(771.875 0)"/>
     <use xlink:href="#DejaVuSans-Bold-4f" transform="translate(839.359375 0)"/>
     <use xlink:href="#DejaVuSans-Bold-3" transform="translate(873.640625 0)"/>
     <use xlink:href="#DejaVuSans-Bold-4f" transform="translate(908.453125 0)"/>
     <use xlink:href="#DejaVuSans-Bold-44" transform="translate(942.734375 0)"/>
     <use xlink:href="#DejaVuSans-Bold-45" transform="translate(1010.21875 0)"/>
     <use xlink:href="#DejaVuSans-Bold-48" transform="translate(1081.796875 0)"/>
     <use xlink:href="#DejaVuSans-Bold-4f" transform="translate(1149.625 0)"/>
     <use xlink:href="#DejaVuSans-Bold-56" transform="translate(1183.90625 0)"/>
    </g>
   </g>
   <g id="text_23">
    <!-- p = 9 - log10(X nM) -->
    <g style="fill: #1f2933" transform="translate(544.92465 202.417256) scale(0.12 -0.12)">
     <defs>
      <path id="DejaVuSans-20" d="M 678 2906 
L 4684 2906 
L 4684 2381 
L 678 2381 
L 678 2906 
z
M 678 1631 
L 4684 1631 
L 4684 1100 
L 678 1100 
L 678 1631 
z
" transform="scale(0.015625)"/>
      <path id="DejaVuSans-13" d="M 2034 4250 
Q 1547 4250 1301 3770 
Q 1056 3291 1056 2328 
Q 1056 1369 1301 889 
Q 1547 409 2034 409 
Q 2525 409 2770 889 
Q 3016 1369 3016 2328 
Q 3016 3291 2770 3770 
Q 2525 4250 2034 4250 
z
M 2034 4750 
Q 2819 4750 3233 4129 
Q 3647 3509 3647 2328 
Q 3647 1150 3233 529 
Q 2819 -91 2034 -91 
Q 1250 -91 836 529 
Q 422 1150 422 2328 
Q 422 3509 836 4129 
Q 1250 4750 2034 4750 
z
" transform="scale(0.015625)"/>
      <path id="DejaVuSans-b" d="M 1984 4856 
Q 1566 4138 1362 3434 
Q 1159 2731 1159 2009 
Q 1159 1288 1364 580 
Q 1569 -128 1984 -844 
L 1484 -844 
Q 1016 -109 783 600 
Q 550 1309 550 2009 
Q 550 2706 781 3412 
Q 1013 4119 1484 4856 
L 1984 4856 
z
" transform="scale(0.015625)"/>
      <path id="DejaVuSans-3b" d="M 403 4666 
L 1081 4666 
L 2241 2931 
L 3406 4666 
L 4084 4666 
L 2584 2425 
L 4184 0 
L 3506 0 
L 2194 1984 
L 872 0 
L 191 0 
L 1856 2491 
L 403 4666 
z
" transform="scale(0.015625)"/>
      <path id="DejaVuSans-c" d="M 513 4856 
L 1013 4856 
Q 1481 4119 1714 3412 
Q 1947 2706 1947 2009 
Q 1947 1309 1714 600 
Q 1481 -109 1013 -844 
L 513 -844 
Q 928 -128 1133 580 
Q 1338 1288 1338 2009 
Q 1338 2731 1133 3434 
Q 928 4138 513 4856 
z
" transform="scale(0.015625)"/>
     </defs>
     <use xlink:href="#DejaVuSans-53"/>
     <use xlink:href="#DejaVuSans-3" transform="translate(63.484375 0)"/>
     <use xlink:href="#DejaVuSans-20" transform="translate(95.265625 0)"/>
     <use xlink:href="#DejaVuSans-3" transform="translate(179.0625 0)"/>
     <use xlink:href="#DejaVuSans-1c" transform="translate(210.84375 0)"/>
     <use xlink:href="#DejaVuSans-3" transform="translate(274.46875 0)"/>
     <use xlink:href="#DejaVuSans-10" transform="translate(306.25 0)"/>
     <use xlink:href="#DejaVuSans-3" transform="translate(342.328125 0)"/>
     <use xlink:href="#DejaVuSans-4f" transform="translate(374.109375 0)"/>
     <use xlink:href="#DejaVuSans-52" transform="translate(401.890625 0)"/>
     <use xlink:href="#DejaVuSans-4a" transform="translate(463.078125 0)"/>
     <use xlink:href="#DejaVuSans-14" transform="translate(526.5625 0)"/>
     <use xlink:href="#DejaVuSans-13" transform="translate(590.1875 0)"/>
     <use xlink:href="#DejaVuSans-b" transform="translate(653.8125 0)"/>
     <use xlink:href="#DejaVuSans-3b" transform="translate(692.828125 0)"/>
     <use xlink:href="#DejaVuSans-3" transform="translate(761.328125 0)"/>
     <use xlink:href="#DejaVuSans-51" transform="translate(793.109375 0)"/>
     <use xlink:href="#DejaVuSans-30" transform="translate(856.484375 0)"/>
     <use xlink:href="#DejaVuSans-c" transform="translate(942.765625 0)"/>
    </g>
   </g>
   <g id="text_24">
    <!-- low p -->
    <g style="fill: #52606d" transform="translate(142.541297 274.30992) scale(0.09 -0.09)">
     <use xlink:href="#DejaVuSans-4f"/>
     <use xlink:href="#DejaVuSans-52" transform="translate(27.78125 0)"/>
     <use xlink:href="#DejaVuSans-5a" transform="translate(88.96875 0)"/>
     <use xlink:href="#DejaVuSans-3" transform="translate(170.75 0)"/>
     <use xlink:href="#DejaVuSans-53" transform="translate(202.53125 0)"/>
    </g>
   </g>
   <g id="text_25">
    <!-- c -->
    <g style="fill: #52606d" transform="translate(373.005703 274.30992) scale(0.09 -0.09)">
     <use xlink:href="#DejaVuSans-46"/>
    </g>
   </g>
   <g id="text_26">
    <!-- high p -->
    <g style="fill: #52606d" transform="translate(582.350344 274.30992) scale(0.09 -0.09)">
     <use xlink:href="#DejaVuSans-4b"/>
     <use xlink:href="#DejaVuSans-4c" transform="translate(63.375 0)"/>
     <use xlink:href="#DejaVuSans-4a" transform="translate(91.15625 0)"/>
     <use xlink:href="#DejaVuSans-4b" transform="translate(154.640625 0)"/>
     <use xlink:href="#DejaVuSans-3" transform="translate(218.015625 0)"/>
     <use xlink:href="#DejaVuSans-53" transform="translate(249.796875 0)"/>
    </g>
   </g>
   <g id="text_27">
    <!-- exact [y,y] -->
    <g style="fill: #1f2933" transform="translate(466.074881 240.280848) scale(0.102 -0.102)">
     <defs>
      <path id="DejaVuSans-3e" d="M 550 4863 
L 1875 4863 
L 1875 4416 
L 1125 4416 
L 1125 -397 
L 1875 -397 
L 1875 -844 
L 550 -844 
L 550 4863 
z
" transform="scale(0.015625)"/>
      <path id="DejaVuSans-40" d="M 1947 4863 
L 1947 -844 
L 622 -844 
L 622 -397 
L 1369 -397 
L 1369 4416 
L 622 4416 
L 622 4863 
L 1947 4863 
z
" transform="scale(0.015625)"/>
     </defs>
     <use xlink:href="#DejaVuSans-48"/>
     <use xlink:href="#DejaVuSans-5b" transform="translate(59.78125 0)"/>
     <use xlink:href="#DejaVuSans-44" transform="translate(118.96875 0)"/>
     <use xlink:href="#DejaVuSans-46" transform="translate(180.25 0)"/>
     <use xlink:href="#DejaVuSans-57" transform="translate(235.234375 0)"/>
     <use xlink:href="#DejaVuSans-3" transform="translate(274.4375 0)"/>
     <use xlink:href="#DejaVuSans-3e" transform="translate(306.21875 0)"/>
     <use xlink:href="#DejaVuSans-5c" transform="translate(345.234375 0)"/>
     <use xlink:href="#DejaVuSans-f" transform="translate(404.421875 0)"/>
     <use xlink:href="#DejaVuSans-5c" transform="translate(436.203125 0)"/>
     <use xlink:href="#DejaVuSans-40" transform="translate(495.390625 0)"/>
    </g>
   </g>
   <g id="patch_17">
    <path d="M 377.479421 224.91288 
Q 485.963022 224.91288 592.434163 224.91288 
" style="fill: none; stroke: #c05621; stroke-width: 1.8; stroke-linecap: round"/>
    <path d="M 588.634163 223.01288 
L 592.434163 224.91288 
L 588.634163 226.81288 
" style="fill: none; stroke: #c05621; stroke-width: 1.8; stroke-linecap: round"/>
   </g>
   <g id="text_28">
    <!-- right-censored p: [c,+inf) -->
    <g style="fill: #7c2d12" transform="translate(421.509562 214.667568) scale(0.102 -0.102)">
     <defs>
      <path id="DejaVuSans-1d" d="M 750 794 
L 1409 794 
L 1409 0 
L 750 0 
L 750 794 
z
M 750 3309 
L 1409 3309 
L 1409 2516 
L 750 2516 
L 750 3309 
z
" transform="scale(0.015625)"/>
      <path id="DejaVuSans-49" d="M 2375 4863 
L 2375 4384 
L 1825 4384 
Q 1516 4384 1395 4259 
Q 1275 4134 1275 3809 
L 1275 3500 
L 2222 3500 
L 2222 3053 
L 1275 3053 
L 1275 0 
L 697 0 
L 697 3053 
L 147 3053 
L 147 3500 
L 697 3500 
L 697 3744 
Q 697 4328 969 4595 
Q 1241 4863 1831 4863 
L 2375 4863 
z
" transform="scale(0.015625)"/>
     </defs>
     <use xlink:href="#DejaVuSans-55"/>
     <use xlink:href="#DejaVuSans-4c" transform="translate(41.109375 0)"/>
     <use xlink:href="#DejaVuSans-4a" transform="translate(68.890625 0)"/>
     <use xlink:href="#DejaVuSans-4b" transform="translate(132.375 0)"/>
     <use xlink:href="#DejaVuSans-57" transform="translate(195.75 0)"/>
     <use xlink:href="#DejaVuSans-10" transform="translate(234.953125 0)"/>
     <use xlink:href="#DejaVuSans-46" transform="translate(271.03125 0)"/>
     <use xlink:href="#DejaVuSans-48" transform="translate(326.015625 0)"/>
     <use xlink:href="#DejaVuSans-51" transform="translate(387.546875 0)"/>
     <use xlink:href="#DejaVuSans-56" transform="translate(450.921875 0)"/>
     <use xlink:href="#DejaVuSans-52" transform="translate(503.015625 0)"/>
     <use xlink:href="#DejaVuSans-55" transform="translate(564.203125 0)"/>
     <use xlink:href="#DejaVuSans-48" transform="translate(603.109375 0)"/>
     <use xlink:href="#DejaVuSans-47" transform="translate(664.640625 0)"/>
     <use xlink:href="#DejaVuSans-3" transform="translate(728.125 0)"/>
     <use xlink:href="#DejaVuSans-53" transform="translate(759.90625 0)"/>
     <use xlink:href="#DejaVuSans-1d" transform="translate(823.390625 0)"/>
     <use xlink:href="#DejaVuSans-3" transform="translate(857.078125 0)"/>
     <use xlink:href="#DejaVuSans-3e" transform="translate(888.859375 0)"/>
     <use xlink:href="#DejaVuSans-46" transform="translate(927.875 0)"/>
     <use xlink:href="#DejaVuSans-f" transform="translate(982.859375 0)"/>
     <use xlink:href="#DejaVuSans-e" transform="translate(1014.640625 0)"/>
     <use xlink:href="#DejaVuSans-4c" transform="translate(1098.4375 0)"/>
     <use xlink:href="#DejaVuSans-51" transform="translate(1126.21875 0)"/>
     <use xlink:href="#DejaVuSans-49" transform="translate(1189.59375 0)"/>
     <use xlink:href="#DejaVuSans-c" transform="translate(1224.796875 0)"/>
    </g>
   </g>
   <g id="patch_18">
    <path d="M 373.480579 285.28704 
Q 264.996978 285.28704 158.525837 285.28704 
" style="fill: none; stroke: #6b46c1; stroke-width: 1.8; stroke-linecap: round"/>
    <path d="M 162.325837 287.18704 
L 158.525837 285.28704 
L 162.325837 283.38704 
" style="fill: none; stroke: #6b46c1; stroke-width: 1.8; stroke-linecap: round"/>
   </g>
   <g id="text_29">
    <!-- left-censored p: (-inf,c] -->
    <g style="fill: #4c1d95" transform="translate(206.697422 297.361872) scale(0.102 -0.102)">
     <use xlink:href="#DejaVuSans-4f"/>
     <use xlink:href="#DejaVuSans-48" transform="translate(27.78125 0)"/>
     <use xlink:href="#DejaVuSans-49" transform="translate(89.3125 0)"/>
     <use xlink:href="#DejaVuSans-57" transform="translate(122.765625 0)"/>
     <use xlink:href="#DejaVuSans-10" transform="translate(161.96875 0)"/>
     <use xlink:href="#DejaVuSans-46" transform="translate(198.046875 0)"/>
     <use xlink:href="#DejaVuSans-48" transform="translate(253.03125 0)"/>
     <use xlink:href="#DejaVuSans-51" transform="translate(314.5625 0)"/>
     <use xlink:href="#DejaVuSans-56" transform="translate(377.9375 0)"/>
     <use xlink:href="#DejaVuSans-52" transform="translate(430.03125 0)"/>
     <use xlink:href="#DejaVuSans-55" transform="translate(491.21875 0)"/>
     <use xlink:href="#DejaVuSans-48" transform="translate(530.125 0)"/>
     <use xlink:href="#DejaVuSans-47" transform="translate(591.65625 0)"/>
     <use xlink:href="#DejaVuSans-3" transform="translate(655.140625 0)"/>
     <use xlink:href="#DejaVuSans-53" transform="translate(686.921875 0)"/>
     <use xlink:href="#DejaVuSans-1d" transform="translate(750.40625 0)"/>
     <use xlink:href="#DejaVuSans-3" transform="translate(784.09375 0)"/>
     <use xlink:href="#DejaVuSans-b" transform="translate(815.875 0)"/>
     <use xlink:href="#DejaVuSans-10" transform="translate(854.890625 0)"/>
     <use xlink:href="#DejaVuSans-4c" transform="translate(890.96875 0)"/>
     <use xlink:href="#DejaVuSans-51" transform="translate(918.75 0)"/>
     <use xlink:href="#DejaVuSans-49" transform="translate(982.125 0)"/>
     <use xlink:href="#DejaVuSans-f" transform="translate(1017.328125 0)"/>
     <use xlink:href="#DejaVuSans-46" transform="translate(1049.109375 0)"/>
     <use xlink:href="#DejaVuSans-40" transform="translate(1104.09375 0)"/>
    </g>
   </g>
   <g id="text_30">
    <!-- Evaluation separates exact-label accuracy, bound consistency, interval coverage, and failure diagnostics. -->
    <g style="fill: #1f2933" transform="translate(110.9425 351.918287) scale(0.1 -0.1)">
     <defs>
      <path id="DejaVuSans-11" d="M 684 794 
L 1344 794 
L 1344 0 
L 684 0 
L 684 794 
z
" transform="scale(0.015625)"/>
     </defs>
     <use xlink:href="#DejaVuSans-28"/>
     <use xlink:href="#DejaVuSans-59" transform="translate(63.1875 0)"/>
     <use xlink:href="#DejaVuSans-44" transform="translate(122.375 0)"/>
     <use xlink:href="#DejaVuSans-4f" transform="translate(183.65625 0)"/>
     <use xlink:href="#DejaVuSans-58" transform="translate(211.4375 0)"/>
     <use xlink:href="#DejaVuSans-44" transform="translate(274.8125 0)"/>
     <use xlink:href="#DejaVuSans-57" transform="translate(336.09375 0)"/>
     <use xlink:href="#DejaVuSans-4c" transform="translate(375.296875 0)"/>
     <use xlink:href="#DejaVuSans-52" transform="translate(403.078125 0)"/>
     <use xlink:href="#DejaVuSans-51" transform="translate(464.265625 0)"/>
     <use xlink:href="#DejaVuSans-3" transform="translate(527.640625 0)"/>
     <use xlink:href="#DejaVuSans-56" transform="translate(559.421875 0)"/>
     <use xlink:href="#DejaVuSans-48" transform="translate(611.515625 0)"/>
     <use xlink:href="#DejaVuSans-53" transform="translate(673.046875 0)"/>
     <use xlink:href="#DejaVuSans-44" transform="translate(736.53125 0)"/>
     <use xlink:href="#DejaVuSans-55" transform="translate(797.8125 0)"/>
     <use xlink:href="#DejaVuSans-44" transform="translate(838.921875 0)"/>
     <use xlink:href="#DejaVuSans-57" transform="translate(900.203125 0)"/>
     <use xlink:href="#DejaVuSans-48" transform="translate(939.40625 0)"/>
     <use xlink:href="#DejaVuSans-56" transform="translate(1000.9375 0)"/>
     <use xlink:href="#DejaVuSans-3" transform="translate(1053.03125 0)"/>
     <use xlink:href="#DejaVuSans-48" transform="translate(1084.8125 0)"/>
     <use xlink:href="#DejaVuSans-5b" transform="translate(1144.59375 0)"/>
     <use xlink:href="#DejaVuSans-44" transform="translate(1203.78125 0)"/>
     <use xlink:href="#DejaVuSans-46" transform="translate(1265.0625 0)"/>
     <use xlink:href="#DejaVuSans-57" transform="translate(1320.046875 0)"/>
     <use xlink:href="#DejaVuSans-10" transform="translate(1359.25 0)"/>
     <use xlink:href="#DejaVuSans-4f" transform="translate(1395.328125 0)"/>
     <use xlink:href="#DejaVuSans-44" transform="translate(1423.109375 0)"/>
     <use xlink:href="#DejaVuSans-45" transform="translate(1484.390625 0)"/>
     <use xlink:href="#DejaVuSans-48" transform="translate(1547.875 0)"/>
     <use xlink:href="#DejaVuSans-4f" transform="translate(1609.40625 0)"/>
     <use xlink:href="#DejaVuSans-3" transform="translate(1637.1875 0)"/>
     <use xlink:href="#DejaVuSans-44" transform="translate(1668.96875 0)"/>
     <use xlink:href="#DejaVuSans-46" transform="translate(1730.25 0)"/>
     <use xlink:href="#DejaVuSans-46" transform="translate(1785.234375 0)"/>
     <use xlink:href="#DejaVuSans-58" transform="translate(1840.21875 0)"/>
     <use xlink:href="#DejaVuSans-55" transform="translate(1903.59375 0)"/>
     <use xlink:href="#DejaVuSans-44" transform="translate(1944.703125 0)"/>
     <use xlink:href="#DejaVuSans-46" transform="translate(2005.984375 0)"/>
     <use xlink:href="#DejaVuSans-5c" transform="translate(2060.96875 0)"/>
     <use xlink:href="#DejaVuSans-f" transform="translate(2120.15625 0)"/>
     <use xlink:href="#DejaVuSans-3" transform="translate(2151.9375 0)"/>
     <use xlink:href="#DejaVuSans-45" transform="translate(2183.71875 0)"/>
     <use xlink:href="#DejaVuSans-52" transform="translate(2247.203125 0)"/>
     <use xlink:href="#DejaVuSans-58" transform="translate(2308.390625 0)"/>
     <use xlink:href="#DejaVuSans-51" transform="translate(2371.765625 0)"/>
     <use xlink:href="#DejaVuSans-47" transform="translate(2435.140625 0)"/>
     <use xlink:href="#DejaVuSans-3" transform="translate(2498.625 0)"/>
     <use xlink:href="#DejaVuSans-46" transform="translate(2530.40625 0)"/>
     <use xlink:href="#DejaVuSans-52" transform="translate(2585.390625 0)"/>
     <use xlink:href="#DejaVuSans-51" transform="translate(2646.578125 0)"/>
     <use xlink:href="#DejaVuSans-56" transform="translate(2709.953125 0)"/>
     <use xlink:href="#DejaVuSans-4c" transform="translate(2762.046875 0)"/>
     <use xlink:href="#DejaVuSans-56" transform="translate(2789.828125 0)"/>
     <use xlink:href="#DejaVuSans-57" transform="translate(2841.921875 0)"/>
     <use xlink:href="#DejaVuSans-48" transform="translate(2881.125 0)"/>
     <use xlink:href="#DejaVuSans-51" transform="translate(2942.65625 0)"/>
     <use xlink:href="#DejaVuSans-46" transform="translate(3006.03125 0)"/>
     <use xlink:href="#DejaVuSans-5c" transform="translate(3061.015625 0)"/>
     <use xlink:href="#DejaVuSans-f" transform="translate(3120.203125 0)"/>
     <use xlink:href="#DejaVuSans-3" transform="translate(3151.984375 0)"/>
     <use xlink:href="#DejaVuSans-4c" transform="translate(3183.765625 0)"/>
     <use xlink:href="#DejaVuSans-51" transform="translate(3211.546875 0)"/>
     <use xlink:href="#DejaVuSans-57" transform="translate(3274.921875 0)"/>
     <use xlink:href="#DejaVuSans-48" transform="translate(3314.125 0)"/>
     <use xlink:href="#DejaVuSans-55" transform="translate(3375.65625 0)"/>
     <use xlink:href="#DejaVuSans-59" transform="translate(3416.765625 0)"/>
     <use xlink:href="#DejaVuSans-44" transform="translate(3475.953125 0)"/>
     <use xlink:href="#DejaVuSans-4f" transform="translate(3537.234375 0)"/>
     <use xlink:href="#DejaVuSans-3" transform="translate(3565.015625 0)"/>
     <use xlink:href="#DejaVuSans-46" transform="translate(3596.796875 0)"/>
     <use xlink:href="#DejaVuSans-52" transform="translate(3651.78125 0)"/>
     <use xlink:href="#DejaVuSans-59" transform="translate(3712.96875 0)"/>
     <use xlink:href="#DejaVuSans-48" transform="translate(3772.15625 0)"/>
     <use xlink:href="#DejaVuSans-55" transform="translate(3833.6875 0)"/>
     <use xlink:href="#DejaVuSans-44" transform="translate(3874.796875 0)"/>
     <use xlink:href="#DejaVuSans-4a" transform="translate(3936.078125 0)"/>
     <use xlink:href="#DejaVuSans-48" transform="translate(3999.5625 0)"/>
     <use xlink:href="#DejaVuSans-f" transform="translate(4061.09375 0)"/>
     <use xlink:href="#DejaVuSans-3" transform="translate(4092.875 0)"/>
     <use xlink:href="#DejaVuSans-44" transform="translate(4124.65625 0)"/>
     <use xlink:href="#DejaVuSans-51" transform="translate(4185.9375 0)"/>
     <use xlink:href="#DejaVuSans-47" transform="translate(4249.3125 0)"/>
     <use xlink:href="#DejaVuSans-3" transform="translate(4312.796875 0)"/>
     <use xlink:href="#DejaVuSans-49" transform="translate(4344.578125 0)"/>
     <use xlink:href="#DejaVuSans-44" transform="translate(4379.78125 0)"/>
     <use xlink:href="#DejaVuSans-4c" transform="translate(4441.0625 0)"/>
     <use xlink:href="#DejaVuSans-4f" transform="translate(4468.84375 0)"/>
     <use xlink:href="#DejaVuSans-58" transform="translate(4496.625 0)"/>
     <use xlink:href="#DejaVuSans-55" transform="translate(4560 0)"/>
     <use xlink:href="#DejaVuSans-48" transform="translate(4598.90625 0)"/>
     <use xlink:href="#DejaVuSans-3" transform="translate(4660.4375 0)"/>
     <use xlink:href="#DejaVuSans-47" transform="translate(4692.21875 0)"/>
     <use xlink:href="#DejaVuSans-4c" transform="translate(4755.703125 0)"/>
     <use xlink:href="#DejaVuSans-44" transform="translate(4783.484375 0)"/>
     <use xlink:href="#DejaVuSans-4a" transform="translate(4844.765625 0)"/>
     <use xlink:href="#DejaVuSans-51" transform="translate(4908.25 0)"/>
     <use xlink:href="#DejaVuSans-52" transform="translate(4971.625 0)"/>
     <use xlink:href="#DejaVuSans-56" transform="translate(5032.8125 0)"/>
     <use xlink:href="#DejaVuSans-57" transform="translate(5084.90625 0)"/>
     <use xlink:href="#DejaVuSans-4c" transform="translate(5124.109375 0)"/>
     <use xlink:href="#DejaVuSans-46" transform="translate(5151.890625 0)"/>
     <use xlink:href="#DejaVuSans-56" transform="translate(5206.875 0)"/>
     <use xlink:href="#DejaVuSans-11" transform="translate(5258.96875 0)"/>
    </g>
   </g>
   <g id="PathCollection_1">
    <defs>
     <path id="m5beead8ae6" d="M 0 4.1833 
C 1.109424 4.1833 2.173559 3.742521 2.95804 2.95804 
C 3.742521 2.173559 4.1833 1.109424 4.1833 0 
C 4.1833 -1.109424 3.742521 -2.173559 2.95804 -2.95804 
C 2.173559 -3.742521 1.109424 -4.1833 0 -4.1833 
C -1.109424 -4.1833 -2.173559 -3.742521 -2.95804 -2.95804 
C -3.742521 -2.173559 -4.1833 -1.109424 -4.1833 0 
C -4.1833 1.109424 -3.742521 2.173559 -2.95804 2.95804 
C -2.173559 3.742521 -1.109424 4.1833 0 4.1833 
z
" style="stroke: #2b6cb0; stroke-width: 0.8"/>
    </defs>
    <g clip-path="url(#p0d828b7588)">
     <use xlink:href="#m5beead8ae6" x="493.3296" y="254.1852" style="fill: #2b6cb0; stroke: #2b6cb0; stroke-width: 0.8"/>
    </g>
   </g>
  </g>
 </g>
 <defs>
  <clipPath id="p0d828b7588">
   <rect x="7.2" y="7.2" width="736.56" height="365.904"/>
  </clipPath>
 </defs>
</svg>
