<?xml version="1.0" encoding="utf-8" standalone="no"?>
<!DOCTYPE svg PUBLIC "-//W3C//DTD SVG 1.1//EN"
  "http://www.w3.org/Graphics/SVG/1.1/DTD/svg11.dtd">
<svg xmlns:xlink="http://www.w3.org/1999/xlink" width="821.554883pt" height="339.299102pt" viewBox="0 0 821.554883 339.299102" xmlns="http://www.w3.org/2000/svg" version="1.1">
 <metadata>
  <rdf:RDF xmlns:dc="http://purl.org/dc/elements/1.1/" xmlns:cc="http://creativecommons.org/ns#" xmlns:rdf="http://www.w3.org/1999/02/22-rdf-syntax-ns#">
   <cc:Work>
    <dc:type rdf:resource="http://purl.org/dc/dcmitype/StillImage"/>
    <dc:date>2026-07-10T14:52:28.424276</dc:date>
    <dc:format>image/svg+xml</dc:format>
    <dc:creator>
     <cc:Agent>
      <dc:title>Matplotlib v3.11.0, https://matplotlib.org/</dc:title>
     </cc:Agent>
    </dc:creator>
   </cc:Work>
  </rdf:RDF>
 </metadata>
 <defs>
  <style type="text/css">*{stroke-linejoin: round; stroke-linecap: butt}</style>
 </defs>
 <g id="figure_1">
  <g id="patch_1">
   <path d="M -0 339.299102 
L 821.554883 339.299102 
L 821.554883 0 
L -0 0 
z
" style="fill: #ffffff"/>
  </g>
  <g id="axes_1">
   <g id="patch_2">
    <path d="M 84.239766 301.798359 
L 468.61997 301.798359 
L 468.61997 21.178359 
L 84.239766 21.178359 
z
" style="fill: #ffffff"/>
   </g>
   <g id="matplotlib.axis_1">
    <g id="xtick_1">
     <g id="line2d_1">
      <path d="M 84.239766 301.798359 
L 84.239766 21.178359 
" clip-path="url(#p32e5de1dfd)" style="fill: none; stroke: #cccccc; stroke-width: 0.8; stroke-linecap: round"/>
     </g>
     <g id="text_1">
      <!-- 0 -->
      <g style="fill: #262626" transform="translate(81.535703 316.556367) scale(0.085 -0.085)">
       <defs>
        <path id="DejaVuSans-13" d="M 2034 4250 
Q 1547 4250 1301 3770 
Q 1056 3291 1056 2328 
Q 1056 1369 1301 889 
Q 1547 409 2034 409 
Q 2525 409 2770 889 
Q 3016 1369 3016 2328 
Q 3016 3291 2770 3770 
Q 2525 4250 2034 4250 
z
M 2034 4750 
Q 2819 4750 3233 4129 
Q 3647 3509 3647 2328 
Q 3647 1150 3233 529 
Q 2819 -91 2034 -91 
Q 1250 -91 836 529 
Q 422 1150 422 2328 
Q 422 3509 836 4129 
Q 1250 4750 2034 4750 
z
" transform="scale(0.015625)"/>
       </defs>
       <use xlink:href="#DejaVuSans-13"/>
      </g>
     </g>
    </g>
    <g id="xtick_2">
     <g id="line2d_2">
      <path d="M 139.660301 301.798359 
L 139.660301 21.178359 
" clip-path="url(#p32e5de1dfd)" style="fill: none; stroke: #cccccc; stroke-width: 0.8; stroke-linecap: round"/>
     </g>
     <g id="text_2">
      <!-- 2000 -->
      <g style="fill: #262626" transform="translate(128.844051 316.556367) scale(0.085 -0.085)">
       <defs>
        <path id="DejaVuSans-15" d="M 1228 531 
L 3431 531 
L 3431 0 
L 469 0 
L 469 531 
Q 828 903 1448 1529 
Q 2069 2156 2228 2338 
Q 2531 2678 2651 2914 
Q 2772 3150 2772 3378 
Q 2772 3750 2511 3984 
Q 2250 4219 1831 4219 
Q 1534 4219 1204 4116 
Q 875 4013 500 3803 
L 500 4441 
Q 881 4594 1212 4672 
Q 1544 4750 1819 4750 
Q 2544 4750 2975 4387 
Q 3406 4025 3406 3419 
Q 3406 3131 3298 2873 
Q 3191 2616 2906 2266 
Q 2828 2175 2409 1742 
Q 1991 1309 1228 531 
z
" transform="scale(0.015625)"/>
       </defs>
       <use xlink:href="#DejaVuSans-15"/>
       <use xlink:href="#DejaVuSans-13" transform="translate(63.625 0)"/>
       <use xlink:href="#DejaVuSans-13" transform="translate(127.25 0)"/>
       <use xlink:href="#DejaVuSans-13" transform="translate(190.875 0)"/>
      </g>
     </g>
    </g>
    <g id="xtick_3">
     <g id="line2d_3">
      <path d="M 195.080835 301.798359 
L 195.080835 21.178359 
" clip-path="url(#p32e5de1dfd)" style="fill: none; stroke: #cccccc; stroke-width: 0.8; stroke-linecap: round"/>
     </g>
     <g id="text_3">
      <!-- 4000 -->
      <g style="fill: #262626" transform="translate(184.264585 316.556367) scale(0.085 -0.085)">
       <defs>
        <path id="DejaVuSans-17" d="M 2419 4116 
L 825 1625 
L 2419 1625 
L 2419 4116 
z
M 2253 4666 
L 3047 4666 
L 3047 1625 
L 3713 1625 
L 3713 1100 
L 3047 1100 
L 3047 0 
L 2419 0 
L 2419 1100 
L 313 1100 
L 313 1709 
L 2253 4666 
z
" transform="scale(0.015625)"/>
       </defs>
       <use xlink:href="#DejaVuSans-17"/>
       <use xlink:href="#DejaVuSans-13" transform="translate(63.625 0)"/>
       <use xlink:href="#DejaVuSans-13" transform="translate(127.25 0)"/>
       <use xlink:href="#DejaVuSans-13" transform="translate(190.875 0)"/>
      </g>
     </g>
    </g>
    <g id="xtick_4">
     <g id="line2d_4">
      <path d="M 250.50137 301.798359 
L 250.50137 21.178359 
" clip-path="url(#p32e5de1dfd)" style="fill: none; stroke: #cccccc; stroke-width: 0.8; stroke-linecap: round"/>
     </g>
     <g id="text_4">
      <!-- 6000 -->
      <g style="fill: #262626" transform="translate(239.68512 316.556367) scale(0.085 -0.085)">
       <defs>
        <path id="DejaVuSans-19" d="M 2113 2584 
Q 1688 2584 1439 2293 
Q 1191 2003 1191 1497 
Q 1191 994 1439 701 
Q 1688 409 2113 409 
Q 2538 409 2786 701 
Q 3034 994 3034 1497 
Q 3034 2003 2786 2293 
Q 2538 2584 2113 2584 
z
M 3366 4563 
L 3366 3988 
Q 3128 4100 2886 4159 
Q 2644 4219 2406 4219 
Q 1781 4219 1451 3797 
Q 1122 3375 1075 2522 
Q 1259 2794 1537 2939 
Q 1816 3084 2150 3084 
Q 2853 3084 3261 2657 
Q 3669 2231 3669 1497 
Q 3669 778 3244 343 
Q 2819 -91 2113 -91 
Q 1303 -91 875 529 
Q 447 1150 447 2328 
Q 447 3434 972 4092 
Q 1497 4750 2381 4750 
Q 2619 4750 2861 4703 
Q 3103 4656 3366 4563 
z
" transform="scale(0.015625)"/>
       </defs>
       <use xlink:href="#DejaVuSans-19"/>
       <use xlink:href="#DejaVuSans-13" transform="translate(63.625 0)"/>
       <use xlink:href="#DejaVuSans-13" transform="translate(127.25 0)"/>
       <use xlink:href="#DejaVuSans-13" transform="translate(190.875 0)"/>
      </g>
     </g>
    </g>
    <g id="xtick_5">
     <g id="line2d_5">
      <path d="M 305.921905 301.798359 
L 305.921905 21.178359 
" clip-path="url(#p32e5de1dfd)" style="fill: none; stroke: #cccccc; stroke-width: 0.8; stroke-linecap: round"/>
     </g>
     <g id="text_5">
      <!-- 8000 -->
      <g style="fill: #262626" transform="translate(295.105655 316.556367) scale(0.085 -0.085)">
       <defs>
        <path id="DejaVuSans-1b" d="M 2034 2216 
Q 1584 2216 1326 1975 
Q 1069 1734 1069 1313 
Q 1069 891 1326 650 
Q 1584 409 2034 409 
Q 2484 409 2743 651 
Q 3003 894 3003 1313 
Q 3003 1734 2745 1975 
Q 2488 2216 2034 2216 
z
M 1403 2484 
Q 997 2584 770 2862 
Q 544 3141 544 3541 
Q 544 4100 942 4425 
Q 1341 4750 2034 4750 
Q 2731 4750 3128 4425 
Q 3525 4100 3525 3541 
Q 3525 3141 3298 2862 
Q 3072 2584 2669 2484 
Q 3125 2378 3379 2068 
Q 3634 1759 3634 1313 
Q 3634 634 3220 271 
Q 2806 -91 2034 -91 
Q 1263 -91 848 271 
Q 434 634 434 1313 
Q 434 1759 690 2068 
Q 947 2378 1403 2484 
z
M 1172 3481 
Q 1172 3119 1398 2916 
Q 1625 2713 2034 2713 
Q 2441 2713 2670 2916 
Q 2900 3119 2900 3481 
Q 2900 3844 2670 4047 
Q 2441 4250 2034 4250 
Q 1625 4250 1398 4047 
Q 1172 3844 1172 3481 
z
" transform="scale(0.015625)"/>
       </defs>
       <use xlink:href="#DejaVuSans-1b"/>
       <use xlink:href="#DejaVuSans-13" transform="translate(63.625 0)"/>
       <use xlink:href="#DejaVuSans-13" transform="translate(127.25 0)"/>
       <use xlink:href="#DejaVuSans-13" transform="translate(190.875 0)"/>
      </g>
     </g>
    </g>
    <g id="xtick_6">
     <g id="line2d_6">
      <path d="M 361.34244 301.798359 
L 361.34244 21.178359 
" clip-path="url(#p32e5de1dfd)" style="fill: none; stroke: #cccccc; stroke-width: 0.8; stroke-linecap: round"/>
     </g>
     <g id="text_6">
      <!-- 10000 -->
      <g style="fill: #262626" transform="translate(347.822128 316.556367) scale(0.085 -0.085)">
       <defs>
        <path id="DejaVuSans-14" d="M 794 531 
L 1825 531 
L 1825 4091 
L 703 3866 
L 703 4441 
L 1819 4666 
L 2450 4666 
L 2450 531 
L 3481 531 
L 3481 0 
L 794 0 
L 794 531 
z
" transform="scale(0.015625)"/>
       </defs>
       <use xlink:href="#DejaVuSans-14"/>
       <use xlink:href="#DejaVuSans-13" transform="translate(63.625 0)"/>
       <use xlink:href="#DejaVuSans-13" transform="translate(127.25 0)"/>
       <use xlink:href="#DejaVuSans-13" transform="translate(190.875 0)"/>
       <use xlink:href="#DejaVuSans-13" transform="translate(254.5 0)"/>
      </g>
     </g>
    </g>
    <g id="xtick_7">
     <g id="line2d_7">
      <path d="M 416.762975 301.798359 
L 416.762975 21.178359 
" clip-path="url(#p32e5de1dfd)" style="fill: none; stroke: #cccccc; stroke-width: 0.8; stroke-linecap: round"/>
     </g>
     <g id="text_7">
      <!-- 12000 -->
      <g style="fill: #262626" transform="translate(403.242663 316.556367) scale(0.085 -0.085)">
       <use xlink:href="#DejaVuSans-14"/>
       <use xlink:href="#DejaVuSans-15" transform="translate(63.625 0)"/>
       <use xlink:href="#DejaVuSans-13" transform="translate(127.25 0)"/>
       <use xlink:href="#DejaVuSans-13" transform="translate(190.875 0)"/>
       <use xlink:href="#DejaVuSans-13" transform="translate(254.5 0)"/>
      </g>
     </g>
    </g>
    <g id="text_8">
     <!-- Number of curated rows -->
     <g style="fill: #262626" transform="translate(218.841313 329.816875) scale(0.095 -0.095)">
      <defs>
       <path id="DejaVuSans-31" d="M 628 4666 
L 1478 4666 
L 3547 763 
L 3547 4666 
L 4159 4666 
L 4159 0 
L 3309 0 
L 1241 3903 
L 1241 0 
L 628 0 
L 628 4666 
z
" transform="scale(0.015625)"/>
       <path id="DejaVuSans-58" d="M 544 1381 
L 544 3500 
L 1119 3500 
L 1119 1403 
Q 1119 906 1312 657 
Q 1506 409 1894 409 
Q 2359 409 2629 706 
Q 2900 1003 2900 1516 
L 2900 3500 
L 3475 3500 
L 3475 0 
L 2900 0 
L 2900 538 
Q 2691 219 2414 64 
Q 2138 -91 1772 -91 
Q 1169 -91 856 284 
Q 544 659 544 1381 
z
M 1991 3584 
L 1991 3584 
z
" transform="scale(0.015625)"/>
       <path id="DejaVuSans-50" d="M 3328 2828 
Q 3544 3216 3844 3400 
Q 4144 3584 4550 3584 
Q 5097 3584 5394 3201 
Q 5691 2819 5691 2113 
L 5691 0 
L 5113 0 
L 5113 2094 
Q 5113 2597 4934 2840 
Q 4756 3084 4391 3084 
Q 3944 3084 3684 2787 
Q 3425 2491 3425 1978 
L 3425 0 
L 2847 0 
L 2847 2094 
Q 2847 2600 2669 2842 
Q 2491 3084 2119 3084 
Q 1678 3084 1418 2786 
Q 1159 2488 1159 1978 
L 1159 0 
L 581 0 
L 581 3500 
L 1159 3500 
L 1159 2956 
Q 1356 3278 1631 3431 
Q 1906 3584 2284 3584 
Q 2666 3584 2933 3390 
Q 3200 3197 3328 2828 
z
" transform="scale(0.015625)"/>
       <path id="DejaVuSans-45" d="M 3116 1747 
Q 3116 2381 2855 2742 
Q 2594 3103 2138 3103 
Q 1681 3103 1420 2742 
Q 1159 2381 1159 1747 
Q 1159 1113 1420 752 
Q 1681 391 2138 391 
Q 2594 391 2855 752 
Q 3116 1113 3116 1747 
z
M 1159 2969 
Q 1341 3281 1617 3432 
Q 1894 3584 2278 3584 
Q 2916 3584 3314 3078 
Q 3713 2572 3713 1747 
Q 3713 922 3314 415 
Q 2916 -91 2278 -91 
Q 1894 -91 1617 61 
Q 1341 213 1159 525 
L 1159 0 
L 581 0 
L 581 4863 
L 1159 4863 
L 1159 2969 
z
" transform="scale(0.015625)"/>
       <path id="DejaVuSans-48" d="M 3597 1894 
L 3597 1613 
L 953 1613 
Q 991 1019 1311 708 
Q 1631 397 2203 397 
Q 2534 397 2845 478 
Q 3156 559 3463 722 
L 3463 178 
Q 3153 47 2828 -22 
Q 2503 -91 2169 -91 
Q 1331 -91 842 396 
Q 353 884 353 1716 
Q 353 2575 817 3079 
Q 1281 3584 2069 3584 
Q 2775 3584 3186 3129 
Q 3597 2675 3597 1894 
z
M 3022 2063 
Q 3016 2534 2758 2815 
Q 2500 3097 2075 3097 
Q 1594 3097 1305 2825 
Q 1016 2553 972 2059 
L 3022 2063 
z
" transform="scale(0.015625)"/>
       <path id="DejaVuSans-55" d="M 2631 2963 
Q 2534 3019 2420 3045 
Q 2306 3072 2169 3072 
Q 1681 3072 1420 2755 
Q 1159 2438 1159 1844 
L 1159 0 
L 581 0 
L 581 3500 
L 1159 3500 
L 1159 2956 
Q 1341 3275 1631 3429 
Q 1922 3584 2338 3584 
Q 2397 3584 2469 3576 
Q 2541 3569 2628 3553 
L 2631 2963 
z
" transform="scale(0.015625)"/>
       <path id="DejaVuSans-3" transform="scale(0.015625)"/>
       <path id="DejaVuSans-52" d="M 1959 3097 
Q 1497 3097 1228 2736 
Q 959 2375 959 1747 
Q 959 1119 1226 758 
Q 1494 397 1959 397 
Q 2419 397 2687 759 
Q 2956 1122 2956 1747 
Q 2956 2369 2687 2733 
Q 2419 3097 1959 3097 
z
M 1959 3584 
Q 2709 3584 3137 3096 
Q 3566 2609 3566 1747 
Q 3566 888 3137 398 
Q 2709 -91 1959 -91 
Q 1206 -91 779 398 
Q 353 888 353 1747 
Q 353 2609 779 3096 
Q 1206 3584 1959 3584 
z
" transform="scale(0.015625)"/>
       <path id="DejaVuSans-49" d="M 2375 4863 
L 2375 4384 
L 1825 4384 
Q 1516 4384 1395 4259 
Q 1275 4134 1275 3809 
L 1275 3500 
L 2222 3500 
L 2222 3053 
L 1275 3053 
L 1275 0 
L 697 0 
L 697 3053 
L 147 3053 
L 147 3500 
L 697 3500 
L 697 3744 
Q 697 4328 969 4595 
Q 1241 4863 1831 4863 
L 2375 4863 
z
" transform="scale(0.015625)"/>
       <path id="DejaVuSans-46" d="M 3122 3366 
L 3122 2828 
Q 2878 2963 2633 3030 
Q 2388 3097 2138 3097 
Q 1578 3097 1268 2742 
Q 959 2388 959 1747 
Q 959 1106 1268 751 
Q 1578 397 2138 397 
Q 2388 397 2633 464 
Q 2878 531 3122 666 
L 3122 134 
Q 2881 22 2623 -34 
Q 2366 -91 2075 -91 
Q 1284 -91 818 406 
Q 353 903 353 1747 
Q 353 2603 823 3093 
Q 1294 3584 2113 3584 
Q 2378 3584 2631 3529 
Q 2884 3475 3122 3366 
z
" transform="scale(0.015625)"/>
       <path id="DejaVuSans-44" d="M 2194 1759 
Q 1497 1759 1228 1600 
Q 959 1441 959 1056 
Q 959 750 1161 570 
Q 1363 391 1709 391 
Q 2188 391 2477 730 
Q 2766 1069 2766 1631 
L 2766 1759 
L 2194 1759 
z
M 3341 1997 
L 3341 0 
L 2766 0 
L 2766 531 
Q 2569 213 2275 61 
Q 1981 -91 1556 -91 
Q 1019 -91 701 211 
Q 384 513 384 1019 
Q 384 1609 779 1909 
Q 1175 2209 1959 2209 
L 2766 2209 
L 2766 2266 
Q 2766 2663 2505 2880 
Q 2244 3097 1772 3097 
Q 1472 3097 1187 3025 
Q 903 2953 641 2809 
L 641 3341 
Q 956 3463 1253 3523 
Q 1550 3584 1831 3584 
Q 2591 3584 2966 3190 
Q 3341 2797 3341 1997 
z
" transform="scale(0.015625)"/>
       <path id="DejaVuSans-57" d="M 1172 4494 
L 1172 3500 
L 2356 3500 
L 2356 3053 
L 1172 3053 
L 1172 1153 
Q 1172 725 1289 603 
Q 1406 481 1766 481 
L 2356 481 
L 2356 0 
L 1766 0 
Q 1100 0 847 248 
Q 594 497 594 1153 
L 594 3053 
L 172 3053 
L 172 3500 
L 594 3500 
L 594 4494 
L 1172 4494 
z
" transform="scale(0.015625)"/>
       <path id="DejaVuSans-47" d="M 2906 2969 
L 2906 4863 
L 3481 4863 
L 3481 0 
L 2906 0 
L 2906 525 
Q 2725 213 2448 61 
Q 2172 -91 1784 -91 
Q 1150 -91 751 415 
Q 353 922 353 1747 
Q 353 2572 751 3078 
Q 1150 3584 1784 3584 
Q 2172 3584 2448 3432 
Q 2725 3281 2906 2969 
z
M 947 1747 
Q 947 1113 1208 752 
Q 1469 391 1925 391 
Q 2381 391 2643 752 
Q 2906 1113 2906 1747 
Q 2906 2381 2643 2742 
Q 2381 3103 1925 3103 
Q 1469 3103 1208 2742 
Q 947 2381 947 1747 
z
" transform="scale(0.015625)"/>
       <path id="DejaVuSans-5a" d="M 269 3500 
L 844 3500 
L 1563 769 
L 2278 3500 
L 2956 3500 
L 3675 769 
L 4391 3500 
L 4966 3500 
L 4050 0 
L 3372 0 
L 2619 2869 
L 1863 0 
L 1184 0 
L 269 3500 
z
" transform="scale(0.015625)"/>
       <path id="DejaVuSans-56" d="M 2834 3397 
L 2834 2853 
Q 2591 2978 2328 3040 
Q 2066 3103 1784 3103 
Q 1356 3103 1142 2972 
Q 928 2841 928 2578 
Q 928 2378 1081 2264 
Q 1234 2150 1697 2047 
L 1894 2003 
Q 2506 1872 2764 1633 
Q 3022 1394 3022 966 
Q 3022 478 2636 193 
Q 2250 -91 1575 -91 
Q 1294 -91 989 -36 
Q 684 19 347 128 
L 347 722 
Q 666 556 975 473 
Q 1284 391 1588 391 
Q 1994 391 2212 530 
Q 2431 669 2431 922 
Q 2431 1156 2273 1281 
Q 2116 1406 1581 1522 
L 1381 1569 
Q 847 1681 609 1914 
Q 372 2147 372 2553 
Q 372 3047 722 3315 
Q 1072 3584 1716 3584 
Q 2034 3584 2315 3537 
Q 2597 3491 2834 3397 
z
" transform="scale(0.015625)"/>
      </defs>
      <use xlink:href="#DejaVuSans-31"/>
      <use xlink:href="#DejaVuSans-58" transform="translate(74.8125 0)"/>
      <use xlink:href="#DejaVuSans-50" transform="translate(138.1875 0)"/>
      <use xlink:href="#DejaVuSans-45" transform="translate(235.59375 0)"/>
      <use xlink:href="#DejaVuSans-48" transform="translate(299.078125 0)"/>
      <use xlink:href="#DejaVuSans-55" transform="translate(360.609375 0)"/>
      <use xlink:href="#DejaVuSans-3" transform="translate(401.71875 0)"/>
      <use xlink:href="#DejaVuSans-52" transform="translate(433.5 0)"/>
      <use xlink:href="#DejaVuSans-49" transform="translate(494.6875 0)"/>
      <use xlink:href="#DejaVuSans-3" transform="translate(529.890625 0)"/>
      <use xlink:href="#DejaVuSans-46" transform="translate(561.671875 0)"/>
      <use xlink:href="#DejaVuSans-58" transform="translate(616.65625 0)"/>
      <use xlink:href="#DejaVuSans-55" transform="translate(680.03125 0)"/>
      <use xlink:href="#DejaVuSans-44" transform="translate(721.140625 0)"/>
      <use xlink:href="#DejaVuSans-57" transform="translate(782.421875 0)"/>
      <use xlink:href="#DejaVuSans-48" transform="translate(821.625 0)"/>
      <use xlink:href="#DejaVuSans-47" transform="translate(883.15625 0)"/>
      <use xlink:href="#DejaVuSans-3" transform="translate(946.640625 0)"/>
      <use xlink:href="#DejaVuSans-55" transform="translate(978.421875 0)"/>
      <use xlink:href="#DejaVuSans-52" transform="translate(1017.328125 0)"/>
      <use xlink:href="#DejaVuSans-5a" transform="translate(1078.515625 0)"/>
      <use xlink:href="#DejaVuSans-56" transform="translate(1160.296875 0)"/>
     </g>
    </g>
   </g>
   <g id="matplotlib.axis_2">
    <g id="ytick_1">
     <g id="line2d_8">
      <path d="M 84.239766 275.960387 
L 468.61997 275.960387 
" clip-path="url(#p32e5de1dfd)" style="fill: none; stroke: #cccccc; stroke-width: 0.8; stroke-linecap: round"/>
     </g>
     <g id="text_9">
      <!-- hERG Ki B -->
      <g style="fill: #262626" transform="translate(33.519453 279.189723) scale(0.085 -0.085)">
       <defs>
        <path id="DejaVuSans-4b" d="M 3513 2113 
L 3513 0 
L 2938 0 
L 2938 2094 
Q 2938 2591 2744 2837 
Q 2550 3084 2163 3084 
Q 1697 3084 1428 2787 
Q 1159 2491 1159 1978 
L 1159 0 
L 581 0 
L 581 4863 
L 1159 4863 
L 1159 2956 
Q 1366 3272 1645 3428 
Q 1925 3584 2291 3584 
Q 2894 3584 3203 3211 
Q 3513 2838 3513 2113 
z
" transform="scale(0.015625)"/>
        <path id="DejaVuSans-28" d="M 628 4666 
L 3578 4666 
L 3578 4134 
L 1259 4134 
L 1259 2753 
L 3481 2753 
L 3481 2222 
L 1259 2222 
L 1259 531 
L 3634 531 
L 3634 0 
L 628 0 
L 628 4666 
z
" transform="scale(0.015625)"/>
        <path id="DejaVuSans-35" d="M 2841 2188 
Q 3044 2119 3236 1894 
Q 3428 1669 3622 1275 
L 4263 0 
L 3584 0 
L 2988 1197 
Q 2756 1666 2539 1819 
Q 2322 1972 1947 1972 
L 1259 1972 
L 1259 0 
L 628 0 
L 628 4666 
L 2053 4666 
Q 2853 4666 3247 4331 
Q 3641 3997 3641 3322 
Q 3641 2881 3436 2590 
Q 3231 2300 2841 2188 
z
M 1259 4147 
L 1259 2491 
L 2053 2491 
Q 2509 2491 2742 2702 
Q 2975 2913 2975 3322 
Q 2975 3731 2742 3939 
Q 2509 4147 2053 4147 
L 1259 4147 
z
" transform="scale(0.015625)"/>
        <path id="DejaVuSans-2a" d="M 3809 666 
L 3809 1919 
L 2778 1919 
L 2778 2438 
L 4434 2438 
L 4434 434 
Q 4069 175 3628 42 
Q 3188 -91 2688 -91 
Q 1594 -91 976 548 
Q 359 1188 359 2328 
Q 359 3472 976 4111 
Q 1594 4750 2688 4750 
Q 3144 4750 3555 4637 
Q 3966 4525 4313 4306 
L 4313 3634 
Q 3963 3931 3569 4081 
Q 3175 4231 2741 4231 
Q 1884 4231 1454 3753 
Q 1025 3275 1025 2328 
Q 1025 1384 1454 906 
Q 1884 428 2741 428 
Q 3075 428 3337 486 
Q 3600 544 3809 666 
z
" transform="scale(0.015625)"/>
        <path id="DejaVuSans-2e" d="M 628 4666 
L 1259 4666 
L 1259 2694 
L 3353 4666 
L 4166 4666 
L 1850 2491 
L 4331 0 
L 3500 0 
L 1259 2247 
L 1259 0 
L 628 0 
L 628 4666 
z
" transform="scale(0.015625)"/>
        <path id="DejaVuSans-4c" d="M 603 3500 
L 1178 3500 
L 1178 0 
L 603 0 
L 603 3500 
z
M 603 4863 
L 1178 4863 
L 1178 4134 
L 603 4134 
L 603 4863 
z
" transform="scale(0.015625)"/>
        <path id="DejaVuSans-25" d="M 1259 2228 
L 1259 519 
L 2272 519 
Q 2781 519 3026 730 
Q 3272 941 3272 1375 
Q 3272 1813 3026 2020 
Q 2781 2228 2272 2228 
L 1259 2228 
z
M 1259 4147 
L 1259 2741 
L 2194 2741 
Q 2656 2741 2882 2914 
Q 3109 3088 3109 3444 
Q 3109 3797 2882 3972 
Q 2656 4147 2194 4147 
L 1259 4147 
z
M 628 4666 
L 2241 4666 
Q 2963 4666 3353 4366 
Q 3744 4066 3744 3513 
Q 3744 3084 3544 2831 
Q 3344 2578 2956 2516 
Q 3422 2416 3680 2098 
Q 3938 1781 3938 1306 
Q 3938 681 3513 340 
Q 3088 0 2303 0 
L 628 0 
L 628 4666 
z
" transform="scale(0.015625)"/>
       </defs>
       <use xlink:href="#DejaVuSans-4b"/>
       <use xlink:href="#DejaVuSans-28" transform="translate(63.375 0)"/>
       <use xlink:href="#DejaVuSans-35" transform="translate(126.5625 0)"/>
       <use xlink:href="#DejaVuSans-2a" transform="translate(196.046875 0)"/>
       <use xlink:href="#DejaVuSans-3" transform="translate(273.53125 0)"/>
       <use xlink:href="#DejaVuSans-2e" transform="translate(305.3125 0)"/>
       <use xlink:href="#DejaVuSans-4c" transform="translate(370.890625 0)"/>
       <use xlink:href="#DejaVuSans-3" transform="translate(398.671875 0)"/>
       <use xlink:href="#DejaVuSans-25" transform="translate(430.453125 0)"/>
      </g>
     </g>
    </g>
    <g id="ytick_2">
     <g id="line2d_9">
      <path d="M 84.239766 243.254094 
L 468.61997 243.254094 
" clip-path="url(#p32e5de1dfd)" style="fill: none; stroke: #cccccc; stroke-width: 0.8; stroke-linecap: round"/>
     </g>
     <g id="text_10">
      <!-- hERG IC50 B -->
      <g style="fill: #262626" transform="translate(22.195859 246.48343) scale(0.085 -0.085)">
       <defs>
        <path id="DejaVuSans-2c" d="M 628 4666 
L 1259 4666 
L 1259 0 
L 628 0 
L 628 4666 
z
" transform="scale(0.015625)"/>
        <path id="DejaVuSans-26" d="M 4122 4306 
L 4122 3641 
Q 3803 3938 3442 4084 
Q 3081 4231 2675 4231 
Q 1875 4231 1450 3742 
Q 1025 3253 1025 2328 
Q 1025 1406 1450 917 
Q 1875 428 2675 428 
Q 3081 428 3442 575 
Q 3803 722 4122 1019 
L 4122 359 
Q 3791 134 3420 21 
Q 3050 -91 2638 -91 
Q 1578 -91 968 557 
Q 359 1206 359 2328 
Q 359 3453 968 4101 
Q 1578 4750 2638 4750 
Q 3056 4750 3426 4639 
Q 3797 4528 4122 4306 
z
" transform="scale(0.015625)"/>
        <path id="DejaVuSans-18" d="M 691 4666 
L 3169 4666 
L 3169 4134 
L 1269 4134 
L 1269 2991 
Q 1406 3038 1543 3061 
Q 1681 3084 1819 3084 
Q 2600 3084 3056 2656 
Q 3513 2228 3513 1497 
Q 3513 744 3044 326 
Q 2575 -91 1722 -91 
Q 1428 -91 1123 -41 
Q 819 9 494 109 
L 494 744 
Q 775 591 1075 516 
Q 1375 441 1709 441 
Q 2250 441 2565 725 
Q 2881 1009 2881 1497 
Q 2881 1984 2565 2268 
Q 2250 2553 1709 2553 
Q 1456 2553 1204 2497 
Q 953 2441 691 2322 
L 691 4666 
z
" transform="scale(0.015625)"/>
       </defs>
       <use xlink:href="#DejaVuSans-4b"/>
       <use xlink:href="#DejaVuSans-28" transform="translate(63.375 0)"/>
       <use xlink:href="#DejaVuSans-35" transform="translate(126.5625 0)"/>
       <use xlink:href="#DejaVuSans-2a" transform="translate(196.046875 0)"/>
       <use xlink:href="#DejaVuSans-3" transform="translate(273.53125 0)"/>
       <use xlink:href="#DejaVuSans-2c" transform="translate(305.3125 0)"/>
       <use xlink:href="#DejaVuSans-26" transform="translate(334.8125 0)"/>
       <use xlink:href="#DejaVuSans-18" transform="translate(404.640625 0)"/>
       <use xlink:href="#DejaVuSans-13" transform="translate(468.265625 0)"/>
       <use xlink:href="#DejaVuSans-3" transform="translate(531.890625 0)"/>
       <use xlink:href="#DejaVuSans-25" transform="translate(563.671875 0)"/>
      </g>
     </g>
    </g>
    <g id="ytick_3">
     <g id="line2d_10">
      <path d="M 84.239766 210.5478 
L 468.61997 210.5478 
" clip-path="url(#p32e5de1dfd)" style="fill: none; stroke: #cccccc; stroke-width: 0.8; stroke-linecap: round"/>
     </g>
     <g id="text_11">
      <!-- hERG IC50 T -->
      <g style="fill: #262626" transform="translate(22.836016 213.777136) scale(0.085 -0.085)">
       <defs>
        <path id="DejaVuSans-37" d="M -19 4666 
L 3928 4666 
L 3928 4134 
L 2272 4134 
L 2272 0 
L 1638 0 
L 1638 4134 
L -19 4134 
L -19 4666 
z
" transform="scale(0.015625)"/>
       </defs>
       <use xlink:href="#DejaVuSans-4b"/>
       <use xlink:href="#DejaVuSans-28" transform="translate(63.375 0)"/>
       <use xlink:href="#DejaVuSans-35" transform="translate(126.5625 0)"/>
       <use xlink:href="#DejaVuSans-2a" transform="translate(196.046875 0)"/>
       <use xlink:href="#DejaVuSans-3" transform="translate(273.53125 0)"/>
       <use xlink:href="#DejaVuSans-2c" transform="translate(305.3125 0)"/>
       <use xlink:href="#DejaVuSans-26" transform="translate(334.8125 0)"/>
       <use xlink:href="#DejaVuSans-18" transform="translate(404.640625 0)"/>
       <use xlink:href="#DejaVuSans-13" transform="translate(468.265625 0)"/>
       <use xlink:href="#DejaVuSans-3" transform="translate(531.890625 0)"/>
       <use xlink:href="#DejaVuSans-37" transform="translate(563.671875 0)"/>
      </g>
     </g>
    </g>
    <g id="ytick_4">
     <g id="line2d_11">
      <path d="M 84.239766 177.841506 
L 468.61997 177.841506 
" clip-path="url(#p32e5de1dfd)" style="fill: none; stroke: #cccccc; stroke-width: 0.8; stroke-linecap: round"/>
     </g>
     <g id="text_12">
      <!-- CYP3A4 IC50 A -->
      <g style="fill: #262626" transform="translate(12.728984 181.07051) scale(0.085 -0.085)">
       <defs>
        <path id="DejaVuSans-3c" d="M -13 4666 
L 666 4666 
L 1959 2747 
L 3244 4666 
L 3922 4666 
L 2272 2222 
L 2272 0 
L 1638 0 
L 1638 2222 
L -13 4666 
z
" transform="scale(0.015625)"/>
        <path id="DejaVuSans-33" d="M 1259 4147 
L 1259 2394 
L 2053 2394 
Q 2494 2394 2734 2622 
Q 2975 2850 2975 3272 
Q 2975 3691 2734 3919 
Q 2494 4147 2053 4147 
L 1259 4147 
z
M 628 4666 
L 2053 4666 
Q 2838 4666 3239 4311 
Q 3641 3956 3641 3272 
Q 3641 2581 3239 2228 
Q 2838 1875 2053 1875 
L 1259 1875 
L 1259 0 
L 628 0 
L 628 4666 
z
" transform="scale(0.015625)"/>
        <path id="DejaVuSans-16" d="M 2597 2516 
Q 3050 2419 3304 2112 
Q 3559 1806 3559 1356 
Q 3559 666 3084 287 
Q 2609 -91 1734 -91 
Q 1441 -91 1130 -33 
Q 819 25 488 141 
L 488 750 
Q 750 597 1062 519 
Q 1375 441 1716 441 
Q 2309 441 2620 675 
Q 2931 909 2931 1356 
Q 2931 1769 2642 2001 
Q 2353 2234 1838 2234 
L 1294 2234 
L 1294 2753 
L 1863 2753 
Q 2328 2753 2575 2939 
Q 2822 3125 2822 3475 
Q 2822 3834 2567 4026 
Q 2313 4219 1838 4219 
Q 1578 4219 1281 4162 
Q 984 4106 628 3988 
L 628 4550 
Q 988 4650 1302 4700 
Q 1616 4750 1894 4750 
Q 2613 4750 3031 4423 
Q 3450 4097 3450 3541 
Q 3450 3153 3228 2886 
Q 3006 2619 2597 2516 
z
" transform="scale(0.015625)"/>
        <path id="DejaVuSans-24" d="M 2188 4044 
L 1331 1722 
L 3047 1722 
L 2188 4044 
z
M 1831 4666 
L 2547 4666 
L 4325 0 
L 3669 0 
L 3244 1197 
L 1141 1197 
L 716 0 
L 50 0 
L 1831 4666 
z
" transform="scale(0.015625)"/>
       </defs>
       <use xlink:href="#DejaVuSans-26"/>
       <use xlink:href="#DejaVuSans-3c" transform="translate(68.078125 0)"/>
       <use xlink:href="#DejaVuSans-33" transform="translate(129.15625 0)"/>
       <use xlink:href="#DejaVuSans-16" transform="translate(189.453125 0)"/>
       <use xlink:href="#DejaVuSans-24" transform="translate(253.078125 0)"/>
       <use xlink:href="#DejaVuSans-17" transform="translate(321.484375 0)"/>
       <use xlink:href="#DejaVuSans-3" transform="translate(385.109375 0)"/>
       <use xlink:href="#DejaVuSans-2c" transform="translate(416.890625 0)"/>
       <use xlink:href="#DejaVuSans-26" transform="translate(446.390625 0)"/>
       <use xlink:href="#DejaVuSans-18" transform="translate(516.21875 0)"/>
       <use xlink:href="#DejaVuSans-13" transform="translate(579.84375 0)"/>
       <use xlink:href="#DejaVuSans-3" transform="translate(643.46875 0)"/>
       <use xlink:href="#DejaVuSans-24" transform="translate(675.25 0)"/>
      </g>
     </g>
    </g>
    <g id="ytick_5">
     <g id="line2d_12">
      <path d="M 84.239766 145.135213 
L 468.61997 145.135213 
" clip-path="url(#p32e5de1dfd)" style="fill: none; stroke: #cccccc; stroke-width: 0.8; stroke-linecap: round"/>
     </g>
     <g id="text_13">
      <!-- CYP2C9 IC50 A -->
      <g style="fill: #262626" transform="translate(12.608125 148.364216) scale(0.085 -0.085)">
       <defs>
        <path id="DejaVuSans-1c" d="M 703 97 
L 703 672 
Q 941 559 1184 500 
Q 1428 441 1663 441 
Q 2288 441 2617 861 
Q 2947 1281 2994 2138 
Q 2813 1869 2534 1725 
Q 2256 1581 1919 1581 
Q 1219 1581 811 2004 
Q 403 2428 403 3163 
Q 403 3881 828 4315 
Q 1253 4750 1959 4750 
Q 2769 4750 3195 4129 
Q 3622 3509 3622 2328 
Q 3622 1225 3098 567 
Q 2575 -91 1691 -91 
Q 1453 -91 1209 -44 
Q 966 3 703 97 
z
M 1959 2075 
Q 2384 2075 2632 2365 
Q 2881 2656 2881 3163 
Q 2881 3666 2632 3958 
Q 2384 4250 1959 4250 
Q 1534 4250 1286 3958 
Q 1038 3666 1038 3163 
Q 1038 2656 1286 2365 
Q 1534 2075 1959 2075 
z
" transform="scale(0.015625)"/>
       </defs>
       <use xlink:href="#DejaVuSans-26"/>
       <use xlink:href="#DejaVuSans-3c" transform="translate(68.078125 0)"/>
       <use xlink:href="#DejaVuSans-33" transform="translate(129.15625 0)"/>
       <use xlink:href="#DejaVuSans-15" transform="translate(189.453125 0)"/>
       <use xlink:href="#DejaVuSans-26" transform="translate(253.078125 0)"/>
       <use xlink:href="#DejaVuSans-1c" transform="translate(322.90625 0)"/>
       <use xlink:href="#DejaVuSans-3" transform="translate(386.53125 0)"/>
       <use xlink:href="#DejaVuSans-2c" transform="translate(418.3125 0)"/>
       <use xlink:href="#DejaVuSans-26" transform="translate(447.8125 0)"/>
       <use xlink:href="#DejaVuSans-18" transform="translate(517.640625 0)"/>
       <use xlink:href="#DejaVuSans-13" transform="translate(581.265625 0)"/>
       <use xlink:href="#DejaVuSans-3" transform="translate(644.890625 0)"/>
       <use xlink:href="#DejaVuSans-24" transform="translate(676.671875 0)"/>
      </g>
     </g>
    </g>
    <g id="ytick_6">
     <g id="line2d_13">
      <path d="M 84.239766 112.428919 
L 468.61997 112.428919 
" clip-path="url(#p32e5de1dfd)" style="fill: none; stroke: #cccccc; stroke-width: 0.8; stroke-linecap: round"/>
     </g>
     <g id="text_14">
      <!-- CYP2C19 IC50 A -->
      <g style="fill: #262626" transform="translate(7.2 115.657923) scale(0.085 -0.085)">
       <use xlink:href="#DejaVuSans-26"/>
       <use xlink:href="#DejaVuSans-3c" transform="translate(68.078125 0)"/>
       <use xlink:href="#DejaVuSans-33" transform="translate(129.15625 0)"/>
       <use xlink:href="#DejaVuSans-15" transform="translate(189.453125 0)"/>
       <use xlink:href="#DejaVuSans-26" transform="translate(253.078125 0)"/>
       <use xlink:href="#DejaVuSans-14" transform="translate(322.90625 0)"/>
       <use xlink:href="#DejaVuSans-1c" transform="translate(386.53125 0)"/>
       <use xlink:href="#DejaVuSans-3" transform="translate(450.15625 0)"/>
       <use xlink:href="#DejaVuSans-2c" transform="translate(481.9375 0)"/>
       <use xlink:href="#DejaVuSans-26" transform="translate(511.4375 0)"/>
       <use xlink:href="#DejaVuSans-18" transform="translate(581.265625 0)"/>
       <use xlink:href="#DejaVuSans-13" transform="translate(644.890625 0)"/>
       <use xlink:href="#DejaVuSans-3" transform="translate(708.515625 0)"/>
       <use xlink:href="#DejaVuSans-24" transform="translate(740.296875 0)"/>
      </g>
     </g>
    </g>
    <g id="ytick_7">
     <g id="line2d_14">
      <path d="M 84.239766 79.722625 
L 468.61997 79.722625 
" clip-path="url(#p32e5de1dfd)" style="fill: none; stroke: #cccccc; stroke-width: 0.8; stroke-linecap: round"/>
     </g>
     <g id="text_15">
      <!-- CYP2D6 IC50 A -->
      <g style="fill: #262626" transform="translate(11.998516 82.951629) scale(0.085 -0.085)">
       <defs>
        <path id="DejaVuSans-27" d="M 1259 4147 
L 1259 519 
L 2022 519 
Q 2988 519 3436 956 
Q 3884 1394 3884 2338 
Q 3884 3275 3436 3711 
Q 2988 4147 2022 4147 
L 1259 4147 
z
M 628 4666 
L 1925 4666 
Q 3281 4666 3915 4102 
Q 4550 3538 4550 2338 
Q 4550 1131 3912 565 
Q 3275 0 1925 0 
L 628 0 
L 628 4666 
z
" transform="scale(0.015625)"/>
       </defs>
       <use xlink:href="#DejaVuSans-26"/>
       <use xlink:href="#DejaVuSans-3c" transform="translate(68.078125 0)"/>
       <use xlink:href="#DejaVuSans-33" transform="translate(129.15625 0)"/>
       <use xlink:href="#DejaVuSans-15" transform="translate(189.453125 0)"/>
       <use xlink:href="#DejaVuSans-27" transform="translate(253.078125 0)"/>
       <use xlink:href="#DejaVuSans-19" transform="translate(330.078125 0)"/>
       <use xlink:href="#DejaVuSans-3" transform="translate(393.703125 0)"/>
       <use xlink:href="#DejaVuSans-2c" transform="translate(425.484375 0)"/>
       <use xlink:href="#DejaVuSans-26" transform="translate(454.984375 0)"/>
       <use xlink:href="#DejaVuSans-18" transform="translate(524.8125 0)"/>
       <use xlink:href="#DejaVuSans-13" transform="translate(588.4375 0)"/>
       <use xlink:href="#DejaVuSans-3" transform="translate(652.0625 0)"/>
       <use xlink:href="#DejaVuSans-24" transform="translate(683.84375 0)"/>
      </g>
     </g>
    </g>
    <g id="ytick_8">
     <g id="line2d_15">
      <path d="M 84.239766 47.016331 
L 468.61997 47.016331 
" clip-path="url(#p32e5de1dfd)" style="fill: none; stroke: #cccccc; stroke-width: 0.8; stroke-linecap: round"/>
     </g>
     <g id="text_16">
      <!-- CYP1A2 IC50 A -->
      <g style="fill: #262626" transform="translate(12.728984 50.245335) scale(0.085 -0.085)">
       <use xlink:href="#DejaVuSans-26"/>
       <use xlink:href="#DejaVuSans-3c" transform="translate(68.078125 0)"/>
       <use xlink:href="#DejaVuSans-33" transform="translate(129.15625 0)"/>
       <use xlink:href="#DejaVuSans-14" transform="translate(189.453125 0)"/>
       <use xlink:href="#DejaVuSans-24" transform="translate(253.078125 0)"/>
       <use xlink:href="#DejaVuSans-15" transform="translate(321.484375 0)"/>
       <use xlink:href="#DejaVuSans-3" transform="translate(385.109375 0)"/>
       <use xlink:href="#DejaVuSans-2c" transform="translate(416.890625 0)"/>
       <use xlink:href="#DejaVuSans-26" transform="translate(446.390625 0)"/>
       <use xlink:href="#DejaVuSans-18" transform="translate(516.21875 0)"/>
       <use xlink:href="#DejaVuSans-13" transform="translate(579.84375 0)"/>
       <use xlink:href="#DejaVuSans-3" transform="translate(643.46875 0)"/>
       <use xlink:href="#DejaVuSans-24" transform="translate(675.25 0)"/>
      </g>
     </g>
    </g>
   </g>
   <g id="patch_3">
    <path d="M 84.239766 289.042905 
L 120.595637 289.042905 
L 120.595637 262.87787 
L 84.239766 262.87787 
z
" clip-path="url(#p32e5de1dfd)" style="fill: #3b6fb6; stroke: #ffffff; stroke-width: 0.8; stroke-linejoin: miter"/>
   </g>
   <g id="patch_4">
    <path d="M 84.239766 256.336611 
L 303.621953 256.336611 
L 303.621953 230.171576 
L 84.239766 230.171576 
z
" clip-path="url(#p32e5de1dfd)" style="fill: #3b6fb6; stroke: #ffffff; stroke-width: 0.8; stroke-linejoin: miter"/>
   </g>
   <g id="patch_5">
    <path d="M 84.239766 223.630317 
L 113.7512 223.630317 
L 113.7512 197.465282 
L 84.239766 197.465282 
z
" clip-path="url(#p32e5de1dfd)" style="fill: #3b6fb6; stroke: #ffffff; stroke-width: 0.8; stroke-linejoin: miter"/>
   </g>
   <g id="patch_6">
    <path d="M 84.239766 190.924024 
L 172.496967 190.924024 
L 172.496967 164.758989 
L 84.239766 164.758989 
z
" clip-path="url(#p32e5de1dfd)" style="fill: #3b6fb6; stroke: #ffffff; stroke-width: 0.8; stroke-linejoin: miter"/>
   </g>
   <g id="patch_7">
    <path d="M 84.239766 158.21773 
L 136.556751 158.21773 
L 136.556751 132.052695 
L 84.239766 132.052695 
z
" clip-path="url(#p32e5de1dfd)" style="fill: #3b6fb6; stroke: #ffffff; stroke-width: 0.8; stroke-linejoin: miter"/>
   </g>
   <g id="patch_8">
    <path d="M 84.239766 125.511436 
L 113.72349 125.511436 
L 113.72349 99.346401 
L 84.239766 99.346401 
z
" clip-path="url(#p32e5de1dfd)" style="fill: #3b6fb6; stroke: #ffffff; stroke-width: 0.8; stroke-linejoin: miter"/>
   </g>
   <g id="patch_9">
    <path d="M 84.239766 92.805143 
L 133.37007 92.805143 
L 133.37007 66.640108 
L 84.239766 66.640108 
z
" clip-path="url(#p32e5de1dfd)" style="fill: #3b6fb6; stroke: #ffffff; stroke-width: 0.8; stroke-linejoin: miter"/>
   </g>
   <g id="patch_10">
    <path d="M 84.239766 60.098849 
L 117.741479 60.098849 
L 117.741479 33.933814 
L 84.239766 33.933814 
z
" clip-path="url(#p32e5de1dfd)" style="fill: #3b6fb6; stroke: #ffffff; stroke-width: 0.8; stroke-linejoin: miter"/>
   </g>
   <g id="patch_11">
    <path d="M 120.595637 289.042905 
L 135.309789 289.042905 
L 135.309789 262.87787 
L 120.595637 262.87787 
z
" clip-path="url(#p32e5de1dfd)" style="fill: #d76f30; stroke: #ffffff; stroke-width: 0.8; stroke-linejoin: miter"/>
   </g>
   <g id="patch_12">
    <path d="M 303.621953 256.336611 
L 399.305507 256.336611 
L 399.305507 230.171576 
L 303.621953 230.171576 
z
" clip-path="url(#p32e5de1dfd)" style="fill: #d76f30; stroke: #ffffff; stroke-width: 0.8; stroke-linejoin: miter"/>
   </g>
   <g id="patch_13">
    <path d="M 113.7512 223.630317 
L 132.095398 223.630317 
L 132.095398 197.465282 
L 113.7512 197.465282 
z
" clip-path="url(#p32e5de1dfd)" style="fill: #d76f30; stroke: #ffffff; stroke-width: 0.8; stroke-linejoin: miter"/>
   </g>
   <g id="patch_14">
    <path d="M 172.496967 190.924024 
L 257.983143 190.924024 
L 257.983143 164.758989 
L 172.496967 164.758989 
z
" clip-path="url(#p32e5de1dfd)" style="fill: #d76f30; stroke: #ffffff; stroke-width: 0.8; stroke-linejoin: miter"/>
   </g>
   <g id="patch_15">
    <path d="M 136.556751 158.21773 
L 195.718172 158.21773 
L 195.718172 132.052695 
L 136.556751 132.052695 
z
" clip-path="url(#p32e5de1dfd)" style="fill: #d76f30; stroke: #ffffff; stroke-width: 0.8; stroke-linejoin: miter"/>
   </g>
   <g id="patch_16">
    <path d="M 113.72349 125.511436 
L 156.785246 125.511436 
L 156.785246 99.346401 
L 113.72349 99.346401 
z
" clip-path="url(#p32e5de1dfd)" style="fill: #d76f30; stroke: #ffffff; stroke-width: 0.8; stroke-linejoin: miter"/>
   </g>
   <g id="patch_17">
    <path d="M 133.37007 92.805143 
L 207.550456 92.805143 
L 207.550456 66.640108 
L 133.37007 66.640108 
z
" clip-path="url(#p32e5de1dfd)" style="fill: #d76f30; stroke: #ffffff; stroke-width: 0.8; stroke-linejoin: miter"/>
   </g>
   <g id="patch_18">
    <path d="M 117.741479 60.098849 
L 177.069162 60.098849 
L 177.069162 33.933814 
L 117.741479 33.933814 
z
" clip-path="url(#p32e5de1dfd)" style="fill: #d76f30; stroke: #ffffff; stroke-width: 0.8; stroke-linejoin: miter"/>
   </g>
   <g id="patch_19">
    <path d="M 84.239766 301.798359 
L 84.239766 21.178359 
" style="fill: none; stroke: #333333; stroke-width: 0.8; stroke-linejoin: miter; stroke-linecap: square"/>
   </g>
   <g id="patch_20">
    <path d="M 468.61997 301.798359 
L 468.61997 21.178359 
" style="fill: none; stroke: #333333; stroke-width: 0.8; stroke-linejoin: miter; stroke-linecap: square"/>
   </g>
   <g id="patch_21">
    <path d="M 84.239766 301.798359 
L 468.61997 301.798359 
" style="fill: none; stroke: #333333; stroke-width: 0.8; stroke-linejoin: miter; stroke-linecap: square"/>
   </g>
   <g id="patch_22">
    <path d="M 84.239766 21.178359 
L 468.61997 21.178359 
" style="fill: none; stroke: #333333; stroke-width: 0.8; stroke-linejoin: miter; stroke-linecap: square"/>
   </g>
   <g id="text_17">
    <!-- 29% -->
    <g style="fill: #262626" transform="translate(135.820489 278.038512) scale(0.08 -0.08)">
     <defs>
      <path id="DejaVuSans-8" d="M 4653 2053 
Q 4381 2053 4226 1822 
Q 4072 1591 4072 1178 
Q 4072 772 4226 539 
Q 4381 306 4653 306 
Q 4919 306 5073 539 
Q 5228 772 5228 1178 
Q 5228 1588 5073 1820 
Q 4919 2053 4653 2053 
z
M 4653 2450 
Q 5147 2450 5437 2106 
Q 5728 1763 5728 1178 
Q 5728 594 5436 251 
Q 5144 -91 4653 -91 
Q 4153 -91 3862 251 
Q 3572 594 3572 1178 
Q 3572 1766 3864 2108 
Q 4156 2450 4653 2450 
z
M 1428 4353 
Q 1159 4353 1004 4120 
Q 850 3888 850 3481 
Q 850 3069 1003 2837 
Q 1156 2606 1428 2606 
Q 1700 2606 1854 2837 
Q 2009 3069 2009 3481 
Q 2009 3884 1853 4118 
Q 1697 4353 1428 4353 
z
M 4250 4750 
L 4750 4750 
L 1831 -91 
L 1331 -91 
L 4250 4750 
z
M 1428 4750 
Q 1922 4750 2215 4408 
Q 2509 4066 2509 3481 
Q 2509 2891 2217 2550 
Q 1925 2209 1428 2209 
Q 931 2209 642 2551 
Q 353 2894 353 3481 
Q 353 4063 643 4406 
Q 934 4750 1428 4750 
z
" transform="scale(0.015625)"/>
     </defs>
     <use xlink:href="#DejaVuSans-15"/>
     <use xlink:href="#DejaVuSans-1c" transform="translate(63.625 0)"/>
     <use xlink:href="#DejaVuSans-8" transform="translate(127.25 0)"/>
    </g>
   </g>
   <g id="text_18">
    <!-- 30% -->
    <g style="fill: #262626" transform="translate(402.456164 245.332219) scale(0.08 -0.08)">
     <use xlink:href="#DejaVuSans-16"/>
     <use xlink:href="#DejaVuSans-13" transform="translate(63.625 0)"/>
     <use xlink:href="#DejaVuSans-8" transform="translate(127.25 0)"/>
    </g>
   </g>
   <g id="text_19">
    <!-- 38% -->
    <g style="fill: #262626" transform="translate(132.573954 212.625925) scale(0.08 -0.08)">
     <use xlink:href="#DejaVuSans-16"/>
     <use xlink:href="#DejaVuSans-1b" transform="translate(63.625 0)"/>
     <use xlink:href="#DejaVuSans-8" transform="translate(127.25 0)"/>
    </g>
   </g>
   <g id="text_20">
    <!-- 49% -->
    <g style="fill: #262626" transform="translate(259.720576 179.919631) scale(0.08 -0.08)">
     <use xlink:href="#DejaVuSans-17"/>
     <use xlink:href="#DejaVuSans-1c" transform="translate(63.625 0)"/>
     <use xlink:href="#DejaVuSans-8" transform="translate(127.25 0)"/>
    </g>
   </g>
   <g id="text_21">
    <!-- 53% -->
    <g style="fill: #262626" transform="translate(196.832956 147.213338) scale(0.08 -0.08)">
     <use xlink:href="#DejaVuSans-18"/>
     <use xlink:href="#DejaVuSans-16" transform="translate(63.625 0)"/>
     <use xlink:href="#DejaVuSans-8" transform="translate(127.25 0)"/>
    </g>
   </g>
   <g id="text_22">
    <!-- 59% -->
    <g style="fill: #262626" transform="translate(157.510701 114.507044) scale(0.08 -0.08)">
     <use xlink:href="#DejaVuSans-18"/>
     <use xlink:href="#DejaVuSans-1c" transform="translate(63.625 0)"/>
     <use xlink:href="#DejaVuSans-8" transform="translate(127.25 0)"/>
    </g>
   </g>
   <g id="text_23">
    <!-- 60% -->
    <g style="fill: #262626" transform="translate(208.783563 81.80075) scale(0.08 -0.08)">
     <use xlink:href="#DejaVuSans-19"/>
     <use xlink:href="#DejaVuSans-13" transform="translate(63.625 0)"/>
     <use xlink:href="#DejaVuSans-8" transform="translate(127.25 0)"/>
    </g>
   </g>
   <g id="text_24">
    <!-- 64% -->
    <g style="fill: #262626" transform="translate(177.997456 49.094456) scale(0.08 -0.08)">
     <use xlink:href="#DejaVuSans-19"/>
     <use xlink:href="#DejaVuSans-17" transform="translate(63.625 0)"/>
     <use xlink:href="#DejaVuSans-8" transform="translate(127.25 0)"/>
    </g>
   </g>
   <g id="text_25">
    <!-- Endpoints meeting modelling inclusion criteria -->
    <g style="fill: #262626" transform="translate(154.160649 15.178359) scale(0.105 -0.105)">
     <defs>
      <path id="DejaVuSans-51" d="M 3513 2113 
L 3513 0 
L 2938 0 
L 2938 2094 
Q 2938 2591 2744 2837 
Q 2550 3084 2163 3084 
Q 1697 3084 1428 2787 
Q 1159 2491 1159 1978 
L 1159 0 
L 581 0 
L 581 3500 
L 1159 3500 
L 1159 2956 
Q 1366 3272 1645 3428 
Q 1925 3584 2291 3584 
Q 2894 3584 3203 3211 
Q 3513 2838 3513 2113 
z
" transform="scale(0.015625)"/>
      <path id="DejaVuSans-53" d="M 1159 525 
L 1159 -1331 
L 581 -1331 
L 581 3500 
L 1159 3500 
L 1159 2969 
Q 1341 3281 1617 3432 
Q 1894 3584 2278 3584 
Q 2916 3584 3314 3078 
Q 3713 2572 3713 1747 
Q 3713 922 3314 415 
Q 2916 -91 2278 -91 
Q 1894 -91 1617 61 
Q 1341 213 1159 525 
z
M 3116 1747 
Q 3116 2381 2855 2742 
Q 2594 3103 2138 3103 
Q 1681 3103 1420 2742 
Q 1159 2381 1159 1747 
Q 1159 1113 1420 752 
Q 1681 391 2138 391 
Q 2594 391 2855 752 
Q 3116 1113 3116 1747 
z
" transform="scale(0.015625)"/>
      <path id="DejaVuSans-4a" d="M 2906 1791 
Q 2906 2416 2648 2759 
Q 2391 3103 1925 3103 
Q 1463 3103 1205 2759 
Q 947 2416 947 1791 
Q 947 1169 1205 825 
Q 1463 481 1925 481 
Q 2391 481 2648 825 
Q 2906 1169 2906 1791 
z
M 3481 434 
Q 3481 -459 3084 -895 
Q 2688 -1331 1869 -1331 
Q 1566 -1331 1297 -1286 
Q 1028 -1241 775 -1147 
L 775 -588 
Q 1028 -725 1275 -790 
Q 1522 -856 1778 -856 
Q 2344 -856 2625 -561 
Q 2906 -266 2906 331 
L 2906 616 
Q 2728 306 2450 153 
Q 2172 0 1784 0 
Q 1141 0 747 490 
Q 353 981 353 1791 
Q 353 2603 747 3093 
Q 1141 3584 1784 3584 
Q 2172 3584 2450 3431 
Q 2728 3278 2906 2969 
L 2906 3500 
L 3481 3500 
L 3481 434 
z
" transform="scale(0.015625)"/>
      <path id="DejaVuSans-4f" d="M 603 4863 
L 1178 4863 
L 1178 0 
L 603 0 
L 603 4863 
z
" transform="scale(0.015625)"/>
     </defs>
     <use xlink:href="#DejaVuSans-28"/>
     <use xlink:href="#DejaVuSans-51" transform="translate(63.1875 0)"/>
     <use xlink:href="#DejaVuSans-47" transform="translate(126.5625 0)"/>
     <use xlink:href="#DejaVuSans-53" transform="translate(190.046875 0)"/>
     <use xlink:href="#DejaVuSans-52" transform="translate(253.53125 0)"/>
     <use xlink:href="#DejaVuSans-4c" transform="translate(314.71875 0)"/>
     <use xlink:href="#DejaVuSans-51" transform="translate(342.5 0)"/>
     <use xlink:href="#DejaVuSans-57" transform="translate(405.875 0)"/>
     <use xlink:href="#DejaVuSans-56" transform="translate(445.078125 0)"/>
     <use xlink:href="#DejaVuSans-3" transform="translate(497.171875 0)"/>
     <use xlink:href="#DejaVuSans-50" transform="translate(528.953125 0)"/>
     <use xlink:href="#DejaVuSans-48" transform="translate(626.359375 0)"/>
     <use xlink:href="#DejaVuSans-48" transform="translate(687.890625 0)"/>
     <use xlink:href="#DejaVuSans-57" transform="translate(749.421875 0)"/>
     <use xlink:href="#DejaVuSans-4c" transform="translate(788.625 0)"/>
     <use xlink:href="#DejaVuSans-51" transform="translate(816.40625 0)"/>
     <use xlink:href="#DejaVuSans-4a" transform="translate(879.78125 0)"/>
     <use xlink:href="#DejaVuSans-3" transform="translate(943.265625 0)"/>
     <use xlink:href="#DejaVuSans-50" transform="translate(975.046875 0)"/>
     <use xlink:href="#DejaVuSans-52" transform="translate(1072.453125 0)"/>
     <use xlink:href="#DejaVuSans-47" transform="translate(1133.640625 0)"/>
     <use xlink:href="#DejaVuSans-48" transform="translate(1197.125 0)"/>
     <use xlink:href="#DejaVuSans-4f" transform="translate(1258.65625 0)"/>
     <use xlink:href="#DejaVuSans-4f" transform="translate(1286.4375 0)"/>
     <use xlink:href="#DejaVuSans-4c" transform="translate(1314.21875 0)"/>
     <use xlink:href="#DejaVuSans-51" transform="translate(1342 0)"/>
     <use xlink:href="#DejaVuSans-4a" transform="translate(1405.375 0)"/>
     <use xlink:href="#DejaVuSans-3" transform="translate(1468.859375 0)"/>
     <use xlink:href="#DejaVuSans-4c" transform="translate(1500.640625 0)"/>
     <use xlink:href="#DejaVuSans-51" transform="translate(1528.421875 0)"/>
     <use xlink:href="#DejaVuSans-46" transform="translate(1591.796875 0)"/>
     <use xlink:href="#DejaVuSans-4f" transform="translate(1646.78125 0)"/>
     <use xlink:href="#DejaVuSans-58" transform="translate(1674.5625 0)"/>
     <use xlink:href="#DejaVuSans-56" transform="translate(1737.9375 0)"/>
     <use xlink:href="#DejaVuSans-4c" transform="translate(1790.03125 0)"/>
     <use xlink:href="#DejaVuSans-52" transform="translate(1817.8125 0)"/>
     <use xlink:href="#DejaVuSans-51" transform="translate(1879 0)"/>
     <use xlink:href="#DejaVuSans-3" transform="translate(1942.375 0)"/>
     <use xlink:href="#DejaVuSans-46" transform="translate(1974.15625 0)"/>
     <use xlink:href="#DejaVuSans-55" transform="translate(2029.140625 0)"/>
     <use xlink:href="#DejaVuSans-4c" transform="translate(2070.25 0)"/>
     <use xlink:href="#DejaVuSans-57" transform="translate(2098.03125 0)"/>
     <use xlink:href="#DejaVuSans-48" transform="translate(2137.234375 0)"/>
     <use xlink:href="#DejaVuSans-55" transform="translate(2198.765625 0)"/>
     <use xlink:href="#DejaVuSans-4c" transform="translate(2239.875 0)"/>
     <use xlink:href="#DejaVuSans-44" transform="translate(2267.65625 0)"/>
    </g>
   </g>
   <g id="legend_1">
    <g id="patch_23">
     <path d="M 395.355282 297.548359 
L 462.66997 297.548359 
Q 464.36997 297.548359 464.36997 295.848359 
L 464.36997 271.197031 
Q 464.36997 269.497031 462.66997 269.497031 
L 395.355282 269.497031 
Q 393.655282 269.497031 393.655282 271.197031 
L 393.655282 295.848359 
Q 393.655282 297.548359 395.355282 297.548359 
z
" style="fill: #ffffff; opacity: 0.8; stroke: #cccccc; stroke-width: 0.8; stroke-linejoin: miter"/>
    </g>
    <g id="patch_24">
     <path d="M 397.055282 279.355703 
L 414.055282 279.355703 
L 414.055282 273.405703 
L 397.055282 273.405703 
z
" style="fill: #3b6fb6; stroke: #ffffff; stroke-width: 0.8; stroke-linejoin: miter"/>
    </g>
    <g id="text_26">
     <!-- Exact -->
     <g style="fill: #262626" transform="translate(420.855282 279.355703) scale(0.085 -0.085)">
      <defs>
       <path id="DejaVuSans-5b" d="M 3513 3500 
L 2247 1797 
L 3578 0 
L 2900 0 
L 1881 1375 
L 863 0 
L 184 0 
L 1544 1831 
L 300 3500 
L 978 3500 
L 1906 2253 
L 2834 3500 
L 3513 3500 
z
" transform="scale(0.015625)"/>
      </defs>
      <use xlink:href="#DejaVuSans-28"/>
      <use xlink:href="#DejaVuSans-5b" transform="translate(63.1875 0)"/>
      <use xlink:href="#DejaVuSans-44" transform="translate(122.375 0)"/>
      <use xlink:href="#DejaVuSans-46" transform="translate(183.65625 0)"/>
      <use xlink:href="#DejaVuSans-57" transform="translate(238.640625 0)"/>
     </g>
    </g>
    <g id="patch_25">
     <path d="M 397.055282 292.106367 
L 414.055282 292.106367 
L 414.055282 286.156367 
L 397.055282 286.156367 
z
" style="fill: #d76f30; stroke: #ffffff; stroke-width: 0.8; stroke-linejoin: miter"/>
    </g>
    <g id="text_27">
     <!-- Censored -->
     <g style="fill: #262626" transform="translate(420.855282 292.106367) scale(0.085 -0.085)">
      <use xlink:href="#DejaVuSans-26"/>
      <use xlink:href="#DejaVuSans-48" transform="translate(69.828125 0)"/>
      <use xlink:href="#DejaVuSans-51" transform="translate(131.359375 0)"/>
      <use xlink:href="#DejaVuSans-56" transform="translate(194.734375 0)"/>
      <use xlink:href="#DejaVuSans-52" transform="translate(246.828125 0)"/>
      <use xlink:href="#DejaVuSans-55" transform="translate(308.015625 0)"/>
      <use xlink:href="#DejaVuSans-48" transform="translate(346.921875 0)"/>
      <use xlink:href="#DejaVuSans-47" transform="translate(408.453125 0)"/>
     </g>
    </g>
   </g>
  </g>
  <g id="axes_2">
   <g id="patch_26">
    <path d="M 511.23997 301.798359 
L 776.329766 301.798359 
L 776.329766 21.178359 
L 511.23997 21.178359 
z
" style="fill: #ffffff"/>
   </g>
   <g id="matplotlib.axis_3">
    <g id="xtick_8">
     <g id="line2d_16">
      <path d="M 544.376194 301.798359 
L 544.376194 21.178359 
" clip-path="url(#p9028862302)" style="fill: none; stroke: #cccccc; stroke-width: 0.8; stroke-linecap: round"/>
     </g>
     <g id="text_28">
      <!-- A -->
      <g style="fill: #262626" transform="translate(541.468929 316.556367) scale(0.085 -0.085)">
       <use xlink:href="#DejaVuSans-24"/>
      </g>
     </g>
    </g>
    <g id="xtick_9">
     <g id="line2d_17">
      <path d="M 610.648643 301.798359 
L 610.648643 21.178359 
" clip-path="url(#p9028862302)" style="fill: none; stroke: #cccccc; stroke-width: 0.8; stroke-linecap: round"/>
     </g>
     <g id="text_29">
      <!-- B -->
      <g style="fill: #262626" transform="translate(607.732745 316.556367) scale(0.085 -0.085)">
       <use xlink:href="#DejaVuSans-25"/>
      </g>
     </g>
    </g>
    <g id="xtick_10">
     <g id="line2d_18">
      <path d="M 676.921092 301.798359 
L 676.921092 21.178359 
" clip-path="url(#p9028862302)" style="fill: none; stroke: #cccccc; stroke-width: 0.8; stroke-linecap: round"/>
     </g>
     <g id="text_30">
      <!-- F -->
      <g style="fill: #262626" transform="translate(674.476678 316.556367) scale(0.085 -0.085)">
       <defs>
        <path id="DejaVuSans-29" d="M 628 4666 
L 3309 4666 
L 3309 4134 
L 1259 4134 
L 1259 2759 
L 3109 2759 
L 3109 2228 
L 1259 2228 
L 1259 0 
L 628 0 
L 628 4666 
z
" transform="scale(0.015625)"/>
       </defs>
       <use xlink:href="#DejaVuSans-29"/>
      </g>
     </g>
    </g>
    <g id="xtick_11">
     <g id="line2d_19">
      <path d="M 743.193541 301.798359 
L 743.193541 21.178359 
" clip-path="url(#p9028862302)" style="fill: none; stroke: #cccccc; stroke-width: 0.8; stroke-linecap: round"/>
     </g>
     <g id="text_31">
      <!-- T -->
      <g style="fill: #262626" transform="translate(740.597721 316.556367) scale(0.085 -0.085)">
       <use xlink:href="#DejaVuSans-37"/>
      </g>
     </g>
    </g>
    <g id="text_32">
     <!-- ChEMBL assay type -->
     <g style="fill: #262626" transform="translate(597.239321 329.816875) scale(0.095 -0.095)">
      <defs>
       <path id="DejaVuSans-30" d="M 628 4666 
L 1569 4666 
L 2759 1491 
L 3956 4666 
L 4897 4666 
L 4897 0 
L 4281 0 
L 4281 4097 
L 3078 897 
L 2444 897 
L 1241 4097 
L 1241 0 
L 628 0 
L 628 4666 
z
" transform="scale(0.015625)"/>
       <path id="DejaVuSans-2f" d="M 628 4666 
L 1259 4666 
L 1259 531 
L 3531 531 
L 3531 0 
L 628 0 
L 628 4666 
z
" transform="scale(0.015625)"/>
       <path id="DejaVuSans-5c" d="M 2059 -325 
Q 1816 -950 1584 -1140 
Q 1353 -1331 966 -1331 
L 506 -1331 
L 506 -850 
L 844 -850 
Q 1081 -850 1212 -737 
Q 1344 -625 1503 -206 
L 1606 56 
L 191 3500 
L 800 3500 
L 1894 763 
L 2988 3500 
L 3597 3500 
L 2059 -325 
z
" transform="scale(0.015625)"/>
      </defs>
      <use xlink:href="#DejaVuSans-26"/>
      <use xlink:href="#DejaVuSans-4b" transform="translate(69.828125 0)"/>
      <use xlink:href="#DejaVuSans-28" transform="translate(133.203125 0)"/>
      <use xlink:href="#DejaVuSans-30" transform="translate(196.390625 0)"/>
      <use xlink:href="#DejaVuSans-25" transform="translate(282.671875 0)"/>
      <use xlink:href="#DejaVuSans-2f" transform="translate(351.28125 0)"/>
      <use xlink:href="#DejaVuSans-3" transform="translate(407 0)"/>
      <use xlink:href="#DejaVuSans-44" transform="translate(438.78125 0)"/>
      <use xlink:href="#DejaVuSans-56" transform="translate(500.0625 0)"/>
      <use xlink:href="#DejaVuSans-56" transform="translate(552.15625 0)"/>
      <use xlink:href="#DejaVuSans-44" transform="translate(604.25 0)"/>
      <use xlink:href="#DejaVuSans-5c" transform="translate(665.53125 0)"/>
      <use xlink:href="#DejaVuSans-3" transform="translate(724.71875 0)"/>
      <use xlink:href="#DejaVuSans-57" transform="translate(756.5 0)"/>
      <use xlink:href="#DejaVuSans-5c" transform="translate(795.703125 0)"/>
      <use xlink:href="#DejaVuSans-53" transform="translate(854.890625 0)"/>
      <use xlink:href="#DejaVuSans-48" transform="translate(918.375 0)"/>
     </g>
    </g>
   </g>
   <g id="matplotlib.axis_4">
    <g id="ytick_9">
     <g id="line2d_20">
      <path d="M 511.23997 301.798359 
L 776.329766 301.798359 
" clip-path="url(#p9028862302)" style="fill: none; stroke: #cccccc; stroke-width: 0.8; stroke-linecap: round"/>
     </g>
     <g id="line2d_21">
      <defs>
       <path id="m26bd2fd8cf" d="M 0 0 
L -4.8 0 
" style="stroke: #262626"/>
      </defs>
      <g>
       <use xlink:href="#m26bd2fd8cf" x="511.23997" y="301.798359" style="fill: #262626; stroke: #262626"/>
      </g>
     </g>
     <g id="text_33">
      <!-- 0 -->
      <g style="fill: #262626" transform="translate(497.531845 305.027363) scale(0.085 -0.085)">
       <use xlink:href="#DejaVuSans-13"/>
      </g>
     </g>
    </g>
    <g id="ytick_10">
     <g id="line2d_22">
      <path d="M 511.23997 260.681876 
L 776.329766 260.681876 
" clip-path="url(#p9028862302)" style="fill: none; stroke: #cccccc; stroke-width: 0.8; stroke-linecap: round"/>
     </g>
     <g id="line2d_23">
      <g>
       <use xlink:href="#m26bd2fd8cf" x="511.23997" y="260.681876" style="fill: #262626; stroke: #262626"/>
      </g>
     </g>
     <g id="text_34">
      <!-- 2 -->
      <g style="fill: #262626" transform="translate(497.531845 263.91088) scale(0.085 -0.085)">
       <use xlink:href="#DejaVuSans-15"/>
      </g>
     </g>
    </g>
    <g id="ytick_11">
     <g id="line2d_24">
      <path d="M 511.23997 219.565392 
L 776.329766 219.565392 
" clip-path="url(#p9028862302)" style="fill: none; stroke: #cccccc; stroke-width: 0.8; stroke-linecap: round"/>
     </g>
     <g id="line2d_25">
      <g>
       <use xlink:href="#m26bd2fd8cf" x="511.23997" y="219.565392" style="fill: #262626; stroke: #262626"/>
      </g>
     </g>
     <g id="text_35">
      <!-- 4 -->
      <g style="fill: #262626" transform="translate(497.531845 222.794396) scale(0.085 -0.085)">
       <use xlink:href="#DejaVuSans-17"/>
      </g>
     </g>
    </g>
    <g id="ytick_12">
     <g id="line2d_26">
      <path d="M 511.23997 178.448909 
L 776.329766 178.448909 
" clip-path="url(#p9028862302)" style="fill: none; stroke: #cccccc; stroke-width: 0.8; stroke-linecap: round"/>
     </g>
     <g id="line2d_27">
      <g>
       <use xlink:href="#m26bd2fd8cf" x="511.23997" y="178.448909" style="fill: #262626; stroke: #262626"/>
      </g>
     </g>
     <g id="text_36">
      <!-- 6 -->
      <g style="fill: #262626" transform="translate(497.531845 181.677913) scale(0.085 -0.085)">
       <use xlink:href="#DejaVuSans-19"/>
      </g>
     </g>
    </g>
    <g id="ytick_13">
     <g id="line2d_28">
      <path d="M 511.23997 137.332425 
L 776.329766 137.332425 
" clip-path="url(#p9028862302)" style="fill: none; stroke: #cccccc; stroke-width: 0.8; stroke-linecap: round"/>
     </g>
     <g id="line2d_29">
      <g>
       <use xlink:href="#m26bd2fd8cf" x="511.23997" y="137.332425" style="fill: #262626; stroke: #262626"/>
      </g>
     </g>
     <g id="text_37">
      <!-- 8 -->
      <g style="fill: #262626" transform="translate(497.531845 140.561429) scale(0.085 -0.085)">
       <use xlink:href="#DejaVuSans-1b"/>
      </g>
     </g>
    </g>
    <g id="ytick_14">
     <g id="line2d_30">
      <path d="M 511.23997 96.215942 
L 776.329766 96.215942 
" clip-path="url(#p9028862302)" style="fill: none; stroke: #cccccc; stroke-width: 0.8; stroke-linecap: round"/>
     </g>
     <g id="line2d_31">
      <g>
       <use xlink:href="#m26bd2fd8cf" x="511.23997" y="96.215942" style="fill: #262626; stroke: #262626"/>
      </g>
     </g>
     <g id="text_38">
      <!-- 10 -->
      <g style="fill: #262626" transform="translate(492.12372 99.444946) scale(0.085 -0.085)">
       <use xlink:href="#DejaVuSans-14"/>
       <use xlink:href="#DejaVuSans-13" transform="translate(63.625 0)"/>
      </g>
     </g>
    </g>
    <g id="ytick_15">
     <g id="line2d_32">
      <path d="M 511.23997 55.099458 
L 776.329766 55.099458 
" clip-path="url(#p9028862302)" style="fill: none; stroke: #cccccc; stroke-width: 0.8; stroke-linecap: round"/>
     </g>
     <g id="line2d_33">
      <g>
       <use xlink:href="#m26bd2fd8cf" x="511.23997" y="55.099458" style="fill: #262626; stroke: #262626"/>
      </g>
     </g>
     <g id="text_39">
      <!-- 12 -->
      <g style="fill: #262626" transform="translate(492.12372 58.328462) scale(0.085 -0.085)">
       <use xlink:href="#DejaVuSans-14"/>
       <use xlink:href="#DejaVuSans-15" transform="translate(63.625 0)"/>
      </g>
     </g>
    </g>
    <g id="text_40">
     <!-- Number of endpoint datasets -->
     <g style="fill: #262626" transform="translate(485.841493 231.173086) rotate(-90) scale(0.095 -0.095)">
      <use xlink:href="#DejaVuSans-31"/>
      <use xlink:href="#DejaVuSans-58" transform="translate(74.8125 0)"/>
      <use xlink:href="#DejaVuSans-50" transform="translate(138.1875 0)"/>
      <use xlink:href="#DejaVuSans-45" transform="translate(235.59375 0)"/>
      <use xlink:href="#DejaVuSans-48" transform="translate(299.078125 0)"/>
      <use xlink:href="#DejaVuSans-55" transform="translate(360.609375 0)"/>
      <use xlink:href="#DejaVuSans-3" transform="translate(401.71875 0)"/>
      <use xlink:href="#DejaVuSans-52" transform="translate(433.5 0)"/>
      <use xlink:href="#DejaVuSans-49" transform="translate(494.6875 0)"/>
      <use xlink:href="#DejaVuSans-3" transform="translate(529.890625 0)"/>
      <use xlink:href="#DejaVuSans-48" transform="translate(561.671875 0)"/>
      <use xlink:href="#DejaVuSans-51" transform="translate(623.203125 0)"/>
      <use xlink:href="#DejaVuSans-47" transform="translate(686.578125 0)"/>
      <use xlink:href="#DejaVuSans-53" transform="translate(750.0625 0)"/>
      <use xlink:href="#DejaVuSans-52" transform="translate(813.546875 0)"/>
      <use xlink:href="#DejaVuSans-4c" transform="translate(874.734375 0)"/>
      <use xlink:href="#DejaVuSans-51" transform="translate(902.515625 0)"/>
      <use xlink:href="#DejaVuSans-57" transform="translate(965.890625 0)"/>
      <use xlink:href="#DejaVuSans-3" transform="translate(1005.09375 0)"/>
      <use xlink:href="#DejaVuSans-47" transform="translate(1036.875 0)"/>
      <use xlink:href="#DejaVuSans-44" transform="translate(1100.359375 0)"/>
      <use xlink:href="#DejaVuSans-57" transform="translate(1161.640625 0)"/>
      <use xlink:href="#DejaVuSans-44" transform="translate(1200.84375 0)"/>
      <use xlink:href="#DejaVuSans-56" transform="translate(1262.125 0)"/>
      <use xlink:href="#DejaVuSans-48" transform="translate(1314.21875 0)"/>
      <use xlink:href="#DejaVuSans-57" transform="translate(1375.75 0)"/>
      <use xlink:href="#DejaVuSans-56" transform="translate(1414.953125 0)"/>
     </g>
    </g>
   </g>
   <g id="patch_27">
    <path d="M 517.867215 301.798359 
L 570.885174 301.798359 
L 570.885174 34.541217 
L 517.867215 34.541217 
z
" clip-path="url(#p9028862302)" style="fill: #4e79a7; stroke: #ffffff; stroke-width: 0.8; stroke-linejoin: miter"/>
   </g>
   <g id="patch_28">
    <path d="M 584.139664 301.798359 
L 637.157623 301.798359 
L 637.157623 75.6577 
L 584.139664 75.6577 
z
" clip-path="url(#p9028862302)" style="fill: #f28e2b; stroke: #ffffff; stroke-width: 0.8; stroke-linejoin: miter"/>
   </g>
   <g id="patch_29">
    <path d="M 650.412113 301.798359 
L 703.430072 301.798359 
L 703.430072 219.565392 
L 650.412113 219.565392 
z
" clip-path="url(#p9028862302)" style="fill: #59a14f; stroke: #ffffff; stroke-width: 0.8; stroke-linejoin: miter"/>
   </g>
   <g id="patch_30">
    <path d="M 716.684562 301.798359 
L 769.702521 301.798359 
L 769.702521 240.123634 
L 716.684562 240.123634 
z
" clip-path="url(#p9028862302)" style="fill: #e15759; stroke: #ffffff; stroke-width: 0.8; stroke-linejoin: miter"/>
   </g>
   <g id="patch_31">
    <path d="M 511.23997 301.798359 
L 511.23997 21.178359 
" style="fill: none; stroke: #333333; stroke-width: 0.8; stroke-linejoin: miter; stroke-linecap: square"/>
   </g>
   <g id="patch_32">
    <path d="M 776.329766 301.798359 
L 776.329766 21.178359 
" style="fill: none; stroke: #333333; stroke-width: 0.8; stroke-linejoin: miter; stroke-linecap: square"/>
   </g>
   <g id="patch_33">
    <path d="M 511.23997 301.798359 
L 776.329766 301.798359 
" style="fill: none; stroke: #333333; stroke-width: 0.8; stroke-linejoin: miter; stroke-linecap: square"/>
   </g>
   <g id="patch_34">
    <path d="M 511.23997 21.178359 
L 776.329766 21.178359 
" style="fill: none; stroke: #333333; stroke-width: 0.8; stroke-linejoin: miter; stroke-linecap: square"/>
   </g>
   <g id="text_41">
    <!-- 13 -->
    <g style="fill: #262626" transform="translate(538.331819 27.11943) scale(0.095 -0.095)">
     <use xlink:href="#DejaVuSans-14"/>
     <use xlink:href="#DejaVuSans-16" transform="translate(63.625 0)"/>
    </g>
   </g>
   <g id="text_42">
    <!-- 11 -->
    <g style="fill: #262626" transform="translate(604.604268 68.235913) scale(0.095 -0.095)">
     <use xlink:href="#DejaVuSans-14"/>
     <use xlink:href="#DejaVuSans-14" transform="translate(63.625 0)"/>
    </g>
   </g>
   <g id="text_43">
    <!-- 4 -->
    <g style="fill: #262626" transform="translate(673.898905 212.143605) scale(0.095 -0.095)">
     <use xlink:href="#DejaVuSans-17"/>
    </g>
   </g>
   <g id="text_44">
    <!-- 3 -->
    <g style="fill: #262626" transform="translate(740.171354 232.701847) scale(0.095 -0.095)">
     <use xlink:href="#DejaVuSans-16"/>
    </g>
   </g>
   <g id="text_45">
    <!-- Endpoint assay-type suffixes -->
    <g style="fill: #262626" transform="translate(568.489204 15.178359) scale(0.105 -0.105)">
     <defs>
      <path id="DejaVuSans-10" d="M 313 2009 
L 1997 2009 
L 1997 1497 
L 313 1497 
L 313 2009 
z
" transform="scale(0.015625)"/>
      <path id="DejaVuSans-13b1" d="M 2375 4863 
L 2375 4384 
L 1825 4384 
Q 1516 4384 1394 4259 
Q 1275 4134 1275 3809 
L 1275 3500 
L 2853 3500 
L 2853 3744 
Q 2853 4328 3125 4594 
Q 3213 4681 3334 4741 
Q 3578 4863 3988 4863 
L 4531 4863 
L 4531 4384 
L 3981 4384 
Q 3672 4384 3551 4259 
Q 3431 4134 3431 3809 
L 3431 3500 
L 5588 3500 
L 5588 0 
L 5009 0 
L 5009 3053 
L 3431 3053 
L 3431 0 
L 2853 0 
L 2853 3053 
L 1275 3053 
L 1275 0 
L 697 0 
L 697 3053 
L 147 3053 
L 147 3500 
L 697 3500 
L 697 3744 
Q 697 4328 969 4595 
Q 1241 4863 1831 4863 
L 2375 4863 
z
M 5009 4856 
L 5588 4856 
L 5588 4128 
L 5009 4128 
L 5009 4856 
z
" transform="scale(0.015625)"/>
     </defs>
     <use xlink:href="#DejaVuSans-28"/>
     <use xlink:href="#DejaVuSans-51" transform="translate(63.1875 0)"/>
     <use xlink:href="#DejaVuSans-47" transform="translate(126.5625 0)"/>
     <use xlink:href="#DejaVuSans-53" transform="translate(190.046875 0)"/>
     <use xlink:href="#DejaVuSans-52" transform="translate(253.53125 0)"/>
     <use xlink:href="#DejaVuSans-4c" transform="translate(314.71875 0)"/>
     <use xlink:href="#DejaVuSans-51" transform="translate(342.5 0)"/>
     <use xlink:href="#DejaVuSans-57" transform="translate(405.875 0)"/>
     <use xlink:href="#DejaVuSans-3" transform="translate(445.078125 0)"/>
     <use xlink:href="#DejaVuSans-44" transform="translate(476.859375 0)"/>
     <use xlink:href="#DejaVuSans-56" transform="translate(538.140625 0)"/>
     <use xlink:href="#DejaVuSans-56" transform="translate(590.234375 0)"/>
     <use xlink:href="#DejaVuSans-44" transform="translate(642.328125 0)"/>
     <use xlink:href="#DejaVuSans-5c" transform="translate(703.609375 0)"/>
     <use xlink:href="#DejaVuSans-10" transform="translate(761.046875 0)"/>
     <use xlink:href="#DejaVuSans-57" transform="translate(797.125 0)"/>
     <use xlink:href="#DejaVuSans-5c" transform="translate(836.328125 0)"/>
     <use xlink:href="#DejaVuSans-53" transform="translate(895.515625 0)"/>
     <use xlink:href="#DejaVuSans-48" transform="translate(959 0)"/>
     <use xlink:href="#DejaVuSans-3" transform="translate(1020.53125 0)"/>
     <use xlink:href="#DejaVuSans-56" transform="translate(1052.3125 0)"/>
     <use xlink:href="#DejaVuSans-58" transform="translate(1104.40625 0)"/>
     <use xlink:href="#DejaVuSans-13b1" transform="translate(1167.78125 0)"/>
     <use xlink:href="#DejaVuSans-5b" transform="translate(1264.46875 0)"/>
     <use xlink:href="#DejaVuSans-48" transform="translate(1320.578125 0)"/>
     <use xlink:href="#DejaVuSans-56" transform="translate(1382.109375 0)"/>
    </g>
   </g>
   <g id="legend_2">
    <g id="patch_35">
     <path d="M 661.088359 53.479687 
L 770.379766 53.479687 
Q 772.079766 53.479687 772.079766 51.779687 
L 772.079766 27.128359 
Q 772.079766 25.428359 770.379766 25.428359 
L 661.088359 25.428359 
Q 659.388359 25.428359 659.388359 27.128359 
L 659.388359 51.779687 
Q 659.388359 53.479687 661.088359 53.479687 
z
" style="fill: #ffffff; opacity: 0.8; stroke: #cccccc; stroke-width: 0.8; stroke-linejoin: miter"/>
    </g>
    <g id="line2d_34">
     <path d="M 662.788359 32.312031 
L 671.288359 32.312031 
L 679.788359 32.312031 
" style="fill: none; stroke: #ffffff; stroke-width: 1.2; stroke-linecap: round"/>
     <defs>
      <path id="mde7e1e1807" d="M -4 4 
L 4 4 
L 4 -4 
L -4 -4 
z
" style="stroke: #ffffff; stroke-linejoin: miter"/>
     </defs>
     <g>
      <use xlink:href="#mde7e1e1807" x="671.288359" y="32.312031" style="fill: #4e79a7; stroke: #ffffff; stroke-linejoin: miter"/>
     </g>
    </g>
    <g id="text_46">
     <!-- Endpoint count -->
     <g style="fill: #262626" transform="translate(686.588359 35.287031) scale(0.085 -0.085)">
      <use xlink:href="#DejaVuSans-28"/>
      <use xlink:href="#DejaVuSans-51" transform="translate(63.1875 0)"/>
      <use xlink:href="#DejaVuSans-47" transform="translate(126.5625 0)"/>
      <use xlink:href="#DejaVuSans-53" transform="translate(190.046875 0)"/>
      <use xlink:href="#DejaVuSans-52" transform="translate(253.53125 0)"/>
      <use xlink:href="#DejaVuSans-4c" transform="translate(314.71875 0)"/>
      <use xlink:href="#DejaVuSans-51" transform="translate(342.5 0)"/>
      <use xlink:href="#DejaVuSans-57" transform="translate(405.875 0)"/>
      <use xlink:href="#DejaVuSans-3" transform="translate(445.078125 0)"/>
      <use xlink:href="#DejaVuSans-46" transform="translate(476.859375 0)"/>
      <use xlink:href="#DejaVuSans-52" transform="translate(531.84375 0)"/>
      <use xlink:href="#DejaVuSans-58" transform="translate(593.03125 0)"/>
      <use xlink:href="#DejaVuSans-51" transform="translate(656.40625 0)"/>
      <use xlink:href="#DejaVuSans-57" transform="translate(719.78125 0)"/>
     </g>
    </g>
    <g id="line2d_35">
     <path d="M 662.788359 45.062695 
L 671.288359 45.062695 
L 679.788359 45.062695 
" style="fill: none; stroke: #ffffff; stroke-width: 1.2; stroke-linecap: round"/>
     <defs>
      <path id="mb16d6ae2c5" d="M 0 2.5 
C 0.663008 2.5 1.29895 2.236584 1.767767 1.767767 
C 2.236584 1.29895 2.5 0.663008 2.5 0 
C 2.5 -0.663008 2.236584 -1.29895 1.767767 -1.767767 
C 1.29895 -2.236584 0.663008 -2.5 0 -2.5 
C -0.663008 -2.5 -1.29895 -2.236584 -1.767767 -1.767767 
C -2.236584 -1.29895 -2.5 -0.663008 -2.5 0 
C -2.5 0.663008 -2.236584 1.29895 -1.767767 1.767767 
C -1.29895 2.236584 -0.663008 2.5 0 2.5 
z
" style="stroke: #ffffff"/>
     </defs>
     <g>
      <use xlink:href="#mb16d6ae2c5" x="671.288359" y="45.062695" style="fill: #333333; stroke: #ffffff"/>
     </g>
    </g>
    <g id="text_47">
     <!-- Endpoint censoring -->
     <g style="fill: #262626" transform="translate(686.588359 48.037695) scale(0.085 -0.085)">
      <use xlink:href="#DejaVuSans-28"/>
      <use xlink:href="#DejaVuSans-51" transform="translate(63.1875 0)"/>
      <use xlink:href="#DejaVuSans-47" transform="translate(126.5625 0)"/>
      <use xlink:href="#DejaVuSans-53" transform="translate(190.046875 0)"/>
      <use xlink:href="#DejaVuSans-52" transform="translate(253.53125 0)"/>
      <use xlink:href="#DejaVuSans-4c" transform="translate(314.71875 0)"/>
      <use xlink:href="#DejaVuSans-51" transform="translate(342.5 0)"/>
      <use xlink:href="#DejaVuSans-57" transform="translate(405.875 0)"/>
      <use xlink:href="#DejaVuSans-3" transform="translate(445.078125 0)"/>
      <use xlink:href="#DejaVuSans-46" transform="translate(476.859375 0)"/>
      <use xlink:href="#DejaVuSans-48" transform="translate(531.84375 0)"/>
      <use xlink:href="#DejaVuSans-51" transform="translate(593.375 0)"/>
      <use xlink:href="#DejaVuSans-56" transform="translate(656.75 0)"/>
      <use xlink:href="#DejaVuSans-52" transform="translate(708.84375 0)"/>
      <use xlink:href="#DejaVuSans-55" transform="translate(770.03125 0)"/>
      <use xlink:href="#DejaVuSans-4c" transform="translate(811.140625 0)"/>
      <use xlink:href="#DejaVuSans-51" transform="translate(838.921875 0)"/>
      <use xlink:href="#DejaVuSans-4a" transform="translate(902.296875 0)"/>
     </g>
    </g>
   </g>
  </g>
  <g id="axes_3">
   <g id="matplotlib.axis_5">
    <g id="ytick_16">
     <g id="line2d_36">
      <path d="M 511.23997 301.798359 
L 776.329766 301.798359 
" clip-path="url(#p9028862302)" style="fill: none; stroke: #cccccc; stroke-width: 0.8; stroke-linecap: round"/>
     </g>
     <g id="line2d_37">
      <defs>
       <path id="m0662e6637c" d="M 0 0 
L 4.8 0 
" style="stroke: #262626"/>
      </defs>
      <g>
       <use xlink:href="#m0662e6637c" x="776.329766" y="301.798359" style="fill: #262626; stroke: #262626"/>
      </g>
     </g>
     <g id="text_48">
      <!-- 0 -->
      <g style="fill: #262626" transform="translate(784.629766 305.027363) scale(0.085 -0.085)">
       <use xlink:href="#DejaVuSans-13"/>
      </g>
     </g>
    </g>
    <g id="ytick_17">
     <g id="line2d_38">
      <path d="M 511.23997 248.346931 
L 776.329766 248.346931 
" clip-path="url(#p9028862302)" style="fill: none; stroke: #cccccc; stroke-width: 0.8; stroke-linecap: round"/>
     </g>
     <g id="line2d_39">
      <g>
       <use xlink:href="#m0662e6637c" x="776.329766" y="248.346931" style="fill: #262626; stroke: #262626"/>
      </g>
     </g>
     <g id="text_49">
      <!-- 20 -->
      <g style="fill: #262626" transform="translate(784.629766 251.575935) scale(0.085 -0.085)">
       <use xlink:href="#DejaVuSans-15"/>
       <use xlink:href="#DejaVuSans-13" transform="translate(63.625 0)"/>
      </g>
     </g>
    </g>
    <g id="ytick_18">
     <g id="line2d_40">
      <path d="M 511.23997 194.895502 
L 776.329766 194.895502 
" clip-path="url(#p9028862302)" style="fill: none; stroke: #cccccc; stroke-width: 0.8; stroke-linecap: round"/>
     </g>
     <g id="line2d_41">
      <g>
       <use xlink:href="#m0662e6637c" x="776.329766" y="194.895502" style="fill: #262626; stroke: #262626"/>
      </g>
     </g>
     <g id="text_50">
      <!-- 40 -->
      <g style="fill: #262626" transform="translate(784.629766 198.124506) scale(0.085 -0.085)">
       <use xlink:href="#DejaVuSans-17"/>
       <use xlink:href="#DejaVuSans-13" transform="translate(63.625 0)"/>
      </g>
     </g>
    </g>
    <g id="ytick_19">
     <g id="line2d_42">
      <path d="M 511.23997 141.444074 
L 776.329766 141.444074 
" clip-path="url(#p9028862302)" style="fill: none; stroke: #cccccc; stroke-width: 0.8; stroke-linecap: round"/>
     </g>
     <g id="line2d_43">
      <g>
       <use xlink:href="#m0662e6637c" x="776.329766" y="141.444074" style="fill: #262626; stroke: #262626"/>
      </g>
     </g>
     <g id="text_51">
      <!-- 60 -->
      <g style="fill: #262626" transform="translate(784.629766 144.673078) scale(0.085 -0.085)">
       <use xlink:href="#DejaVuSans-19"/>
       <use xlink:href="#DejaVuSans-13" transform="translate(63.625 0)"/>
      </g>
     </g>
    </g>
    <g id="ytick_20">
     <g id="line2d_44">
      <path d="M 511.23997 87.992645 
L 776.329766 87.992645 
" clip-path="url(#p9028862302)" style="fill: none; stroke: #cccccc; stroke-width: 0.8; stroke-linecap: round"/>
     </g>
     <g id="line2d_45">
      <g>
       <use xlink:href="#m0662e6637c" x="776.329766" y="87.992645" style="fill: #262626; stroke: #262626"/>
      </g>
     </g>
     <g id="text_52">
      <!-- 80 -->
      <g style="fill: #262626" transform="translate(784.629766 91.221649) scale(0.085 -0.085)">
       <use xlink:href="#DejaVuSans-1b"/>
       <use xlink:href="#DejaVuSans-13" transform="translate(63.625 0)"/>
      </g>
     </g>
    </g>
    <g id="ytick_21">
     <g id="line2d_46">
      <path d="M 511.23997 34.541217 
L 776.329766 34.541217 
" clip-path="url(#p9028862302)" style="fill: none; stroke: #cccccc; stroke-width: 0.8; stroke-linecap: round"/>
     </g>
     <g id="line2d_47">
      <g>
       <use xlink:href="#m0662e6637c" x="776.329766" y="34.541217" style="fill: #262626; stroke: #262626"/>
      </g>
     </g>
     <g id="text_53">
      <!-- 100 -->
      <g style="fill: #262626" transform="translate(784.629766 37.77022) scale(0.085 -0.085)">
       <use xlink:href="#DejaVuSans-14"/>
       <use xlink:href="#DejaVuSans-13" transform="translate(63.625 0)"/>
       <use xlink:href="#DejaVuSans-13" transform="translate(127.25 0)"/>
      </g>
     </g>
    </g>
    <g id="text_54">
     <!-- Endpoint censoring (%) -->
     <g style="fill: #262626" transform="translate(812.072656 217.092305) rotate(-90) scale(0.095 -0.095)">
      <defs>
       <path id="DejaVuSans-b" d="M 1984 4856 
Q 1566 4138 1362 3434 
Q 1159 2731 1159 2009 
Q 1159 1288 1364 580 
Q 1569 -128 1984 -844 
L 1484 -844 
Q 1016 -109 783 600 
Q 550 1309 550 2009 
Q 550 2706 781 3412 
Q 1013 4119 1484 4856 
L 1984 4856 
z
" transform="scale(0.015625)"/>
       <path id="DejaVuSans-c" d="M 513 4856 
L 1013 4856 
Q 1481 4119 1714 3412 
Q 1947 2706 1947 2009 
Q 1947 1309 1714 600 
Q 1481 -109 1013 -844 
L 513 -844 
Q 928 -128 1133 580 
Q 1338 1288 1338 2009 
Q 1338 2731 1133 3434 
Q 928 4138 513 4856 
z
" transform="scale(0.015625)"/>
      </defs>
      <use xlink:href="#DejaVuSans-28"/>
      <use xlink:href="#DejaVuSans-51" transform="translate(63.1875 0)"/>
      <use xlink:href="#DejaVuSans-47" transform="translate(126.5625 0)"/>
      <use xlink:href="#DejaVuSans-53" transform="translate(190.046875 0)"/>
      <use xlink:href="#DejaVuSans-52" transform="translate(253.53125 0)"/>
      <use xlink:href="#DejaVuSans-4c" transform="translate(314.71875 0)"/>
      <use xlink:href="#DejaVuSans-51" transform="translate(342.5 0)"/>
      <use xlink:href="#DejaVuSans-57" transform="translate(405.875 0)"/>
      <use xlink:href="#DejaVuSans-3" transform="translate(445.078125 0)"/>
      <use xlink:href="#DejaVuSans-46" transform="translate(476.859375 0)"/>
      <use xlink:href="#DejaVuSans-48" transform="translate(531.84375 0)"/>
      <use xlink:href="#DejaVuSans-51" transform="translate(593.375 0)"/>
      <use xlink:href="#DejaVuSans-56" transform="translate(656.75 0)"/>
      <use xlink:href="#DejaVuSans-52" transform="translate(708.84375 0)"/>
      <use xlink:href="#DejaVuSans-55" transform="translate(770.03125 0)"/>
      <use xlink:href="#DejaVuSans-4c" transform="translate(811.140625 0)"/>
      <use xlink:href="#DejaVuSans-51" transform="translate(838.921875 0)"/>
      <use xlink:href="#DejaVuSans-4a" transform="translate(902.296875 0)"/>
      <use xlink:href="#DejaVuSans-3" transform="translate(965.78125 0)"/>
      <use xlink:href="#DejaVuSans-b" transform="translate(997.5625 0)"/>
      <use xlink:href="#DejaVuSans-8" transform="translate(1036.578125 0)"/>
      <use xlink:href="#DejaVuSans-c" transform="translate(1131.59375 0)"/>
     </g>
    </g>
   </g>
   <g id="patch_36">
    <path d="M 511.23997 301.798359 
L 511.23997 21.178359 
" style="fill: none; stroke: #333333; stroke-width: 0.8; stroke-linejoin: miter; stroke-linecap: square"/>
   </g>
   <g id="patch_37">
    <path d="M 776.329766 301.798359 
L 776.329766 21.178359 
" style="fill: none; stroke: #333333; stroke-width: 0.8; stroke-linejoin: miter; stroke-linecap: square"/>
   </g>
   <g id="patch_38">
    <path d="M 511.23997 301.798359 
L 776.329766 301.798359 
" style="fill: none; stroke: #333333; stroke-width: 0.8; stroke-linejoin: miter; stroke-linecap: square"/>
   </g>
   <g id="patch_39">
    <path d="M 511.23997 21.178359 
L 776.329766 21.178359 
" style="fill: none; stroke: #333333; stroke-width: 0.8; stroke-linejoin: miter; stroke-linecap: square"/>
   </g>
   <g id="PathCollection_1">
    <defs>
     <path id="mc3043e1542" d="M 0 2 
C 0.530406 2 1.03916 1.789267 1.414214 1.414214 
C 1.789267 1.03916 2 0.530406 2 0 
C 2 -0.530406 1.789267 -1.03916 1.414214 -1.414214 
C 1.03916 -1.789267 0.530406 -2 0 -2 
C -0.530406 -2 -1.03916 -1.789267 -1.414214 -1.414214 
C -1.789267 -1.03916 -2 -0.530406 -2 0 
C -2 0.530406 -1.789267 1.03916 -1.414214 1.414214 
C -1.03916 1.789267 -0.530406 2 0 2 
z
"/>
    </defs>
    <g clip-path="url(#p9028862302)">
     <use xlink:href="#mc3043e1542" x="544.211138" y="168.169788" style="fill: #333333"/>
     <use xlink:href="#mc3043e1542" x="540.402427" y="130.993123" style="fill: #333333"/>
     <use xlink:href="#mc3043e1542" x="540.558662" y="286.077351" style="fill: #333333"/>
     <use xlink:href="#mc3043e1542" x="535.663757" y="143.159093" style="fill: #333333"/>
     <use xlink:href="#mc3043e1542" x="552.009261" y="289.920264" style="fill: #333333"/>
     <use xlink:href="#mc3043e1542" x="549.226417" y="159.965399" style="fill: #333333"/>
     <use xlink:href="#mc3043e1542" x="538.348779" y="286.077351" style="fill: #333333"/>
     <use xlink:href="#mc3043e1542" x="538.760584" y="141.023669" style="fill: #333333"/>
     <use xlink:href="#mc3043e1542" x="545.852611" y="294.945612" style="fill: #333333"/>
     <use xlink:href="#mc3043e1542" x="554.299029" y="170.301025" style="fill: #333333"/>
     <use xlink:href="#mc3043e1542" x="548.443167" y="295.435094" style="fill: #333333"/>
     <use xlink:href="#mc3043e1542" x="535.67382" y="222.343533" style="fill: #333333"/>
     <use xlink:href="#mc3043e1542" x="534.442032" y="295.988421" style="fill: #333333"/>
    </g>
   </g>
   <g id="PathCollection_2">
    <g clip-path="url(#p9028862302)">
     <use xlink:href="#mc3043e1542" x="601.355842" y="287.358642" style="fill: #333333"/>
     <use xlink:href="#mc3043e1542" x="602.18398" y="248.346931" style="fill: #333333"/>
     <use xlink:href="#mc3043e1542" x="602.586648" y="103.758894" style="fill: #333333"/>
     <use xlink:href="#mc3043e1542" x="617.931322" y="301.798359" style="fill: #333333"/>
     <use xlink:href="#mc3043e1542" x="604.845336" y="145.520878" style="fill: #333333"/>
     <use xlink:href="#mc3043e1542" x="620.27854" y="146.432874" style="fill: #333333"/>
     <use xlink:href="#mc3043e1542" x="601.776253" y="147.880633" style="fill: #333333"/>
     <use xlink:href="#mc3043e1542" x="621.803898" y="226.873669" style="fill: #333333"/>
     <use xlink:href="#mc3043e1542" x="603.849398" y="301.798359" style="fill: #333333"/>
     <use xlink:href="#mc3043e1542" x="614.791615" y="220.633987" style="fill: #333333"/>
     <use xlink:href="#mc3043e1542" x="598.808977" y="224.79698" style="fill: #333333"/>
    </g>
   </g>
   <g id="PathCollection_3">
    <g clip-path="url(#p9028862302)">
     <use xlink:href="#mc3043e1542" x="666.271567" y="180.31784" style="fill: #333333"/>
     <use xlink:href="#mc3043e1542" x="688.588601" y="241.0581" style="fill: #333333"/>
     <use xlink:href="#mc3043e1542" x="670.521618" y="34.541217" style="fill: #333333"/>
     <use xlink:href="#mc3043e1542" x="675.02535" y="267.153915" style="fill: #333333"/>
    </g>
   </g>
   <g id="PathCollection_4">
    <g clip-path="url(#p9028862302)">
     <use xlink:href="#mc3043e1542" x="738.972886" y="301.798359" style="fill: #333333"/>
     <use xlink:href="#mc3043e1542" x="740.295087" y="199.352367" style="fill: #333333"/>
     <use xlink:href="#mc3043e1542" x="742.861443" y="264.935305" style="fill: #333333"/>
    </g>
   </g>
  </g>
 </g>
 <defs>
  <clipPath id="p32e5de1dfd">
   <rect x="84.239766" y="21.178359" width="384.380204" height="280.62"/>
  </clipPath>
  <clipPath id="p9028862302">
   <rect x="511.23997" y="21.178359" width="265.089796" height="280.62"/>
  </clipPath>
 </defs>
</svg>
